<svg width="400" height="400" viewBox="0 0 400 400" fill="none" xmlns="http://www.w3.org/2000/svg">
<rect width="400" height="400" rx="200" fill="#7988D6"/>
<path d="M194.666 99.5053C197.609 92.4417 209.67 85.168 215.6 81.9319C217.288 81.0106 219.301 81.9835 219.652 83.8745C220.132 86.4551 220.864 90.6167 221.894 97.0299C224.005 110.177 225.854 118.812 227.834 130.198C231.649 152.135 228.904 171.627 247.636 183.664C256.719 189.5 269.086 196.93 270.722 197.911C270.846 197.986 270.963 198.045 271.097 198.1C272.661 198.75 283.378 203.193 290.706 205.941C302.082 210.207 320.332 213.856 322.641 214.309C322.805 214.342 322.941 214.358 323.108 214.363C326.407 214.472 364.963 216.109 364.963 233.169C364.963 248.401 347.077 245.105 336.138 253.466C321.347 264.771 300.155 284.141 298.605 285.561C298.539 285.622 298.487 285.665 298.415 285.719C296.602 287.099 270.378 306.94 253.465 313.862C235.544 323.064 207.198 327.528 205.981 327.717C205.942 327.723 205.941 327.723 205.902 327.727C204.675 327.863 174.801 331.117 158.911 327.723C136.522 322.941 101.708 314.357 121.399 303.466C139.882 293.242 156.718 293.924 158.713 294.046C158.846 294.054 158.966 294.072 159.096 294.099C161.186 294.533 180.73 298.385 205.94 296.04C226.014 294.172 245.307 286.582 247.441 285.723C247.577 285.668 247.699 285.606 247.825 285.531L270.579 271.976C270.795 271.847 270.991 271.695 271.164 271.513C273.633 268.928 292.458 248.378 276.237 239.109C262.485 232.691 254.675 231.792 253.595 231.694C253.505 231.686 253.425 231.677 253.336 231.664C252.372 231.524 246.054 230.653 235.148 230.198C213.313 229.288 196.103 236.964 194.751 237.584C194.688 237.614 194.644 237.633 194.578 237.658C193.216 238.187 176.298 244.737 163.478 249.01C146.946 254.521 138.521 259.632 121.399 262.872C103.082 266.337 94.3187 269.186 76.3493 267.822C64.0525 266.889 57.3801 265.528 45.161 263.862C34.2701 262.376 31.9369 247.708 37.7352 243.07C47.6365 235.149 55.5573 235.149 68.4283 233.169C89.1762 229.977 120.644 221.008 121.385 220.796C121.409 220.79 121.393 220.794 121.416 220.788C122.158 220.594 146.365 214.227 160.012 205.941C170.529 199.556 176.398 194.465 182.29 183.664C192.288 165.334 185.752 151.031 187.24 130.198C188.23 116.337 189.715 111.386 194.666 99.5053Z" fill="url(#paint0_linear_38_2)"/>
<defs>
<linearGradient id="paint0_linear_38_2" x1="34.6533" y1="80.1982" x2="365.346" y2="329.703" gradientUnits="userSpaceOnUse">
<stop stop-color="#D9D9D9"/>
<stop offset="1" stop-color="#D9D9D9" stop-opacity="0.2"/>
</linearGradient>
</defs>
</svg>
