<svg width="75" height="15" viewBox="0 0 75 15" fill="none" xmlns="http://www.w3.org/2000/svg">
<g clip-path="url(#clip0_338_318)">
<path d="M16.1537 3.6167L14.966 6.83076H12.3245L11.1367 3.6167H16.1537Z" fill="#00AF7E"/>
<path d="M1.98042 11.6519H5.10703L3.91874 14.867H0.765625L1.98042 11.6519Z" fill="white"/>
<path d="M3.80147 6.83105H6.88838L6.29444 8.43809H3.19434L3.80147 6.83105Z" fill="white"/>
<path d="M15.3853 14.8672L12.2336 14.8657L9.26392 6.83094L8.07617 3.61688H5.01562L6.38167 0H9.76999L11.1367 3.61688L12.3508 6.83094L15.3853 14.8672Z" fill="white"/>
<path d="M8.07649 3.6167L6.88874 6.83076H1.18775L0 3.6167H8.07649Z" fill="#00AF7E"/>
<path d="M9.85805 8.43799L11.0458 11.652H1.18775L0 8.43799H9.85805Z" fill="#00AF7E"/>
<path d="M16.1538 8.43799L14.966 11.652H14.1721L12.958 8.43799H16.1538Z" fill="#00AF7E"/>
<path d="M16.9263 14.8954C16.7072 14.8954 16.5242 14.8197 16.3735 14.6686C16.2255 14.5153 16.1504 14.3294 16.1504 14.1088C16.1504 13.8881 16.2248 13.7022 16.3735 13.551C16.5242 13.3978 16.7072 13.3223 16.9263 13.3223C17.1453 13.3223 17.3282 13.3978 17.4769 13.551C17.6276 13.7022 17.702 13.8881 17.702 14.1088C17.702 14.3294 17.6276 14.5153 17.4769 14.6686C17.3282 14.8197 17.1453 14.8954 16.9263 14.8954ZM17.3925 14.5888C17.5191 14.4581 17.5809 14.2987 17.5809 14.1088C17.5809 13.9188 17.5186 13.7594 17.3925 13.63C17.2664 13.5006 17.1111 13.4339 16.9263 13.4339C16.7414 13.4339 16.5865 13.4993 16.4599 13.63C16.3333 13.7608 16.2715 13.9181 16.2715 14.1088C16.2715 14.2994 16.3338 14.4581 16.4599 14.5888C16.5205 14.6517 16.5932 14.7014 16.6734 14.7348C16.7536 14.7681 16.8396 14.7845 16.9263 14.7829C17.1111 14.7829 17.2659 14.7176 17.3925 14.5888ZM17.0129 14.1384H16.776V14.4924H16.6431V13.6854H16.9555C17.1542 13.6854 17.2535 13.7548 17.2535 13.8935C17.2535 13.9957 17.2044 14.0601 17.1063 14.0869C17.19 14.1064 17.2319 14.1624 17.232 14.2548V14.3205C17.232 14.3498 17.2361 14.3692 17.2445 14.3789C17.2528 14.3886 17.2726 14.3935 17.3038 14.3935H17.3181V14.492H17.2356C17.1446 14.492 17.0991 14.4531 17.0992 14.3753V14.2224C17.0992 14.1665 17.0704 14.1385 17.0129 14.1384ZM16.952 13.7917H16.776V14.0473H16.9626C17.0632 14.0473 17.1135 14.0023 17.1134 13.9123C17.1134 13.832 17.0596 13.7918 16.952 13.7917Z" fill="white"/>
<path d="M21.726 14.8415H19.6748L23.7774 3.59082H26.0205L30.2705 14.8415H28.0274L27.0535 12.2163H22.641L21.726 14.8415ZM23.2756 10.4163H26.3893L24.7956 6.09609L23.2756 10.4163Z" fill="white"/>
<path d="M35.6465 14.8414V12.6656C35.3662 14.1208 34.5988 14.9909 33.1377 14.9909C31.6326 14.9909 30.1279 13.7612 30.1279 11.0462C30.1279 8.42107 31.6332 7.19087 33.1384 7.19087C34.5995 7.19087 35.3668 8.04602 35.6471 9.48605V3.59082H37.5655V14.8415L35.6465 14.8414ZM33.9789 13.6262C34.9381 13.6262 35.5875 12.7262 35.5875 11.0462C35.5875 9.426 34.9381 8.52599 33.9789 8.52599C33.0196 8.52599 32.2523 9.426 32.2523 11.0462C32.2523 12.7262 33.0197 13.6262 33.9789 13.6262Z" fill="white"/>
<path d="M42.7901 14.8418H41.4618L38.2891 7.34131H40.3993L42.2883 12.2316L44.2067 7.34131H46.0662L42.7901 14.8418Z" fill="white"/>
<path d="M49.7699 7.19092C51.3047 7.19092 52.7361 8.18107 53.0903 9.74118L51.3344 10.4011C51.0835 9.02104 50.4637 8.45107 49.6524 8.45107C48.6637 8.45107 48.0145 9.38118 48.0145 11.0762C48.0145 12.8912 48.7966 13.7014 49.6672 13.7014C50.5674 13.7014 51.0397 12.9963 51.3348 11.6013L53.091 12.2612C52.8099 13.9264 51.3344 14.9909 49.7699 14.9909C47.6304 14.9909 45.874 13.386 45.874 11.0757C45.874 8.79603 47.63 7.19092 49.7699 7.19092Z" fill="white"/>
<path d="M63.3287 9.35109C63.3287 9.75609 63.6977 9.9666 64.8783 10.2211C66.7672 10.6262 67.4018 11.3162 67.4018 12.5613C67.4018 13.8663 66.5901 14.9914 64.5388 14.9914C63.004 14.9914 61.9418 14.4063 61.3955 13.2213L62.7089 12.4713C63.0779 13.1913 63.7567 13.5063 64.5831 13.5063C65.3653 13.5063 65.6751 13.2514 65.6751 12.8462C65.6751 12.4113 65.3062 12.1563 64.1257 11.9012C62.4138 11.5412 61.6022 10.8812 61.6022 9.48609C61.6022 7.98602 62.8123 7.19092 64.3028 7.19092C65.5423 7.19092 66.7082 7.65597 67.2542 8.96113L65.9408 9.63614C65.5718 8.91613 65.0258 8.64612 64.3765 8.64612C63.6829 8.64612 63.3287 8.93158 63.3287 9.35109Z" fill="white"/>
<path d="M70.2778 14.8415H68.3594V3.59082H70.2778V9.80064C70.5582 8.13562 71.3256 7.19046 72.7865 7.19046C73.9376 7.19046 75.0001 7.98557 75.0001 9.54568V14.841H73.0817V10.2813C73.0817 9.93619 72.9784 9.62119 72.7865 9.30618C72.5946 8.99118 72.2849 8.84113 71.8568 8.84113C70.6762 8.84113 70.2778 10.0563 70.2778 10.6413V14.8415Z" fill="white"/>
<path d="M55.6505 10.1791L53.8922 9.51834C53.981 9.11812 54.1337 8.77025 54.3504 8.47471C54.563 8.18314 54.8288 7.93586 55.1333 7.74636C55.4383 7.55623 55.783 7.41603 56.1675 7.32576C56.565 7.23408 56.9715 7.1887 57.3792 7.19048C58.492 7.19048 59.2897 7.37076 59.7725 7.73131C60.2552 8.09186 60.4965 8.68754 60.4965 9.51834V13.1977V14.8498H58.569L58.576 13.6633V13.3181L57.9602 14.0853C57.6697 14.4506 57.2787 14.7196 56.8372 14.858C56.8208 14.863 56.8044 14.868 56.7879 14.8726C56.4919 14.9576 56.2112 15.0001 55.9459 15.0002C55.3055 15.0002 54.7908 14.8224 54.4018 14.4668C54.0128 14.1111 53.8184 13.6231 53.8184 13.0025C53.8184 12.4417 53.939 12.0237 54.1802 11.7484C54.4214 11.4731 54.7539 11.2603 55.1777 11.1101C55.6012 10.96 56.1035 10.8248 56.6847 10.7046C57.2659 10.5845 57.8963 10.3993 58.576 10.1493V9.83376C58.576 9.43327 58.4773 9.13791 58.2799 8.9477C58.0826 8.75748 57.7575 8.66237 57.3048 8.66237C56.7531 8.66237 56.3763 8.78009 56.1745 9.01554C55.9726 9.25098 55.798 9.63885 55.6505 10.1791ZM55.9165 12.6573C55.9165 12.9377 56.0002 13.163 56.1675 13.3333C56.3348 13.5035 56.5712 13.5886 56.8767 13.5884C57.0048 13.5884 57.1549 13.5584 57.3272 13.4985C57.5064 13.4347 57.6737 13.3407 57.8222 13.2206C57.9799 13.0955 58.1276 12.9378 58.2655 12.7474C58.4034 12.5571 58.5069 12.3319 58.576 12.0716V10.8716C57.5217 11.2021 56.8151 11.3608 56.4556 11.6212C56.096 11.8816 55.9165 12.2269 55.9165 12.6573Z" fill="white"/>
</g>
<defs>
<clipPath id="clip0_338_318">
<rect width="75" height="15" fill="white"/>
</clipPath>
</defs>
</svg>
