<svg width="62" height="31" viewBox="0 0 62 31" fill="none" xmlns="http://www.w3.org/2000/svg">
<path d="M8.9369 30.414H7.2548L8.3061 23.9529H9.9885L8.9369 30.414ZM5.8396 23.9529L4.2359 28.3969L4.0461 27.4399L3.4803 24.5346C3.4803 24.5346 3.4119 23.9529 2.6824 23.9529H0.0310993L0 24.0623C0 24.0623 0.8107 24.231 1.7596 24.8008L3.221 30.4142H4.9737L7.6501 23.9529H5.8396ZM19.0707 30.414H20.6154L19.2686 23.9527H17.9164C17.292 23.9527 17.1398 24.4342 17.1398 24.4342L14.631 30.414H16.3846L16.7353 29.4542H18.8737L19.0707 30.414ZM17.2197 28.1285L18.1036 25.7105L18.6008 28.1285H17.2197ZM14.7625 25.5067L15.0026 24.1191C15.0026 24.1191 14.2619 23.8374 13.4897 23.8374C12.6549 23.8374 10.6725 24.2022 10.6725 25.9764C10.6725 27.6456 12.9992 27.6663 12.9992 28.5431C12.9992 29.4198 10.9122 29.2628 10.2235 28.7099L9.9734 30.1606C9.9734 30.1606 10.7245 30.5255 11.8722 30.5255C13.0201 30.5255 14.7519 29.9311 14.7519 28.3134C14.7519 26.6335 12.4043 26.4771 12.4043 25.7467C12.4045 25.0162 14.0428 25.11 14.7625 25.5067Z" fill="#2566AF"/>
<path d="M4.0463 27.4405L3.4803 24.5349C3.4803 24.5349 3.4119 23.9531 2.6824 23.9531H0.0310993L0 24.0625C0 24.0625 1.2743 24.3266 2.4965 25.3161C3.6652 26.2618 4.0463 27.4405 4.0463 27.4405Z" fill="#E6A540"/>
<path d="M12.4776 14.1948H9.04297V20.367H12.4776V14.1948Z" fill="#FF5F00"/>
<path d="M9.26146 17.2829C9.26106 16.6886 9.39576 16.102 9.65546 15.5673C9.91526 15.0328 10.2932 14.5643 10.7607 14.1974C10.1816 13.7423 9.48616 13.4593 8.75396 13.3808C8.02166 13.3022 7.28206 13.4312 6.61966 13.7532C5.95736 14.0751 5.39886 14.5768 5.00816 15.2011C4.61746 15.8254 4.41016 16.547 4.41016 17.2834C4.41016 18.0199 4.61746 18.7416 5.00816 19.3658C5.39886 19.9901 5.95736 20.4919 6.61966 20.8138C7.28206 21.1357 8.02166 21.2648 8.75396 21.1862C9.48616 21.1076 10.1816 20.8246 10.7607 20.3696C10.293 20.0025 9.91496 19.5339 9.65526 18.9991C9.39556 18.4643 9.26086 17.8774 9.26146 17.2829Z" fill="#EB001B"/>
<path d="M17.1117 17.2826C17.1117 18.0191 16.9045 18.7408 16.5138 19.3651C16.123 19.9894 15.5644 20.4911 14.9019 20.813C14.2394 21.1349 13.4998 21.2638 12.7674 21.1852C12.0352 21.1065 11.3398 20.8234 10.7607 20.3682C11.2281 20.0009 11.6059 19.5323 11.8657 18.9976C12.1255 18.4631 12.2605 17.8764 12.2605 17.2821C12.2605 16.6877 12.1255 16.101 11.8657 15.5665C11.6059 15.0318 11.2281 14.5632 10.7607 14.1959C11.3398 13.7406 12.0353 13.4576 12.7677 13.3789C13.5001 13.3003 14.2399 13.4293 14.9024 13.7514C15.5649 14.0733 16.1235 14.5752 16.5142 15.1997C16.9049 15.8242 17.112 16.546 17.1117 17.2826Z" fill="#F79E1B"/>
<path d="M12.9144 8.32768H8.8584V0.996582H12.9144V8.32768Z" fill="#6C6BBD"/>
<path d="M9.11622 4.66242C9.11622 3.17527 9.80852 1.85056 10.8866 0.99687C10.0982 0.3726 9.10322 0 8.02192 0C5.46192 0 3.38672 2.0874 3.38672 4.66242C3.38672 7.23742 5.46192 9.32482 8.02192 9.32482C9.10322 9.32482 10.0982 8.95222 10.8866 8.32802C9.80852 7.47432 9.11622 6.14962 9.11622 4.66242Z" fill="#D32011"/>
<path d="M18.3868 4.66242C18.3868 7.23742 16.3117 9.32482 13.7517 9.32482C12.6703 9.32482 11.6753 8.95222 10.8867 8.32802C11.9651 7.47432 12.6574 6.14962 12.6574 4.66242C12.6574 3.17527 11.9651 1.85056 10.8867 0.99687C11.6753 0.3726 12.6703 0 13.7517 0C16.3117 0 18.3868 2.0874 18.3868 4.66242Z" fill="#0099DF"/>
<path d="M29.72 14.65V8.64H26.37L26.31 10.34C26.29 10.8667 26.2567 11.3733 26.21 11.86C26.17 12.34 26.1033 12.7733 26.01 13.16C25.9233 13.54 25.8033 13.85 25.65 14.09C25.5033 14.33 25.31 14.47 25.07 14.51L24.26 14.36C24.5267 14.3733 24.7467 14.2767 24.92 14.07C25.1 13.8633 25.2367 13.5733 25.33 13.2C25.43 12.8267 25.5033 12.39 25.55 11.89C25.5967 11.39 25.63 10.85 25.65 10.27L25.73 8H30.45V14.65H29.72ZM24 16.57L24.01 14.36H31.5V16.57H30.81V15H24.7L24.69 16.57H24ZM35.5495 15.05C35.0961 15.05 34.6861 14.9467 34.3195 14.74C33.9528 14.5267 33.6595 14.2233 33.4395 13.83C33.2261 13.43 33.1195 12.9433 33.1195 12.37C33.1195 11.7967 33.2261 11.3133 33.4395 10.92C33.6528 10.52 33.9428 10.2167 34.3095 10.01C34.6761 9.8033 35.0895 9.7 35.5495 9.7C36.0495 9.7 36.4961 9.8133 36.8895 10.04C37.2895 10.26 37.6028 10.5733 37.8295 10.98C38.0561 11.38 38.1695 11.8433 38.1695 12.37C38.1695 12.9033 38.0561 13.37 37.8295 13.77C37.6028 14.17 37.2895 14.4833 36.8895 14.71C36.4961 14.9367 36.0495 15.05 35.5495 15.05ZM32.8394 16.94V9.75H33.5195V11.33L33.4495 12.38L33.5494 13.44V16.94H32.8394ZM35.4995 14.42C35.8728 14.42 36.2061 14.3367 36.4995 14.17C36.7928 13.9967 37.0261 13.7567 37.1995 13.45C37.3728 13.1367 37.4595 12.7767 37.4595 12.37C37.4595 11.9633 37.3728 11.6067 37.1995 11.3C37.0261 10.9933 36.7928 10.7533 36.4995 10.58C36.2061 10.4067 35.8728 10.32 35.4995 10.32C35.1261 10.32 34.7895 10.4067 34.4895 10.58C34.1961 10.7533 33.9628 10.9933 33.7895 11.3C33.6228 11.6067 33.5395 11.9633 33.5395 12.37C33.5395 12.7767 33.6228 13.1367 33.7895 13.45C33.9628 13.7567 34.1961 13.9967 34.4895 14.17C34.7895 14.3367 35.1261 14.42 35.4995 14.42ZM39.6384 16.99C39.3918 16.99 39.1551 16.95 38.9284 16.87C38.7084 16.79 38.5184 16.67 38.3584 16.51L38.6884 15.98C38.8218 16.1067 38.9651 16.2033 39.1184 16.27C39.2784 16.3433 39.4551 16.38 39.6484 16.38C39.8818 16.38 40.0818 16.3133 40.2484 16.18C40.4218 16.0533 40.5851 15.8267 40.7384 15.5L41.0784 14.73L41.1584 14.62L43.3184 9.75H44.0184L41.3884 15.63C41.2418 15.97 41.0784 16.24 40.8984 16.44C40.7251 16.64 40.5351 16.78 40.3284 16.86C40.1218 16.9467 39.8918 16.99 39.6384 16.99ZM41.0384 15.15L38.6184 9.75H39.3584L41.4984 14.57L41.0384 15.15ZM45.1246 15V9.75H48.8446V10.37H45.6546L45.8346 10.19V15H45.1246ZM49.8707 15V9.75H50.5807V13.92L54.0907 9.75H54.7207V15H54.0107V10.82L50.5107 15H49.8707ZM59.0055 15.05C58.4588 15.05 57.9788 14.9367 57.5655 14.71C57.1521 14.4767 56.8288 14.16 56.5955 13.76C56.3621 13.3533 56.2455 12.89 56.2455 12.37C56.2455 11.85 56.3555 11.39 56.5755 10.99C56.8021 10.59 57.1088 10.2767 57.4955 10.05C57.8888 9.8167 58.3288 9.7 58.8155 9.7C59.3088 9.7 59.7455 9.8133 60.1255 10.04C60.5121 10.26 60.8155 10.5733 61.0355 10.98C61.2555 11.38 61.3655 11.8433 61.3655 12.37C61.3655 12.4033 61.3621 12.44 61.3555 12.48C61.3555 12.5133 61.3555 12.55 61.3555 12.59H56.7855V12.06H60.9755L60.6955 12.27C60.6955 11.89 60.6121 11.5533 60.4455 11.26C60.2855 10.96 60.0655 10.7267 59.7855 10.56C59.5055 10.3933 59.1821 10.31 58.8155 10.31C58.4555 10.31 58.1321 10.3933 57.8455 10.56C57.5588 10.7267 57.3355 10.96 57.1755 11.26C57.0155 11.56 56.9355 11.9033 56.9355 12.29V12.4C56.9355 12.8 57.0221 13.1533 57.1955 13.46C57.3755 13.76 57.6221 13.9967 57.9355 14.17C58.2555 14.3367 58.6188 14.42 59.0255 14.42C59.3455 14.42 59.6421 14.3633 59.9155 14.25C60.1955 14.1367 60.4355 13.9633 60.6355 13.73L61.0355 14.19C60.8021 14.47 60.5088 14.6833 60.1555 14.83C59.8088 14.9767 59.4255 15.05 59.0055 15.05Z" fill="white"/>
<path d="M26.71 26.35C26.19 26.35 25.7233 26.2367 25.31 26.01C24.9033 25.7767 24.5833 25.46 24.35 25.06C24.1167 24.6533 24 24.19 24 23.67C24 23.1433 24.1167 22.68 24.35 22.28C24.5833 21.88 24.9033 21.5667 25.31 21.34C25.7233 21.1133 26.19 21 26.71 21C27.1567 21 27.56 21.0867 27.92 21.26C28.28 21.4333 28.5633 21.6933 28.77 22.04L28.24 22.4C28.06 22.1333 27.8367 21.9367 27.57 21.81C27.3033 21.6833 27.0133 21.62 26.7 21.62C26.3267 21.62 25.99 21.7067 25.69 21.88C25.39 22.0467 25.1533 22.2833 24.98 22.59C24.8067 22.8967 24.72 23.2567 24.72 23.67C24.72 24.0833 24.8067 24.4433 24.98 24.75C25.1533 25.0567 25.39 25.2967 25.69 25.47C25.99 25.6367 26.3267 25.72 26.7 25.72C27.0133 25.72 27.3033 25.6567 27.57 25.53C27.8367 25.4033 28.06 25.21 28.24 24.95L28.77 25.31C28.5633 25.65 28.28 25.91 27.92 26.09C27.56 26.2633 27.1567 26.35 26.71 26.35ZM31.0471 26.3V21.48L31.2271 21.67H29.0571V21.05H33.7471V21.67H31.5771L31.7571 21.48V26.3H31.0471ZM37.4837 26.35C37.0303 26.35 36.6203 26.2467 36.2537 26.04C35.887 25.8267 35.5937 25.5233 35.3737 25.13C35.1603 24.73 35.0537 24.2433 35.0537 23.67C35.0537 23.0967 35.1603 22.6133 35.3737 22.22C35.587 21.82 35.877 21.5167 36.2437 21.31C36.6103 21.1033 37.0237 21 37.4837 21C37.9837 21 38.4303 21.1133 38.8237 21.34C39.2237 21.56 39.537 21.8733 39.7637 22.28C39.9903 22.68 40.1037 23.1433 40.1037 23.67C40.1037 24.2033 39.9903 24.67 39.7637 25.07C39.537 25.47 39.2237 25.7833 38.8237 26.01C38.4303 26.2367 37.9837 26.35 37.4837 26.35ZM34.7737 28.24V21.05H35.4537V22.63L35.3837 23.68L35.4837 24.74V28.24H34.7737ZM37.4337 25.72C37.807 25.72 38.1403 25.6367 38.4337 25.47C38.727 25.2967 38.9603 25.0567 39.1337 24.75C39.307 24.4367 39.3937 24.0767 39.3937 23.67C39.3937 23.2633 39.307 22.9067 39.1337 22.6C38.9603 22.2933 38.727 22.0533 38.4337 21.88C38.1403 21.7067 37.807 21.62 37.4337 21.62C37.0603 21.62 36.7237 21.7067 36.4237 21.88C36.1303 22.0533 35.897 22.2933 35.7237 22.6C35.557 22.9067 35.4737 23.2633 35.4737 23.67C35.4737 24.0767 35.557 24.4367 35.7237 24.75C35.897 25.0567 36.1303 25.2967 36.4237 25.47C36.7237 25.6367 37.0603 25.72 37.4337 25.72ZM44.8598 26.3V25.14L44.8298 24.95V23.01C44.8298 22.5633 44.7032 22.22 44.4498 21.98C44.2032 21.74 43.8332 21.62 43.3398 21.62C42.9998 21.62 42.6765 21.6767 42.3698 21.79C42.0632 21.9033 41.8032 22.0533 41.5898 22.24L41.2698 21.71C41.5365 21.4833 41.8565 21.31 42.2298 21.19C42.6032 21.0633 42.9965 21 43.4098 21C44.0898 21 44.6132 21.17 44.9798 21.51C45.3532 21.8433 45.5398 22.3533 45.5398 23.04V26.3H44.8598ZM43.0498 26.35C42.6565 26.35 42.3132 26.2867 42.0198 26.16C41.7332 26.0267 41.5132 25.8467 41.3598 25.62C41.2065 25.3867 41.1298 25.12 41.1298 24.82C41.1298 24.5467 41.1932 24.3 41.3198 24.08C41.4532 23.8533 41.6665 23.6733 41.9598 23.54C42.2598 23.4 42.6598 23.33 43.1598 23.33H44.9698V23.86H43.1798C42.6732 23.86 42.3198 23.95 42.1198 24.13C41.9265 24.31 41.8298 24.5333 41.8298 24.8C41.8298 25.1 41.9465 25.34 42.1798 25.52C42.4132 25.7 42.7398 25.79 43.1598 25.79C43.5598 25.79 43.9032 25.7 44.1898 25.52C44.4832 25.3333 44.6965 25.0667 44.8298 24.72L44.9898 25.21C44.8565 25.5567 44.6232 25.8333 44.2898 26.04C43.9632 26.2467 43.5498 26.35 43.0498 26.35ZM47.4299 26.3V21.05H48.1399V23.37H51.4499V21.05H52.1599V26.3H51.4499V23.98H48.1399V26.3H47.4299ZM59.298 26.3V21.05H60.008V26.3H59.298ZM56.388 22.9C57.048 22.9067 57.5513 23.0533 57.898 23.34C58.2446 23.6267 58.418 24.04 58.418 24.58C58.418 25.14 58.2313 25.57 57.858 25.87C57.4846 26.17 56.9513 26.3167 56.258 26.31L54.178 26.3V21.05H54.888V22.88L56.388 22.9ZM56.208 25.77C56.7013 25.7767 57.0713 25.68 57.318 25.48C57.5713 25.2733 57.698 24.9733 57.698 24.58C57.698 24.1867 57.5746 23.9 57.328 23.72C57.0813 23.5333 56.708 23.4367 56.208 23.43L54.888 23.41V25.75L56.208 25.77Z" fill="white"/>
</svg>
