<?xml version="1.0" encoding="utf-8"?>
<!-- Generator: Adobe Illustrator 25.0.1, SVG Export Plug-In . SVG Version: 6.00 Build 0)  -->
<svg version="1.1" id="Слой_1" xmlns="http://www.w3.org/2000/svg" xmlns:xlink="http://www.w3.org/1999/xlink" x="0px" y="0px"
	 viewBox="0 0 1042.2 199.8" style="enable-background:new 0 0 1042.2 199.8;" xml:space="preserve">
<style type="text/css">
	.st0{fill:#FFC800;}
	.st1{fill:url(#SVGID_1_);}
</style>
<g>
	<path d="M855.9,45.5c19.4,1.7,36.6-12.6,38.3-32c0.1-0.6,0.1-1.2,0.1-1.9h-20.4c-2.1,8.2-7.1,12.3-18,12.3s-16.6-4.1-18.3-12.3
		h-20.4c0.8,19.6,17.5,34.9,37.1,34C854.8,45.6,855.3,45.5,855.9,45.5z"/>
	<path d="M436.4,140.2V56.1h-25.7v122.6h26.8l51.8-85.5v85.5H515V56.1h-26.8L436.4,140.2z"/>
	<path d="M329.7,57.1c-19.3-0.9-37.5,9.4-46.7,26.3c1.3-27.8,7-44.3,40-48.6l51.4-6.9l-2.1-27.4l-53.6,7.2
		c-46.2,6.2-59.2,40.8-59.2,95.2c0,47.6,22.2,78.1,63.4,78.1c40.2,0,62-30.1,62-65.4c2-30.3-21-56.4-51.3-58.4
		C332.4,57.1,331.1,57.1,329.7,57.1z M323,154c-23.3,0-37-16.4-37-41.1v-12.7c4.9-9.6,18-17.1,37-17.1c20.1,0,35.6,9.2,35.6,32.5
		S346.3,154,323,154z"/>
	<path d="M1016.5,56.1V102h-50.1V56.1h-25.7v122.6h25.7v-51.4h50.1v51.4h25.7V56.1H1016.5z"/>
	<path d="M829.8,140.2V56.1h-25.7v122.6h26.8l51.8-85.5v85.5h25.7V56.1h-26.8L829.8,140.2z"/>
	<path d="M561.3,131.1c-2.8,13.7-6.7,19.5-14.5,19.5c-3.2,0.1-6.4-0.2-9.5-1V178c4,1.8,8.3,2.6,12.7,2.4
		c12.4,0.3,23.5-7.5,27.5-19.2c3.2-9.6,5.2-19.7,6-29.8c1.7-16.4,2.5-32.8,2.5-49.3h34.2v96.6h25.7V56.1h-81.4
		C565,81.2,563.9,106.2,561.3,131.1z"/>
	<path d="M767.2,145.5l0.4-48.6c0.4-30.8-19-43.5-47.2-43.5C696,51.5,674.7,69.6,672.8,94c0,0.1,0,0.3,0,0.4h24.7
		c1.4-11.3,10.6-15.1,22.9-15.1c12.6,0,21.1,3.8,22.4,16.4l-31.5,12.4c-21.5,8.6-37.7,18.2-37.7,38.4c0,20.9,12,34.3,35.9,34.3
		c15.2,0.4,29.2-8.4,35.4-22.3c1.3,14.8,11.3,21.3,28.7,21.3h7.1v-23.6h-2.1C770.4,156.1,767.2,153,767.2,145.5z M718.9,155.1
		c-12,0-20.8-3.1-20.8-13.7c0-9.2,7.4-13.3,20.1-18.5l24.6-9.9l-0.3,33.2C736.3,152.4,727.7,155.6,718.9,155.1z"/>
	<path class="st0" d="M99.1,199.7c54.4,0.8,99.1-43.9,99.9-99.8C198.1,43.9,153.4-0.8,99.1,0C44.7-0.8,0,43.9-0.8,99.9
		C0,155.8,44.7,200.5,99.1,199.7z"/>
	<path d="M142,174.3c-33.9,19.6-70.7,23.1-94.2,11.4c31.2,18.6,69.7,18.8,101.1,0.7c31.1-17.6,50.3-51.4,49.9-88
		C197.4,124.6,175.9,154.7,142,174.3z"/>
	<path d="M111.7,7.4c6.9,11.9-9.7,34.4-37.1,50.2c-27.4,15.8-55.1,19-62,7.1c-0.3-0.6-0.6-1.2-0.8-1.8c-1.3-7.3,0.7-14.7,5.5-20.3
		c0.8-1.2,1.7-2.3,2.6-3.5c8-10.4,18-19.1,29.3-25.6C60.5,6.8,73,2.6,85.9,0.9c1.5-0.2,2.9-0.4,4.3-0.5c7.2-1.3,14.6,0.6,20.3,5.4
		C110.9,6.3,111.4,6.8,111.7,7.4z"/>
	<path d="M154.2,20.2c12,20.8-12.2,57.2-54.1,81.4s-85.6,26.9-97.5,6.1c-2-3.5-3.1-7.4-3.3-11.5c-0.5,14.3,2,28.5,7.5,41.7
		c0.8,2,1.7,4,2.7,6l0.1,0.3c3.8,6.3,9.2,11.4,15.6,14.7c23.5,12.6,63.2,8.3,100.4-13.2c37.1-21.4,60.7-53.7,61.6-80.3
		c0.4-7.3-1.3-14.5-4.9-20.8c-1.4-2-2.8-4-4.3-5.9c-8.7-11.2-19.6-20.4-32-26.9C149.4,13.9,152.2,16.8,154.2,20.2L154.2,20.2
		L154.2,20.2z"/>
	
		<radialGradient id="SVGID_1_" cx="-572.7817" cy="-1.6826" r="8.4818" gradientTransform="matrix(11.7708 0 0 11.7747 6841.1782 119.6976)" gradientUnits="userSpaceOnUse">
		<stop  offset="0.5" style="stop-color:#FFFFFF;stop-opacity:0"/>
		<stop  offset="1" style="stop-color:#FFFFFF;stop-opacity:0.35"/>
	</radialGradient>
	<path class="st1" d="M99.1,199.7c54.4,0.8,99.1-43.9,99.9-99.8C198.1,43.9,153.4-0.8,99.1,0C44.7-0.8,0,43.9-0.8,99.9
		C0,155.8,44.7,200.5,99.1,199.7z"/>
</g>
</svg>
