<svg width="63" height="20" viewBox="0 0 63 20" fill="none" xmlns="http://www.w3.org/2000/svg">
<path d="M6.12521 2.92586H2.10753V5.68586H5.40071V6.60586H2.10753V10.2859H1.05371V2.00586H6.12521V2.92586ZM12.2505 10.2859L10.2746 6.86872H8.69389V10.2859H7.64007V2.00586H10.7357C11.4206 2.00586 12.0088 2.247 12.5008 2.72872C12.9928 3.21043 13.2385 3.78015 13.2385 4.43729C13.2385 4.79672 13.1726 5.12529 13.0409 5.423C12.9178 5.71214 12.7688 5.94014 12.593 6.10643C12.4255 6.25802 12.2448 6.39437 12.0529 6.51386C11.8771 6.62814 11.7236 6.70243 11.5919 6.73729L11.4075 6.803L13.4361 10.2859H12.2505ZM8.69389 2.92586V5.94872H10.7357C11.1308 5.94872 11.4688 5.80414 11.75 5.515C11.891 5.37351 12.0021 5.20523 12.0768 5.02011C12.1515 4.83499 12.1882 4.6368 12.1847 4.43729C12.1847 4.01672 12.0398 3.66186 11.75 3.37272C11.4693 3.075 11.1308 2.92586 10.7357 2.92586H8.69389ZM16.0007 9.36586H20.3477V10.2859H14.9469V2.00586H20.216V2.92586H16.0007V5.55443H19.8867V6.47443H16.0007V9.36586ZM23.114 9.36586H27.461V10.2859H22.0602V2.00586H27.3293V2.92586H23.114V5.55443H27.0005V6.47443H23.1146L23.114 9.36586Z" fill="#FA5745"/>
<path d="M30.2286 2.00566V10.2857H29.1748V2.00566H30.2286ZM33.7194 10.2857L30.2286 6.07994L33.4559 2.00566H34.7073L31.4142 6.07994L34.9708 10.2857H33.7194ZM41.0257 10.2857L40.2353 8.24851H36.8104L36.02 10.2857H34.8998L38.0612 2.00566H38.9833L42.1454 10.2857H41.0257ZM38.5229 3.71423L37.1397 7.32851H39.906L38.5217 3.71423H38.5229ZM42.7353 4.17423C42.7353 3.59594 42.9941 3.0788 43.5125 2.62337C44.0308 2.16794 44.6717 1.93994 45.4357 1.93994C46.1556 1.93994 46.7615 2.18566 47.2535 2.67594C47.7541 3.15766 48.0044 3.74451 48.0044 4.43708H46.9505C46.9505 3.98166 46.8056 3.60451 46.5158 3.3068C46.226 3.00908 45.8658 2.85994 45.4357 2.85994C44.9615 2.85994 44.5663 2.99594 44.2501 3.26737C43.9426 3.53023 43.7891 3.83251 43.7891 4.17423C43.7891 4.54223 43.938 4.83994 44.237 5.06794C44.5445 5.29594 44.9128 5.47537 45.3435 5.6068C45.7736 5.72966 46.2043 5.86966 46.6344 6.02737C47.0737 6.18508 47.4419 6.4388 47.7409 6.78966C48.0485 7.13137 48.202 7.57366 48.202 8.11708C48.202 8.73023 47.9471 9.25594 47.4379 9.69423C46.9282 10.1325 46.261 10.3514 45.4357 10.3514C44.5926 10.3514 43.9208 10.1194 43.4203 9.6548C42.9197 9.19023 42.6694 8.59023 42.6694 7.85423H43.7232C43.7232 8.35366 43.8681 8.74337 44.1579 9.02394C44.4563 9.29537 44.8824 9.43137 45.4357 9.43137C45.9712 9.43137 46.3887 9.30851 46.6871 9.06337C46.9946 8.80908 47.1481 8.49366 47.1481 8.11708C47.1481 7.74908 46.9946 7.45137 46.6871 7.22337C46.3887 6.99537 46.0239 6.82051 45.5938 6.69766C45.1636 6.56623 44.7289 6.42166 44.2897 6.26394C43.8643 6.10956 43.4841 5.85213 43.1831 5.5148C42.8848 5.16451 42.7353 4.71766 42.7353 4.17423ZM49.2575 4.17423C49.2575 3.59594 49.5164 3.0788 50.0347 2.62337C50.5524 2.16794 51.1939 1.93994 51.9579 1.93994C52.6778 1.93994 53.2838 2.18566 53.7757 2.67594C54.2763 3.15766 54.526 3.74451 54.526 4.43708H53.4722C53.4722 3.98166 53.3279 3.60451 53.0381 3.3068C52.7483 3.00908 52.388 2.85994 51.9579 2.85994C51.4837 2.85994 51.0885 2.99594 50.7724 3.26737C50.4648 3.53023 50.3113 3.83251 50.3113 4.17423C50.3113 4.54223 50.4602 4.83994 50.7592 5.06794C51.0662 5.29594 51.435 5.47537 51.8657 5.6068C52.2958 5.72966 52.7259 5.86966 53.1566 6.02737C53.5953 6.18508 53.9642 6.4388 54.2631 6.78966C54.5701 7.13137 54.7242 7.57366 54.7242 8.11708C54.7242 8.73023 54.4693 9.25594 53.9602 9.69423C53.4504 10.1325 52.7832 10.3514 51.9579 10.3514C51.1148 10.3514 50.443 10.1194 49.9419 9.6548C49.4419 9.19023 49.1916 8.59023 49.1916 7.85423H50.2454C50.2454 8.35366 50.3903 8.74337 50.6801 9.02394C50.9785 9.29537 51.4046 9.43137 51.9573 9.43137C52.4934 9.43137 52.9103 9.30851 53.2093 9.06337C53.5163 8.80908 53.6703 8.49366 53.6703 8.11708C53.6703 7.74908 53.5163 7.45137 53.2093 7.22337C52.9103 6.99537 52.5461 6.82051 52.1154 6.69766C51.6859 6.56623 51.2506 6.42166 50.8119 6.26394C50.3865 6.10956 50.0063 5.85213 49.7054 5.5148C49.4064 5.16451 49.2575 4.71766 49.2575 4.17423ZM61.3117 10.2857L60.5213 8.24851H57.0964L56.306 10.2857H55.1864L58.3478 2.00566H59.2699L62.4314 10.2857H61.3117ZM58.8089 3.71423L57.4257 7.32851H60.192L58.8089 3.71423Z" fill="white"/>
<path d="M41.1278 14.0426H40.0653C40.035 13.8683 39.9791 13.714 39.8977 13.5795C39.8162 13.4432 39.7149 13.3276 39.5937 13.2329C39.4725 13.1382 39.3342 13.0672 39.1789 13.0199C39.0255 12.9706 38.8598 12.946 38.6818 12.946C38.3655 12.946 38.0852 13.0255 37.8409 13.1846C37.5966 13.3418 37.4053 13.5729 37.267 13.8778C37.1287 14.1808 37.0596 14.5511 37.0596 14.9886C37.0596 15.4337 37.1287 15.8087 37.267 16.1136C37.4072 16.4166 37.5984 16.6458 37.8409 16.8011C38.0852 16.9545 38.3645 17.0312 38.6789 17.0312C38.8532 17.0312 39.0161 17.0085 39.1676 16.963C39.321 16.9157 39.4583 16.8466 39.5795 16.7557C39.7026 16.6647 39.8058 16.553 39.8892 16.4204C39.9744 16.2879 40.0331 16.1363 40.0653 15.9659L41.1278 15.9716C41.088 16.2481 41.0019 16.5075 40.8693 16.75C40.7386 16.9924 40.5672 17.2064 40.3551 17.392C40.143 17.5757 39.8948 17.7197 39.6108 17.8238C39.3267 17.9261 39.0113 17.9772 38.6647 17.9772C38.1534 17.9772 37.6969 17.8589 37.2954 17.6221C36.8939 17.3854 36.5776 17.0435 36.3466 16.5966C36.1155 16.1496 36 15.6136 36 14.9886C36 14.3617 36.1164 13.8257 36.3494 13.3807C36.5823 12.9337 36.8996 12.5918 37.3011 12.3551C37.7026 12.1183 38.1572 12 38.6647 12C38.9886 12 39.2897 12.0454 39.5681 12.1363C39.8466 12.2272 40.0947 12.3608 40.3125 12.5369C40.5303 12.7111 40.7092 12.9252 40.8494 13.1789C40.9914 13.4308 41.0842 13.7187 41.1278 14.0426ZM42.0475 17.8977V13.5341H43.0447V14.2613H43.0902C43.1697 14.0094 43.3061 13.8153 43.4993 13.6789C43.6943 13.5407 43.9169 13.4716 44.1669 13.4716C44.2237 13.4716 44.2871 13.4744 44.3572 13.4801C44.4292 13.4839 44.4888 13.4905 44.5362 13.5V14.446C44.4926 14.4308 44.4235 14.4176 44.3288 14.4062C44.236 14.393 44.146 14.3863 44.0589 14.3863C43.8714 14.3863 43.7028 14.4271 43.5532 14.5085C43.4055 14.588 43.289 14.6988 43.2038 14.8409C43.1186 14.9829 43.076 15.1468 43.076 15.3324V17.8977H42.0475ZM45.9914 19.5341C45.8513 19.5341 45.7216 19.5227 45.6022 19.5C45.4848 19.4791 45.3911 19.4545 45.321 19.4261L45.5596 18.625C45.7092 18.6685 45.8428 18.6894 45.9602 18.6875C46.0776 18.6856 46.1808 18.6486 46.2698 18.5767C46.3608 18.5066 46.4375 18.3892 46.5 18.2244L46.588 17.9886L45.0056 13.5341H46.0966L47.1022 16.8295H47.1477L48.1562 13.5341H49.25L47.5028 18.4261C47.4214 18.6572 47.3134 18.8551 47.1789 19.0199C47.0445 19.1865 46.8797 19.3134 46.6846 19.4005C46.4914 19.4896 46.2604 19.5341 45.9914 19.5341ZM49.9616 19.5341V13.5341H50.973V14.2557H51.0326C51.0857 14.1496 51.1605 14.0369 51.2571 13.9176C51.3537 13.7964 51.4843 13.6932 51.6491 13.6079C51.8139 13.5208 52.0241 13.4772 52.2798 13.4772C52.6169 13.4772 52.9209 13.5634 53.1917 13.7358C53.4645 13.9062 53.6804 14.1591 53.8394 14.4943C54.0004 14.8276 54.0809 15.2367 54.0809 15.7216C54.0809 16.2007 54.0023 16.6079 53.8451 16.9432C53.6879 17.2784 53.4739 17.5341 53.2031 17.7102C52.9323 17.8863 52.6254 17.9744 52.2826 17.9744C52.0326 17.9744 51.8252 17.9327 51.6605 17.8494C51.4957 17.7661 51.3631 17.6657 51.2627 17.5483C51.1643 17.4289 51.0876 17.3163 51.0326 17.2102H50.99V19.5341H49.9616ZM50.9701 15.7159C50.9701 15.9981 51.0099 16.2452 51.0894 16.4574C51.1709 16.6695 51.2874 16.8352 51.4389 16.9545C51.5923 17.0719 51.7779 17.1307 51.9957 17.1307C52.223 17.1307 52.4133 17.07 52.5667 16.9488C52.7201 16.8257 52.8357 16.6581 52.9133 16.446C52.9929 16.232 53.0326 15.9886 53.0326 15.7159C53.0326 15.445 52.9938 15.2045 52.9162 14.9943C52.8385 14.7841 52.723 14.6193 52.5696 14.5C52.4162 14.3807 52.2249 14.321 51.9957 14.321C51.776 14.321 51.5894 14.3788 51.436 14.4943C51.2826 14.6098 51.1662 14.7718 51.0866 14.9801C51.009 15.1884 50.9701 15.4337 50.9701 15.7159ZM57.1406 13.5341V14.3295H54.6321V13.5341H57.1406ZM55.2514 12.4886H56.2798V16.5852C56.2798 16.7235 56.3006 16.8295 56.3423 16.9034C56.3859 16.9754 56.4427 17.0246 56.5127 17.0511C56.5828 17.0776 56.6605 17.0909 56.7457 17.0909C56.8101 17.0909 56.8688 17.0861 56.9218 17.0767C56.9768 17.0672 57.0184 17.0587 57.0468 17.0511L57.2201 17.8551C57.1652 17.874 57.0866 17.8949 56.9843 17.9176C56.884 17.9403 56.7609 17.9536 56.615 17.9574C56.3574 17.9649 56.1254 17.9261 55.919 17.8409C55.7126 17.7538 55.5487 17.6193 55.4275 17.4375C55.3082 17.2557 55.2495 17.0284 55.2514 16.7557V12.4886ZM59.8572 17.9829C59.4311 17.9829 59.0618 17.8892 58.7493 17.7017C58.4368 17.5142 58.1943 17.2519 58.022 16.9147C57.8515 16.5776 57.7663 16.1837 57.7663 15.7329C57.7663 15.2822 57.8515 14.8873 58.022 14.5483C58.1943 14.2093 58.4368 13.946 58.7493 13.7585C59.0618 13.571 59.4311 13.4772 59.8572 13.4772C60.2833 13.4772 60.6527 13.571 60.9652 13.7585C61.2777 13.946 61.5191 14.2093 61.6896 14.5483C61.8619 14.8873 61.9481 15.2822 61.9481 15.7329C61.9481 16.1837 61.8619 16.5776 61.6896 16.9147C61.5191 17.2519 61.2777 17.5142 60.9652 17.7017C60.6527 17.8892 60.2833 17.9829 59.8572 17.9829ZM59.8629 17.1591C60.0939 17.1591 60.2871 17.0956 60.4424 16.9687C60.5977 16.8399 60.7133 16.6676 60.789 16.4517C60.8667 16.2358 60.9055 15.9952 60.9055 15.7301C60.9055 15.463 60.8667 15.2216 60.789 15.0057C60.7133 14.7879 60.5977 14.6146 60.4424 14.4858C60.2871 14.357 60.0939 14.2926 59.8629 14.2926C59.6261 14.2926 59.4292 14.357 59.272 14.4858C59.1167 14.6146 59.0002 14.7879 58.9225 15.0057C58.8468 15.2216 58.8089 15.463 58.8089 15.7301C58.8089 15.9952 58.8468 16.2358 58.9225 16.4517C59.0002 16.6676 59.1167 16.8399 59.272 16.9687C59.4292 17.0956 59.6261 17.1591 59.8629 17.1591Z" fill="#FA5745"/>
</svg>
