<svg width="69" height="19" viewBox="0 0 69 19" fill="none" xmlns="http://www.w3.org/2000/svg">
<g clip-path="url(#clip0_326_248)">
<path fill-rule="evenodd" clip-rule="evenodd" d="M8.08788 9.09986C7.94642 8.96056 7.77841 8.85 7.59344 8.77447C7.40847 8.69894 7.21017 8.65993 7.00985 8.65967C6.80953 8.65941 6.61112 8.6979 6.42595 8.77295C6.24077 8.848 6.07246 8.95814 5.93063 9.09707C5.78879 9.236 5.67621 9.40101 5.59931 9.58268C5.52241 9.76435 5.48269 9.95911 5.48242 10.1558C5.48216 10.3526 5.52135 10.5475 5.59777 10.7293C5.67418 10.9112 5.78632 11.0765 5.92778 11.2158L11.8321 17L13.9925 14.8836L8.08788 9.09986Z" fill="#F4A800"/>
<path fill-rule="evenodd" clip-rule="evenodd" d="M14.2263 5.78373L8.32221 0L6.16211 2.11615L12.0662 7.90011C12.2076 8.04012 12.3756 8.15135 12.5608 8.22744C12.746 8.30353 12.9447 8.34298 13.1454 8.34352C13.3461 8.34406 13.545 8.30569 13.7306 8.2306C13.9162 8.15552 14.0849 8.04519 14.2271 7.90595C14.3692 7.76671 14.4819 7.6013 14.5588 7.41918C14.6357 7.23707 14.6753 7.04185 14.6752 6.84469C14.6751 6.64754 14.6354 6.45234 14.5584 6.27028C14.4814 6.08821 14.3685 5.92287 14.2263 5.78373Z" fill="#F4A800"/>
<path fill-rule="evenodd" clip-rule="evenodd" d="M8.54412 0.310657L8.32313 0L0.448835 7.69564C0.162702 7.97666 0.00195312 8.35781 0.00195312 8.75523C0.00195313 9.15266 0.162702 9.5338 0.448835 9.81482C0.734968 10.0958 1.12305 10.2537 1.5277 10.2537C1.93235 10.2537 2.32043 10.0958 2.60657 9.81482L8.50287 4.05205C9.7617 2.82177 9.08024 1.06704 8.54412 0.310657Z" fill="#FFBB13"/>
<path fill-rule="evenodd" clip-rule="evenodd" d="M19.7082 7.18774C19.4215 6.90722 19.0334 6.7495 18.6287 6.74902C18.224 6.74854 17.8356 6.90534 17.5481 7.18518L11.6523 12.9477C10.3935 14.1778 11.0749 15.9327 11.6113 16.6886L11.8316 16.9998L19.7059 9.30389C19.8477 9.16518 19.9602 9.00037 20.0371 8.8189C20.1139 8.63743 20.1536 8.44285 20.1538 8.2463C20.1541 8.04975 20.1148 7.85509 20.0384 7.67345C19.9619 7.49181 19.8497 7.32676 19.7082 7.18774Z" fill="#FFBB13"/>
<path fill-rule="evenodd" clip-rule="evenodd" d="M33.3459 8.24221H35.0819L31.9629 0.000930995H30.3595L27.25 8.24221H28.9859L29.5569 6.59414H32.775L33.3459 8.24221ZM30.0356 5.2006L31.1543 1.96641H31.1659L32.2906 5.2006H30.0356ZM39.5282 2.48177C39.1769 2.47838 38.829 2.55066 38.5092 2.69353C38.1894 2.83641 37.9053 3.04639 37.6771 3.30871H37.6598V2.57818H36.114V8.24221H37.6598V5.39319C37.6598 4.38507 38.1845 3.84689 38.9689 3.84689C39.684 3.84689 40.0762 4.18107 40.0762 5.26301V8.24803H41.6217V4.88343C41.6217 3.13895 40.7624 2.48177 39.5282 2.48177ZM46.5309 2.57795L45.2102 6.08414H45.1938L43.7811 2.57795H42.1661L44.473 7.89103L43.4465 10.536H45.0266L48.134 2.57795H46.5306H46.5309ZM49.2937 8.24221H50.9319V5.4216H52.241C54.0865 5.4216 55.315 4.55483 55.315 2.74794C55.315 1.16764 54.4327 0 52.3968 0H49.2937V8.24221ZM50.9317 3.9773V1.45105H52.1023C53.0712 1.45105 53.5961 1.94941 53.5961 2.71395C53.5961 3.47312 53.0771 3.97707 52.0331 3.97707H50.9319L50.9317 3.9773ZM60.618 2.57795V3.21812H60.5943C60.3838 2.97955 60.122 2.78977 59.8278 2.66244C59.5336 2.53512 59.2144 2.47341 58.893 2.48177C57.3475 2.48177 56.1767 3.70507 56.1767 5.42696C56.1767 7.17726 57.3416 8.33792 58.9393 8.33792C59.2692 8.35147 59.5977 8.28763 59.8976 8.15168C60.1974 8.01573 60.46 7.81159 60.6635 7.55615H60.6925V8.24221H62.1626V2.57795H60.618ZM59.2224 6.97932C58.3571 6.97932 57.7459 6.35055 57.7459 5.43301C57.7459 4.46448 58.3977 3.84689 59.2281 3.84689C60.0644 3.84689 60.6816 4.52666 60.6816 5.43301C60.6816 6.36196 60.0238 6.97932 59.2224 6.97932ZM67.3969 2.57795L66.0761 6.08414H66.0598L64.6471 2.57795H63.0321L65.3389 7.89103L64.3125 10.536H65.8926L69 2.57795H67.3966H67.3969Z" fill="white"/>
<path d="M37.1278 13.0426H36.0653C36.035 12.8683 35.9791 12.714 35.8977 12.5795C35.8162 12.4432 35.7149 12.3276 35.5937 12.2329C35.4725 12.1382 35.3342 12.0672 35.1789 12.0199C35.0255 11.9706 34.8598 11.946 34.6818 11.946C34.3655 11.946 34.0852 12.0255 33.8409 12.1846C33.5966 12.3418 33.4053 12.5729 33.267 12.8778C33.1287 13.1808 33.0596 13.5511 33.0596 13.9886C33.0596 14.4337 33.1287 14.8087 33.267 15.1136C33.4072 15.4166 33.5984 15.6458 33.8409 15.8011C34.0852 15.9545 34.3645 16.0312 34.6789 16.0312C34.8532 16.0312 35.0161 16.0085 35.1676 15.963C35.321 15.9157 35.4583 15.8466 35.5795 15.7557C35.7026 15.6647 35.8058 15.553 35.8892 15.4204C35.9744 15.2879 36.0331 15.1363 36.0653 14.9659L37.1278 14.9716C37.088 15.2481 37.0019 15.5075 36.8693 15.75C36.7386 15.9924 36.5672 16.2064 36.3551 16.392C36.143 16.5757 35.8948 16.7197 35.6108 16.8238C35.3267 16.9261 35.0113 16.9772 34.6647 16.9772C34.1534 16.9772 33.6969 16.8589 33.2954 16.6221C32.8939 16.3854 32.5776 16.0435 32.3466 15.5966C32.1155 15.1496 32 14.6136 32 13.9886C32 13.3617 32.1164 12.8257 32.3494 12.3807C32.5823 11.9337 32.8996 11.5918 33.3011 11.3551C33.7026 11.1183 34.1572 11 34.6647 11C34.9886 11 35.2897 11.0454 35.5681 11.1363C35.8466 11.2272 36.0947 11.3608 36.3125 11.5369C36.5303 11.7111 36.7092 11.9252 36.8494 12.1789C36.9914 12.4308 37.0842 12.7187 37.1278 13.0426ZM38.0475 16.8977V12.5341H39.0447V13.2613H39.0902C39.1697 13.0094 39.3061 12.8153 39.4993 12.6789C39.6943 12.5407 39.9169 12.4716 40.1669 12.4716C40.2237 12.4716 40.2871 12.4744 40.3572 12.4801C40.4292 12.4839 40.4888 12.4905 40.5362 12.5V13.446C40.4926 13.4308 40.4235 13.4176 40.3288 13.4062C40.236 13.393 40.146 13.3863 40.0589 13.3863C39.8714 13.3863 39.7028 13.4271 39.5532 13.5085C39.4055 13.588 39.289 13.6988 39.2038 13.8409C39.1186 13.9829 39.076 14.1468 39.076 14.3324V16.8977H38.0475ZM41.9914 18.5341C41.8513 18.5341 41.7216 18.5227 41.6022 18.5C41.4848 18.4791 41.3911 18.4545 41.321 18.4261L41.5596 17.625C41.7092 17.6685 41.8428 17.6894 41.9602 17.6875C42.0776 17.6856 42.1808 17.6486 42.2698 17.5767C42.3608 17.5066 42.4375 17.3892 42.5 17.2244L42.588 16.9886L41.0056 12.5341H42.0966L43.1022 15.8295H43.1477L44.1562 12.5341H45.25L43.5028 17.4261C43.4214 17.6572 43.3134 17.8551 43.1789 18.0199C43.0445 18.1865 42.8797 18.3134 42.6846 18.4005C42.4914 18.4896 42.2604 18.5341 41.9914 18.5341ZM45.9616 18.5341V12.5341H46.973V13.2557H47.0326C47.0857 13.1496 47.1605 13.0369 47.2571 12.9176C47.3537 12.7964 47.4843 12.6932 47.6491 12.6079C47.8139 12.5208 48.0241 12.4772 48.2798 12.4772C48.6169 12.4772 48.9209 12.5634 49.1917 12.7358C49.4645 12.9062 49.6804 13.1591 49.8394 13.4943C50.0004 13.8276 50.0809 14.2367 50.0809 14.7216C50.0809 15.2007 50.0023 15.6079 49.8451 15.9432C49.6879 16.2784 49.4739 16.5341 49.2031 16.7102C48.9323 16.8863 48.6254 16.9744 48.2826 16.9744C48.0326 16.9744 47.8252 16.9327 47.6605 16.8494C47.4957 16.7661 47.3631 16.6657 47.2627 16.5483C47.1643 16.4289 47.0876 16.3163 47.0326 16.2102H46.99V18.5341H45.9616ZM46.9701 14.7159C46.9701 14.9981 47.0099 15.2452 47.0894 15.4574C47.1709 15.6695 47.2874 15.8352 47.4389 15.9545C47.5923 16.0719 47.7779 16.1307 47.9957 16.1307C48.223 16.1307 48.4133 16.07 48.5667 15.9488C48.7201 15.8257 48.8357 15.6581 48.9133 15.446C48.9929 15.232 49.0326 14.9886 49.0326 14.7159C49.0326 14.445 48.9938 14.2045 48.9162 13.9943C48.8385 13.7841 48.723 13.6193 48.5696 13.5C48.4162 13.3807 48.2249 13.321 47.9957 13.321C47.776 13.321 47.5894 13.3788 47.436 13.4943C47.2826 13.6098 47.1662 13.7718 47.0866 13.9801C47.009 14.1884 46.9701 14.4337 46.9701 14.7159ZM53.1406 12.5341V13.3295H50.6321V12.5341H53.1406ZM51.2514 11.4886H52.2798V15.5852C52.2798 15.7235 52.3006 15.8295 52.3423 15.9034C52.3859 15.9754 52.4427 16.0246 52.5127 16.0511C52.5828 16.0776 52.6605 16.0909 52.7457 16.0909C52.8101 16.0909 52.8688 16.0861 52.9218 16.0767C52.9768 16.0672 53.0184 16.0587 53.0468 16.0511L53.2201 16.8551C53.1652 16.874 53.0866 16.8949 52.9843 16.9176C52.884 16.9403 52.7609 16.9536 52.615 16.9574C52.3574 16.9649 52.1254 16.9261 51.919 16.8409C51.7126 16.7538 51.5487 16.6193 51.4275 16.4375C51.3082 16.2557 51.2495 16.0284 51.2514 15.7557V11.4886ZM55.8572 16.9829C55.4311 16.9829 55.0618 16.8892 54.7493 16.7017C54.4368 16.5142 54.1943 16.2519 54.022 15.9147C53.8515 15.5776 53.7663 15.1837 53.7663 14.7329C53.7663 14.2822 53.8515 13.8873 54.022 13.5483C54.1943 13.2093 54.4368 12.946 54.7493 12.7585C55.0618 12.571 55.4311 12.4772 55.8572 12.4772C56.2833 12.4772 56.6527 12.571 56.9652 12.7585C57.2777 12.946 57.5191 13.2093 57.6896 13.5483C57.8619 13.8873 57.9481 14.2822 57.9481 14.7329C57.9481 15.1837 57.8619 15.5776 57.6896 15.9147C57.5191 16.2519 57.2777 16.5142 56.9652 16.7017C56.6527 16.8892 56.2833 16.9829 55.8572 16.9829ZM55.8629 16.1591C56.0939 16.1591 56.2871 16.0956 56.4424 15.9687C56.5977 15.8399 56.7133 15.6676 56.789 15.4517C56.8667 15.2358 56.9055 14.9952 56.9055 14.7301C56.9055 14.463 56.8667 14.2216 56.789 14.0057C56.7133 13.7879 56.5977 13.6146 56.4424 13.4858C56.2871 13.357 56.0939 13.2926 55.8629 13.2926C55.6261 13.2926 55.4292 13.357 55.272 13.4858C55.1167 13.6146 55.0002 13.7879 54.9225 14.0057C54.8468 14.2216 54.8089 14.463 54.8089 14.7301C54.8089 14.9952 54.8468 15.2358 54.9225 15.4517C55.0002 15.6676 55.1167 15.8399 55.272 15.9687C55.4292 16.0956 55.6261 16.1591 55.8629 16.1591Z" fill="#FFBB13"/>
</g>
<defs>
<clipPath id="clip0_326_248">
<rect width="69" height="19" fill="white"/>
</clipPath>
</defs>
</svg>
