<svg width="62" height="20" viewBox="0 0 62 20" fill="none" xmlns="http://www.w3.org/2000/svg">
<path d="M29.184 7.54874H22.7088C22.8005 8.11813 23.0573 8.57733 23.4609 8.90794C23.8644 9.23856 24.378 9.42223 25.0201 9.42223C25.7721 9.42223 26.4141 9.16509 26.9644 8.63243L28.652 9.42223C28.2301 10.0284 27.7165 10.4692 27.1295 10.763C26.5425 11.0569 25.8455 11.2038 25.0201 11.2038C23.7544 11.2038 22.7455 10.7998 21.9384 10.01C21.1496 9.22017 20.7461 8.22835 20.7461 7.01611C20.7461 5.7855 21.1496 4.77527 21.9384 3.96711C22.7272 3.15895 23.7177 2.75488 24.91 2.75488C26.1757 2.75488 27.2029 3.15895 27.9917 3.96711C28.7804 4.77527 29.184 5.84058 29.184 7.18139V7.54874ZM27.1846 5.96917C27.0562 5.52835 26.781 5.16099 26.3958 4.88548C26.0106 4.60997 25.552 4.46305 25.0384 4.46305C24.4698 4.46305 23.9928 4.62833 23.5526 4.94058C23.2958 5.14262 23.039 5.4916 22.8189 5.98752H27.1846V5.96917Z" fill="white"/>
<path d="M30.8164 2.95691H32.8342V3.78344C33.2927 3.39772 33.6963 3.12223 34.0815 2.97529C34.4484 2.82835 34.8336 2.75488 35.2188 2.75488C36.0075 2.75488 36.6862 3.03039 37.2365 3.58141C37.6951 4.05896 37.9336 4.75691 37.9336 5.67527V10.9835H35.9525V7.47529C35.9525 6.52019 35.9158 5.87733 35.8241 5.56509C35.7324 5.25284 35.5856 5.01405 35.3839 4.84874C35.1637 4.68344 34.9069 4.60997 34.5951 4.60997C34.1916 4.60997 33.843 4.73856 33.5495 5.01407C33.2561 5.28958 33.0543 5.65692 32.9442 6.15284C32.8892 6.40999 32.8525 6.94262 32.8525 7.78752V11.0018H30.8348V2.95691H30.8164Z" fill="white"/>
<path d="M43.6569 2.75488C44.4089 2.75488 45.1243 2.93854 45.7847 3.32425C46.445 3.70997 46.977 4.22427 47.3438 4.86713C47.7107 5.50998 47.9125 6.22631 47.9125 6.97937C47.9125 7.73243 47.729 8.44876 47.3438 9.10998C46.977 9.77121 46.4634 10.2855 45.803 10.6528C45.1427 11.0202 44.4456 11.2038 43.6569 11.2038C42.5012 11.2038 41.529 10.7998 40.7036 9.97325C39.8965 9.14672 39.4746 8.15488 39.4746 6.97937C39.4746 5.73039 39.9332 4.68344 40.8503 3.83854C41.6758 3.10384 42.6113 2.75488 43.6569 2.75488ZM43.6752 4.64672C43.0515 4.64672 42.5379 4.86711 42.116 5.30793C41.6941 5.74874 41.4924 6.29978 41.4924 6.97937C41.4924 7.67733 41.6941 8.24672 42.116 8.66917C42.5196 9.10998 43.0515 9.31203 43.6752 9.31203C44.2989 9.31203 44.8308 9.0916 45.2527 8.65078C45.6746 8.20997 45.8764 7.64058 45.8764 6.96099C45.8764 6.26303 45.6746 5.71203 45.2527 5.28958C44.8492 4.86713 44.3172 4.64672 43.6752 4.64672Z" fill="white"/>
<path d="M49.7831 0H51.8008V2.95712H52.9931V4.68367H51.8008V10.9837H49.7831V4.68367H48.7559V2.95712H49.7831V0Z" fill="white"/>
<path d="M55.1761 8.88965C55.488 8.88965 55.7631 8.99985 56.0016 9.22026C56.2217 9.44067 56.3318 9.71618 56.3318 10.0284C56.3318 10.3407 56.2217 10.6162 56.0016 10.855C55.7815 11.0937 55.5063 11.1856 55.1761 11.1856C54.8643 11.1856 54.5891 11.0754 54.3507 10.855C54.1306 10.6345 54.0205 10.359 54.0205 10.0284C54.0205 9.69781 54.1306 9.44067 54.3507 9.22026C54.5891 8.99985 54.8459 8.88965 55.1761 8.88965Z" fill="#FBCD02"/>
<path d="M6.80526 16.5308V11.7002H2.36621L8.30941 1.50635V6.35532H12.6567L6.80526 16.5308Z" fill="#FBCD02"/>
<path d="M30.1278 14.0426H29.0653C29.035 13.8683 28.9791 13.714 28.8977 13.5795C28.8162 13.4432 28.7149 13.3276 28.5937 13.2329C28.4725 13.1382 28.3342 13.0672 28.1789 13.0199C28.0255 12.9706 27.8598 12.946 27.6818 12.946C27.3655 12.946 27.0852 13.0255 26.8409 13.1846C26.5966 13.3418 26.4053 13.5729 26.267 13.8778C26.1287 14.1808 26.0596 14.5511 26.0596 14.9886C26.0596 15.4337 26.1287 15.8087 26.267 16.1136C26.4072 16.4166 26.5984 16.6458 26.8409 16.8011C27.0852 16.9545 27.3645 17.0312 27.6789 17.0312C27.8532 17.0312 28.0161 17.0085 28.1676 16.963C28.321 16.9157 28.4583 16.8466 28.5795 16.7557C28.7026 16.6647 28.8058 16.553 28.8892 16.4204C28.9744 16.2879 29.0331 16.1363 29.0653 15.9659L30.1278 15.9716C30.088 16.2481 30.0019 16.5075 29.8693 16.75C29.7386 16.9924 29.5672 17.2064 29.3551 17.392C29.143 17.5757 28.8948 17.7197 28.6108 17.8238C28.3267 17.9261 28.0113 17.9772 27.6647 17.9772C27.1534 17.9772 26.6969 17.8589 26.2954 17.6221C25.8939 17.3854 25.5776 17.0435 25.3466 16.5966C25.1155 16.1496 25 15.6136 25 14.9886C25 14.3617 25.1164 13.8257 25.3494 13.3807C25.5823 12.9337 25.8996 12.5918 26.3011 12.3551C26.7026 12.1183 27.1572 12 27.6647 12C27.9886 12 28.2897 12.0454 28.5681 12.1363C28.8466 12.2272 29.0947 12.3608 29.3125 12.5369C29.5303 12.7111 29.7092 12.9252 29.8494 13.1789C29.9914 13.4308 30.0842 13.7187 30.1278 14.0426ZM31.0475 17.8977V13.5341H32.0447V14.2613H32.0902C32.1697 14.0094 32.3061 13.8153 32.4993 13.6789C32.6943 13.5407 32.9169 13.4716 33.1669 13.4716C33.2237 13.4716 33.2871 13.4744 33.3572 13.4801C33.4292 13.4839 33.4888 13.4905 33.5362 13.5V14.446C33.4926 14.4308 33.4235 14.4176 33.3288 14.4062C33.236 14.393 33.146 14.3863 33.0589 14.3863C32.8714 14.3863 32.7028 14.4271 32.5532 14.5085C32.4055 14.588 32.289 14.6988 32.2038 14.8409C32.1186 14.9829 32.076 15.1468 32.076 15.3324V17.8977H31.0475ZM34.9914 19.5341C34.8513 19.5341 34.7216 19.5227 34.6022 19.5C34.4848 19.4791 34.3911 19.4545 34.321 19.4261L34.5596 18.625C34.7092 18.6685 34.8428 18.6894 34.9602 18.6875C35.0776 18.6856 35.1808 18.6486 35.2698 18.5767C35.3608 18.5066 35.4375 18.3892 35.5 18.2244L35.588 17.9886L34.0056 13.5341H35.0966L36.1022 16.8295H36.1477L37.1562 13.5341H38.25L36.5028 18.4261C36.4214 18.6572 36.3134 18.8551 36.1789 19.0199C36.0445 19.1865 35.8797 19.3134 35.6846 19.4005C35.4914 19.4896 35.2604 19.5341 34.9914 19.5341ZM38.9616 19.5341V13.5341H39.973V14.2557H40.0326C40.0857 14.1496 40.1605 14.0369 40.2571 13.9176C40.3537 13.7964 40.4843 13.6932 40.6491 13.6079C40.8139 13.5208 41.0241 13.4772 41.2798 13.4772C41.6169 13.4772 41.9209 13.5634 42.1917 13.7358C42.4645 13.9062 42.6804 14.1591 42.8394 14.4943C43.0004 14.8276 43.0809 15.2367 43.0809 15.7216C43.0809 16.2007 43.0023 16.6079 42.8451 16.9432C42.6879 17.2784 42.4739 17.5341 42.2031 17.7102C41.9323 17.8863 41.6254 17.9744 41.2826 17.9744C41.0326 17.9744 40.8252 17.9327 40.6605 17.8494C40.4957 17.7661 40.3631 17.6657 40.2627 17.5483C40.1643 17.4289 40.0876 17.3163 40.0326 17.2102H39.99V19.5341H38.9616ZM39.9701 15.7159C39.9701 15.9981 40.0099 16.2452 40.0894 16.4574C40.1709 16.6695 40.2874 16.8352 40.4389 16.9545C40.5923 17.0719 40.7779 17.1307 40.9957 17.1307C41.223 17.1307 41.4133 17.07 41.5667 16.9488C41.7201 16.8257 41.8357 16.6581 41.9133 16.446C41.9929 16.232 42.0326 15.9886 42.0326 15.7159C42.0326 15.445 41.9938 15.2045 41.9162 14.9943C41.8385 14.7841 41.723 14.6193 41.5696 14.5C41.4162 14.3807 41.2249 14.321 40.9957 14.321C40.776 14.321 40.5894 14.3788 40.436 14.4943C40.2826 14.6098 40.1662 14.7718 40.0866 14.9801C40.009 15.1884 39.9701 15.4337 39.9701 15.7159ZM46.1406 13.5341V14.3295H43.6321V13.5341H46.1406ZM44.2514 12.4886H45.2798V16.5852C45.2798 16.7235 45.3006 16.8295 45.3423 16.9034C45.3859 16.9754 45.4427 17.0246 45.5127 17.0511C45.5828 17.0776 45.6605 17.0909 45.7457 17.0909C45.8101 17.0909 45.8688 17.0861 45.9218 17.0767C45.9768 17.0672 46.0184 17.0587 46.0468 17.0511L46.2201 17.8551C46.1652 17.874 46.0866 17.8949 45.9843 17.9176C45.884 17.9403 45.7609 17.9536 45.615 17.9574C45.3574 17.9649 45.1254 17.9261 44.919 17.8409C44.7126 17.7538 44.5487 17.6193 44.4275 17.4375C44.3082 17.2557 44.2495 17.0284 44.2514 16.7557V12.4886ZM48.8572 17.9829C48.4311 17.9829 48.0618 17.8892 47.7493 17.7017C47.4368 17.5142 47.1943 17.2519 47.022 16.9147C46.8515 16.5776 46.7663 16.1837 46.7663 15.7329C46.7663 15.2822 46.8515 14.8873 47.022 14.5483C47.1943 14.2093 47.4368 13.946 47.7493 13.7585C48.0618 13.571 48.4311 13.4772 48.8572 13.4772C49.2833 13.4772 49.6527 13.571 49.9652 13.7585C50.2777 13.946 50.5191 14.2093 50.6896 14.5483C50.8619 14.8873 50.9481 15.2822 50.9481 15.7329C50.9481 16.1837 50.8619 16.5776 50.6896 16.9147C50.5191 17.2519 50.2777 17.5142 49.9652 17.7017C49.6527 17.8892 49.2833 17.9829 48.8572 17.9829ZM48.8629 17.1591C49.0939 17.1591 49.2871 17.0956 49.4424 16.9687C49.5977 16.8399 49.7133 16.6676 49.789 16.4517C49.8667 16.2358 49.9055 15.9952 49.9055 15.7301C49.9055 15.463 49.8667 15.2216 49.789 15.0057C49.7133 14.7879 49.5977 14.6146 49.4424 14.4858C49.2871 14.357 49.0939 14.2926 48.8629 14.2926C48.6261 14.2926 48.4292 14.357 48.272 14.4858C48.1167 14.6146 48.0002 14.7879 47.9225 15.0057C47.8468 15.2216 47.8089 15.463 47.8089 15.7301C47.8089 15.9952 47.8468 16.2358 47.9225 16.4517C48.0002 16.6676 48.1167 16.8399 48.272 16.9687C48.4292 17.0956 48.6261 17.1591 48.8629 17.1591Z" fill="#FBCD02"/>
</svg>
