<svg width="69" height="15" viewBox="0 0 69 15" fill="none" xmlns="http://www.w3.org/2000/svg">
<g clip-path="url(#clip0_326_214)">
<path d="M27.3977 2.08863H26.1641C26.1415 1.92977 26.0955 1.78866 26.0261 1.6653C25.9566 1.54007 25.8674 1.43354 25.7585 1.3457C25.6496 1.25785 25.5238 1.19057 25.3811 1.14384C25.2403 1.09712 25.0873 1.07376 24.9221 1.07376C24.6235 1.07376 24.3634 1.14758 24.1419 1.29523C23.9203 1.44101 23.7485 1.65408 23.6264 1.93443C23.5045 2.21292 23.4434 2.55121 23.4434 2.94928C23.4434 3.35863 23.5045 3.70252 23.6264 3.98105C23.7504 4.25949 23.9232 4.46973 24.1447 4.61184C24.3663 4.75386 24.6226 4.82484 24.9136 4.82484C25.077 4.82484 25.228 4.80336 25.367 4.76042C25.5078 4.71739 25.6327 4.65478 25.7416 4.57252C25.8505 4.48844 25.9406 4.3866 26.0119 4.26699C26.0852 4.14739 26.1359 4.01089 26.1641 3.85765L27.3977 3.86326C27.3658 4.12678 27.2859 4.38099 27.1583 4.62581C27.0324 4.86881 26.8625 5.08655 26.6485 5.27902C26.4363 5.46968 26.1829 5.6211 25.8881 5.73321C25.5952 5.8435 25.2637 5.8986 24.8938 5.8986C24.3794 5.8986 23.9194 5.78278 23.5138 5.55099C23.1101 5.3192 22.7909 4.98376 22.5562 4.5445C22.3234 4.10531 22.207 3.5736 22.207 2.94928C22.207 2.32319 22.3253 1.79052 22.5619 1.3513C22.7984 0.912079 23.1195 0.577524 23.5251 0.347637C23.9307 0.115879 24.3869 0 24.8938 0C25.228 0 25.5379 0.0467288 25.8233 0.140179C26.1105 0.233629 26.365 0.370066 26.5865 0.54949C26.8081 0.72705 26.9883 0.944787 27.1273 1.20272C27.2681 1.46064 27.3582 1.75595 27.3977 2.08863ZM28.2496 5.82013V1.5139H29.4128V2.26525H29.4579C29.5367 1.99798 29.6691 1.79613 29.855 1.65969C30.0408 1.52138 30.2549 1.45223 30.4971 1.45223C30.5572 1.45223 30.622 1.45596 30.6915 1.46344C30.761 1.47092 30.822 1.4812 30.8745 1.49428V2.55402C30.8182 2.5372 30.7403 2.52224 30.6407 2.50916C30.5413 2.49608 30.4502 2.48953 30.3676 2.48953C30.191 2.48953 30.0334 2.52785 29.8944 2.60448C29.7574 2.67921 29.6485 2.78389 29.5677 2.91849C29.4888 3.05302 29.4494 3.20815 29.4494 3.38389V5.82013H28.2496ZM32.3672 7.43499C32.2151 7.43499 32.0724 7.42284 31.9391 7.39852C31.8077 7.3761 31.6988 7.34713 31.6124 7.3116L31.8828 6.42005C32.0236 6.46307 32.1503 6.48644 32.263 6.49015C32.3776 6.49394 32.4761 6.46773 32.5588 6.41168C32.6432 6.35563 32.7118 6.26026 32.7643 6.12573L32.8348 5.94344L31.2829 1.5139H32.5447L33.4403 4.67626H33.4854L34.3894 1.5139H35.6597L33.9782 6.28552C33.8975 6.51723 33.7876 6.7191 33.6487 6.89105C33.5116 7.06489 33.3379 7.19855 33.1277 7.29194C32.9173 7.38731 32.6639 7.43499 32.3672 7.43499ZM39.873 2.74189L38.7746 2.80915C38.7558 2.71568 38.7154 2.63158 38.6535 2.55682C38.5915 2.48019 38.5098 2.41944 38.4085 2.37459C38.3089 2.32787 38.1897 2.30451 38.0508 2.30451C37.8649 2.30451 37.7081 2.34375 37.5804 2.42225C37.4528 2.49888 37.3889 2.60168 37.3889 2.7306C37.3889 2.83347 37.4302 2.92031 37.5128 2.99136C37.5955 3.06242 37.7372 3.11942 37.9381 3.16236L38.721 3.31939C39.1417 3.40536 39.4552 3.54368 39.6617 3.73434C39.8683 3.92492 39.9716 4.17542 39.9716 4.48568C39.9716 4.76784 39.888 5.01549 39.7209 5.22857C39.5557 5.44165 39.3285 5.60799 39.0393 5.7276C38.752 5.84539 38.4207 5.90421 38.0451 5.90421C37.4724 5.90421 37.0162 5.78555 36.6763 5.54815C36.3384 5.30894 36.1403 4.98376 36.0821 4.57252L37.2622 4.51086C37.2978 4.68471 37.3842 4.81742 37.5213 4.90899C37.6584 4.99868 37.8339 5.04352 38.0479 5.04352C38.2583 5.04352 38.4272 5.00334 38.5549 4.92297C38.6845 4.84078 38.7501 4.73515 38.752 4.60623C38.7501 4.49776 38.7041 4.40902 38.614 4.33986C38.5239 4.26881 38.385 4.21465 38.1972 4.17723L37.448 4.02865C37.0256 3.94457 36.7111 3.79876 36.5045 3.59128C36.2999 3.38389 36.1975 3.11942 36.1975 2.79794C36.1975 2.52131 36.2726 2.28301 36.4229 2.08303C36.575 1.88304 36.7881 1.72884 37.0622 1.62044C37.3382 1.51204 37.6611 1.45783 38.031 1.45783C38.5774 1.45783 39.0074 1.57278 39.3209 1.80267C39.6364 2.03255 39.8204 2.34562 39.873 2.74189ZM43.0281 1.5139V2.41104H40.4229V1.5139H43.0281ZM41.0144 0.48221H42.2141V4.49689C42.2141 4.6071 42.2311 4.69307 42.2649 4.75481C42.2986 4.81457 42.3456 4.85665 42.4056 4.88097C42.4676 4.90521 42.539 4.91736 42.6197 4.91736C42.676 4.91736 42.7324 4.91271 42.7887 4.90339C42.845 4.89218 42.8882 4.88373 42.9182 4.87813L43.107 5.76684C43.0469 5.78555 42.9624 5.80702 42.8535 5.83134C42.7445 5.85747 42.6122 5.87342 42.4563 5.87902C42.1672 5.89023 41.9138 5.85186 41.6959 5.76407C41.48 5.67621 41.3119 5.53978 41.1918 5.35473C41.0716 5.16968 41.0125 4.93607 41.0144 4.65384V0.48221ZM45.0433 5.90144C44.7672 5.90144 44.5212 5.85376 44.3054 5.75847C44.0894 5.66128 43.9186 5.51831 43.7928 5.32955C43.6688 5.13889 43.6069 4.90149 43.6069 4.61744C43.6069 4.37815 43.651 4.17723 43.7392 4.01468C43.8275 3.85205 43.9477 3.72123 44.0997 3.62215C44.2518 3.52307 44.4246 3.44831 44.6179 3.39786C44.8133 3.34742 45.0179 3.31189 45.2319 3.29136C45.4835 3.26515 45.6863 3.24092 45.8402 3.21842C45.9943 3.19418 46.1059 3.15865 46.1754 3.11192C46.2449 3.06518 46.2796 2.99602 46.2796 2.90444V2.88763C46.2796 2.71007 46.2233 2.57271 46.1106 2.47551C45.9999 2.37833 45.8421 2.32974 45.6375 2.32974C45.4216 2.32974 45.2498 2.37739 45.1221 2.47271C44.9944 2.56616 44.9099 2.68394 44.8686 2.82597L43.7589 2.73628C43.8153 2.47458 43.926 2.24843 44.0913 2.05779C44.2565 1.86528 44.4696 1.71763 44.7306 1.61484C44.9935 1.51017 45.2976 1.45783 45.6432 1.45783C45.8835 1.45783 46.1135 1.48587 46.3332 1.54194C46.5547 1.59801 46.7509 1.68492 46.9218 1.80267C47.0945 1.92042 47.2306 2.07181 47.3302 2.25684C47.4297 2.44 47.4794 2.65962 47.4794 2.91565V5.82013H46.3416V5.22297H46.3078C46.2383 5.35757 46.1454 5.47623 46.029 5.57902C45.9126 5.67992 45.7727 5.75942 45.6093 5.81728C45.446 5.87342 45.2572 5.90144 45.0433 5.90144ZM45.3868 5.07715C45.5633 5.07715 45.7191 5.04265 45.8544 4.9735C45.9895 4.90244 46.0956 4.80715 46.1726 4.68747C46.2496 4.56786 46.2881 4.43239 46.2881 4.28097V3.82402C46.2505 3.84834 46.1989 3.87076 46.1332 3.89128C46.0694 3.90999 45.997 3.92776 45.9163 3.94457C45.8356 3.95949 45.7548 3.97355 45.6741 3.98665C45.5934 3.99786 45.5201 4.00813 45.4544 4.01744C45.3136 4.03805 45.1906 4.07073 45.0854 4.11557C44.9804 4.16042 44.8987 4.22121 44.8405 4.29778C44.7822 4.37255 44.7531 4.46602 44.7531 4.57813C44.7531 4.74076 44.8123 4.86502 44.9306 4.95099C45.0507 5.03515 45.2028 5.07715 45.3868 5.07715ZM49.61 0.0784974V5.82013H48.4102V0.0784974H49.61ZM50.5937 5.82013V0.0784974H52.8694C53.3068 0.0784974 53.6795 0.161669 53.9875 0.328011C54.2954 0.49249 54.5301 0.721445 54.6916 1.01488C54.8549 1.30644 54.9366 1.64287 54.9366 2.02415C54.9366 2.40543 54.8539 2.74189 54.6887 3.03344C54.5235 3.32499 54.2841 3.55205 53.9706 3.71468C53.6589 3.87731 53.2815 3.95855 52.8384 3.95855H51.3879V2.98576H52.6412C52.8759 2.98576 53.0693 2.94557 53.2214 2.86521C53.3754 2.78294 53.4899 2.66989 53.565 2.52598C53.642 2.3802 53.6805 2.21292 53.6805 2.02415C53.6805 1.83351 53.642 1.66716 53.565 1.52512C53.4899 1.38121 53.3754 1.27 53.2214 1.1915C53.0674 1.11113 52.8721 1.07095 52.6356 1.07095H51.8132V5.82013H50.5937ZM56.0568 5.82013H54.75L56.7412 0.0784974H58.3127L60.3011 5.82013H58.9943L57.5495 1.39055H57.5045L56.0568 5.82013ZM55.9752 3.56326H59.0619V4.51086H55.9752V3.56326ZM60.0688 0.0784974H61.4348L62.7501 2.55122H62.8064L64.1217 0.0784974H65.4876L63.3838 3.79039V5.82013H62.1727V3.79039L60.0688 0.0784974Z" fill="white"/>
<path d="M8.32752 0.394531H4.75855L0.396484 5.13137H4.75855L8.32752 0.394531Z" fill="#3BA8D1"/>
<path d="M8.72424 0.394531H12.2932L16.6553 5.13137H12.2932L8.72424 0.394531Z" fill="#3BA8D1"/>
<path d="M8.72431 0.394531H8.32775L4.75879 5.13137H12.2933L8.72431 0.394531Z" fill="#4AD2FF"/>
<path d="M8.32752 14.605L0.396484 5.13135H4.75855L8.32752 13.8156V14.605Z" fill="#4AD2FF"/>
<path d="M8.72424 14.605L16.6553 5.13135H12.2932L8.72424 13.8156V14.605Z" fill="#4AD2FF"/>
<path d="M8.72431 14.605H8.32775V13.8156L4.75879 5.13135H12.2933L8.72431 13.8156V14.605Z" fill="#3BA8D1"/>
<path d="M44.1278 9.0426H43.0653C43.035 8.8683 42.9791 8.714 42.8977 8.5795C42.8162 8.4432 42.7149 8.3276 42.5937 8.2329C42.4725 8.1382 42.3342 8.0672 42.1789 8.0199C42.0255 7.9706 41.8598 7.946 41.6818 7.946C41.3655 7.946 41.0852 8.0255 40.8409 8.1846C40.5966 8.3418 40.4053 8.5729 40.267 8.8778C40.1287 9.1808 40.0596 9.5511 40.0596 9.9886C40.0596 10.4337 40.1287 10.8087 40.267 11.1136C40.4072 11.4166 40.5984 11.6458 40.8409 11.8011C41.0852 11.9545 41.3645 12.0312 41.6789 12.0312C41.8532 12.0312 42.0161 12.0085 42.1676 11.963C42.321 11.9157 42.4583 11.8466 42.5795 11.7557C42.7026 11.6647 42.8058 11.553 42.8892 11.4204C42.9744 11.2879 43.0331 11.1363 43.0653 10.9659L44.1278 10.9716C44.088 11.2481 44.0019 11.5075 43.8693 11.75C43.7386 11.9924 43.5672 12.2064 43.3551 12.392C43.143 12.5757 42.8948 12.7197 42.6108 12.8238C42.3267 12.9261 42.0113 12.9772 41.6647 12.9772C41.1534 12.9772 40.6969 12.8589 40.2954 12.6221C39.8939 12.3854 39.5776 12.0435 39.3466 11.5966C39.1155 11.1496 39 10.6136 39 9.9886C39 9.3617 39.1164 8.8257 39.3494 8.3807C39.5823 7.9337 39.8996 7.5918 40.3011 7.3551C40.7026 7.1183 41.1572 7 41.6647 7C41.9886 7 42.2897 7.0454 42.5681 7.1363C42.8466 7.2272 43.0947 7.3608 43.3125 7.5369C43.5303 7.7111 43.7092 7.9252 43.8494 8.1789C43.9914 8.4308 44.0842 8.7187 44.1278 9.0426ZM45.0475 12.8977V8.5341H46.0447V9.2613H46.0902C46.1697 9.0094 46.3061 8.8153 46.4993 8.6789C46.6943 8.5407 46.9169 8.4716 47.1669 8.4716C47.2237 8.4716 47.2871 8.4744 47.3572 8.4801C47.4292 8.4839 47.4888 8.4905 47.5362 8.5V9.446C47.4926 9.4308 47.4235 9.4176 47.3288 9.4062C47.236 9.393 47.146 9.3863 47.0589 9.3863C46.8714 9.3863 46.7028 9.4271 46.5532 9.5085C46.4055 9.588 46.289 9.6988 46.2038 9.8409C46.1186 9.9829 46.076 10.1468 46.076 10.3324V12.8977H45.0475ZM48.9914 14.5341C48.8513 14.5341 48.7216 14.5227 48.6022 14.5C48.4848 14.4791 48.3911 14.4545 48.321 14.4261L48.5596 13.625C48.7092 13.6685 48.8428 13.6894 48.9602 13.6875C49.0776 13.6856 49.1808 13.6486 49.2698 13.5767C49.3608 13.5066 49.4375 13.3892 49.5 13.2244L49.588 12.9886L48.0056 8.5341H49.0966L50.1022 11.8295H50.1477L51.1562 8.5341H52.25L50.5028 13.4261C50.4214 13.6572 50.3134 13.8551 50.1789 14.0199C50.0445 14.1865 49.8797 14.3134 49.6846 14.4005C49.4914 14.4896 49.2604 14.5341 48.9914 14.5341ZM52.9616 14.5341V8.5341H53.973V9.2557H54.0326C54.0857 9.1496 54.1605 9.0369 54.2571 8.9176C54.3537 8.7964 54.4843 8.6932 54.6491 8.6079C54.8139 8.5208 55.0241 8.4772 55.2798 8.4772C55.6169 8.4772 55.9209 8.5634 56.1917 8.7358C56.4645 8.9062 56.6804 9.1591 56.8394 9.4943C57.0004 9.8276 57.0809 10.2367 57.0809 10.7216C57.0809 11.2007 57.0023 11.6079 56.8451 11.9432C56.6879 12.2784 56.4739 12.5341 56.2031 12.7102C55.9323 12.8863 55.6254 12.9744 55.2826 12.9744C55.0326 12.9744 54.8252 12.9327 54.6605 12.8494C54.4957 12.7661 54.3631 12.6657 54.2627 12.5483C54.1643 12.4289 54.0876 12.3163 54.0326 12.2102H53.99V14.5341H52.9616ZM53.9701 10.7159C53.9701 10.9981 54.0099 11.2452 54.0894 11.4574C54.1709 11.6695 54.2874 11.8352 54.4389 11.9545C54.5923 12.0719 54.7779 12.1307 54.9957 12.1307C55.223 12.1307 55.4133 12.07 55.5667 11.9488C55.7201 11.8257 55.8357 11.6581 55.9133 11.446C55.9929 11.232 56.0326 10.9886 56.0326 10.7159C56.0326 10.445 55.9938 10.2045 55.9162 9.9943C55.8385 9.7841 55.723 9.6193 55.5696 9.5C55.4162 9.3807 55.2249 9.321 54.9957 9.321C54.776 9.321 54.5894 9.3788 54.436 9.4943C54.2826 9.6098 54.1662 9.7718 54.0866 9.9801C54.009 10.1884 53.9701 10.4337 53.9701 10.7159ZM60.1406 8.5341V9.3295H57.6321V8.5341H60.1406ZM58.2514 7.4886H59.2798V11.5852C59.2798 11.7235 59.3006 11.8295 59.3423 11.9034C59.3859 11.9754 59.4427 12.0246 59.5127 12.0511C59.5828 12.0776 59.6605 12.0909 59.7457 12.0909C59.8101 12.0909 59.8688 12.0861 59.9218 12.0767C59.9768 12.0672 60.0184 12.0587 60.0468 12.0511L60.2201 12.8551C60.1652 12.874 60.0866 12.8949 59.9843 12.9176C59.884 12.9403 59.7609 12.9536 59.615 12.9574C59.3574 12.9649 59.1254 12.9261 58.919 12.8409C58.7126 12.7538 58.5487 12.6193 58.4275 12.4375C58.3082 12.2557 58.2495 12.0284 58.2514 11.7557V7.4886ZM62.8572 12.9829C62.4311 12.9829 62.0618 12.8892 61.7493 12.7017C61.4368 12.5142 61.1943 12.2519 61.022 11.9147C60.8515 11.5776 60.7663 11.1837 60.7663 10.7329C60.7663 10.2822 60.8515 9.8873 61.022 9.5483C61.1943 9.2093 61.4368 8.946 61.7493 8.7585C62.0618 8.571 62.4311 8.4772 62.8572 8.4772C63.2833 8.4772 63.6527 8.571 63.9652 8.7585C64.2777 8.946 64.5191 9.2093 64.6896 9.5483C64.8619 9.8873 64.9481 10.2822 64.9481 10.7329C64.9481 11.1837 64.8619 11.5776 64.6896 11.9147C64.5191 12.2519 64.2777 12.5142 63.9652 12.7017C63.6527 12.8892 63.2833 12.9829 62.8572 12.9829ZM62.8629 12.1591C63.0939 12.1591 63.2871 12.0956 63.4424 11.9687C63.5977 11.8399 63.7133 11.6676 63.789 11.4517C63.8667 11.2358 63.9055 10.9952 63.9055 10.7301C63.9055 10.463 63.8667 10.2216 63.789 10.0057C63.7133 9.7879 63.5977 9.6146 63.4424 9.4858C63.2871 9.357 63.0939 9.2926 62.8629 9.2926C62.6261 9.2926 62.4292 9.357 62.272 9.4858C62.1167 9.6146 62.0002 9.7879 61.9225 10.0057C61.8468 10.2216 61.8089 10.463 61.8089 10.7301C61.8089 10.9952 61.8468 11.2358 61.9225 11.4517C62.0002 11.6676 62.1167 11.8399 62.272 11.9687C62.4292 12.0956 62.6261 12.1591 62.8629 12.1591Z" fill="#3BA8D1"/>
</g>
<defs>
<clipPath id="clip0_326_214">
<rect width="69" height="15" fill="white"/>
</clipPath>
</defs>
</svg>
