<svg width="87" height="19" viewBox="0 0 87 19" fill="none" xmlns="http://www.w3.org/2000/svg">
<path d="M34.5447 8.27353H32.9893C32.9609 8.0723 32.9029 7.89356 32.8153 7.73731C32.7277 7.57869 32.6153 7.44375 32.4779 7.33248C32.3406 7.22121 32.182 7.13598 32.0021 7.07679C31.8245 7.01761 31.6316 6.98802 31.4233 6.98802C31.0468 6.98802 30.7189 7.08153 30.4396 7.26856C30.1602 7.45321 29.9436 7.7231 29.7897 8.07821C29.6359 8.43096 29.5589 8.85946 29.5589 9.36369C29.5589 9.88219 29.6359 10.3178 29.7897 10.6706C29.946 11.0233 30.1638 11.2896 30.4431 11.4696C30.7225 11.6495 31.0457 11.7394 31.4126 11.7394C31.6186 11.7394 31.8091 11.7122 31.9843 11.6578C32.1619 11.6033 32.3193 11.524 32.4566 11.4198C32.5939 11.3133 32.7076 11.1843 32.7975 11.0328C32.8899 10.8813 32.9538 10.7084 32.9893 10.5143L34.5447 10.5214C34.5045 10.8552 34.4038 11.1772 34.2429 11.4873C34.0842 11.7951 33.87 12.0709 33.6001 12.3147C33.3326 12.5562 33.013 12.748 32.6413 12.89C32.272 13.0297 31.8541 13.0995 31.3877 13.0995C30.7391 13.0995 30.1591 12.9528 29.6477 12.6592C29.1387 12.3656 28.7362 11.9407 28.4403 11.3843C28.1467 10.828 28 10.1545 28 9.36369C28 8.57064 28.1491 7.89592 28.4474 7.33958C28.7457 6.78323 29.1505 6.35946 29.6619 6.06827C30.1733 5.77471 30.7485 5.62793 31.3877 5.62793C31.8091 5.62793 32.1998 5.68712 32.5596 5.80549C32.9218 5.92386 33.2426 6.09668 33.522 6.32395C33.8013 6.54886 34.0286 6.82466 34.2038 7.15137C34.3814 7.47807 34.495 7.85213 34.5447 8.27353ZM35.6189 13.0001V7.54554H37.0855V8.49725H37.1424C37.2418 8.15871 37.4087 7.90303 37.6431 7.7302C37.8774 7.55501 38.1473 7.46742 38.4527 7.46742C38.5285 7.46742 38.6102 7.47215 38.6978 7.48162C38.7854 7.49109 38.8623 7.50411 38.9286 7.52069V8.86302C38.8576 8.84171 38.7593 8.82277 38.6338 8.8062C38.5084 8.78963 38.3935 8.78134 38.2894 8.78134C38.0668 8.78134 37.868 8.82987 37.6928 8.92694C37.52 9.02159 37.3827 9.15419 37.2809 9.32469C37.1814 9.49509 37.1317 9.69159 37.1317 9.91419V13.0001H35.6189ZM40.8107 15.0456C40.6189 15.0456 40.439 15.0302 40.2709 14.9994C40.1052 14.971 39.9679 14.9343 39.859 14.8893L40.1999 13.76C40.3774 13.8145 40.5372 13.8441 40.6793 13.8488C40.8237 13.8536 40.948 13.8204 41.0522 13.7494C41.1587 13.6784 41.2451 13.5576 41.3114 13.3872L41.4002 13.1563L39.4435 7.54554H41.0344L42.1637 11.5512H42.2205L43.3604 7.54554H44.962L42.8419 13.5896C42.7401 13.8831 42.6016 14.1388 42.4265 14.3566C42.2536 14.5768 42.0346 14.7461 41.7695 14.8644C41.5043 14.9852 41.1847 15.0456 40.8107 15.0456ZM50.2745 9.10099L48.8895 9.18619C48.8658 9.06779 48.8149 8.96126 48.7368 8.86657C48.6587 8.7695 48.5557 8.69256 48.4279 8.63574C48.3024 8.57656 48.1521 8.54697 47.9769 8.54697C47.7425 8.54697 47.5448 8.59668 47.3838 8.69611C47.2229 8.79318 47.1424 8.92339 47.1424 9.08669C47.1424 9.21699 47.1944 9.32699 47.2986 9.41699C47.4028 9.50699 47.5815 9.57919 47.8348 9.63359L48.822 9.83249C49.3524 9.94139 49.7477 10.1166 50.0081 10.3581C50.2685 10.5995 50.3988 10.9168 50.3988 11.3098C50.3988 11.6672 50.2934 11.9809 50.0827 12.2508C49.8744 12.5207 49.5879 12.7314 49.2233 12.8829C48.8611 13.0321 48.4433 13.1066 47.9698 13.1066C47.2477 13.1066 46.6724 12.9563 46.2439 12.6556C45.8178 12.3526 45.568 11.9407 45.4946 11.4198L46.9826 11.3417C47.0275 11.5619 47.1364 11.73 47.3093 11.846C47.4821 11.9596 47.7034 12.0164 47.9733 12.0164C48.2385 12.0164 48.4515 11.9655 48.6125 11.8637C48.7759 11.7596 48.8587 11.6258 48.8611 11.4625C48.8587 11.3251 48.8007 11.2127 48.6871 11.1251C48.5735 11.0351 48.3983 10.9665 48.1615 10.9191L47.2169 10.7309C46.6843 10.6244 46.2877 10.4397 46.0273 10.1769C45.7693 9.91419 45.6402 9.57919 45.6402 9.17199C45.6402 8.82159 45.7349 8.51974 45.9243 8.26643C46.1161 8.01311 46.3848 7.8178 46.7304 7.68049C47.0784 7.54318 47.4856 7.47452 47.952 7.47452C48.6409 7.47452 49.1831 7.62012 49.5784 7.91131C49.9762 8.2025 50.2082 8.59905 50.2745 9.10099ZM54.2526 7.54554V8.68191H50.9678V7.54554H54.2526ZM51.7136 6.23873H53.2263V11.324C53.2263 11.4636 53.2477 11.5725 53.2903 11.6507C53.3329 11.7264 53.3921 11.7797 53.4678 11.8105C53.5459 11.8412 53.6359 11.8566 53.7377 11.8566C53.8087 11.8566 53.8798 11.8507 53.9508 11.8389C54.0218 11.8247 54.0763 11.814 54.1141 11.8069L54.3521 12.9326C54.2763 12.9563 54.1698 12.9835 54.0325 13.0143C53.8951 13.0474 53.7282 13.0676 53.5317 13.0747C53.1672 13.0889 52.8476 13.0403 52.5729 12.9291C52.3007 12.8178 52.0888 12.645 51.9373 12.4106C51.7858 12.1762 51.7112 11.8803 51.7136 11.5228V6.23873ZM56.7935 13.1031C56.4454 13.1031 56.1353 13.0427 55.8631 12.922C55.5908 12.7989 55.3754 12.6178 55.2168 12.3787C55.0605 12.1372 54.9824 11.8365 54.9824 11.4767C54.9824 11.1736 55.038 10.9191 55.1493 10.7132C55.2606 10.5072 55.4121 10.3415 55.6038 10.216C55.7956 10.0905 56.0134 9.99579 56.2572 9.93189C56.5035 9.86799 56.7615 9.82299 57.0314 9.79699C57.3486 9.76379 57.6043 9.73309 57.7984 9.70459C57.9926 9.67389 58.1334 9.62889 58.221 9.56969C58.3086 9.51049 58.3524 9.42289 58.3524 9.30689V9.28559C58.3524 9.06069 58.2814 8.88669 58.1393 8.76358C57.9997 8.64048 57.8008 8.57893 57.5428 8.57893C57.2705 8.57893 57.0539 8.63929 56.8929 8.76003C56.7319 8.8784 56.6254 9.02759 56.5733 9.20749L55.1741 9.09389C55.2452 8.7624 55.3848 8.47594 55.5932 8.23447C55.8015 7.99062 56.0702 7.80359 56.3993 7.67339C56.7307 7.54081 57.1142 7.47452 57.5499 7.47452C57.8529 7.47452 58.1429 7.51003 58.4199 7.58106C58.6992 7.65208 58.9466 7.76216 59.1621 7.91131C59.3799 8.06046 59.5515 8.25222 59.677 8.4866C59.8025 8.7186 59.8652 8.99678 59.8652 9.32109V13.0001H58.4305V12.2437H58.3879C58.3003 12.4142 58.1831 12.5645 58.0364 12.6947C57.8896 12.8225 57.7132 12.9232 57.5072 12.9965C57.3013 13.0676 57.0633 13.1031 56.7935 13.1031ZM57.2267 12.059C57.4492 12.059 57.6457 12.0153 57.8162 11.9277C57.9866 11.8377 58.1204 11.717 58.2175 11.5654C58.3145 11.4139 58.3631 11.2423 58.3631 11.0505V10.4717C58.3157 10.5025 58.2506 10.5309 58.1678 10.5569C58.0873 10.5806 57.9961 10.6031 57.8943 10.6244C57.7925 10.6433 57.6907 10.6611 57.5889 10.6777C57.4871 10.6919 57.3948 10.7049 57.3119 10.7167C57.1344 10.7428 56.9793 10.7842 56.8467 10.841C56.7142 10.8978 56.6112 10.9748 56.5378 11.0718C56.4644 11.1665 56.4277 11.2849 56.4277 11.4269C56.4277 11.6329 56.5023 11.7903 56.6514 11.8992C56.8029 12.0058 56.9947 12.059 57.2267 12.059ZM62.5516 5.72736V13.0001H61.0388V5.72736H62.5516ZM63.7919 13.0001V5.72736H66.6612C67.2128 5.72736 67.6827 5.83271 68.071 6.04341C68.4592 6.25175 68.7552 6.54176 68.9588 6.91344C69.1647 7.28276 69.2677 7.7089 69.2677 8.19185C69.2677 8.67481 69.1635 9.10099 68.9552 9.47029C68.7469 9.83959 68.445 10.1272 68.0497 10.3332C67.6567 10.5392 67.1808 10.6421 66.6221 10.6421H64.7933V9.40989H66.3735C66.6695 9.40989 66.9133 9.35899 67.1051 9.25719C67.2992 9.15299 67.4436 9.00979 67.5383 8.8275C67.6354 8.64285 67.6839 8.43096 67.6839 8.19185C67.6839 7.95037 67.6354 7.73967 67.5383 7.55975C67.4436 7.37746 67.2992 7.2366 67.1051 7.13716C66.9109 7.03536 66.6647 6.98447 66.3664 6.98447H65.3295V13.0001H63.7919ZM70.6802 13.0001H69.0325L71.5431 5.72736H73.5246L76.0317 13.0001H74.384L72.5623 7.38929H72.5055L70.6802 13.0001ZM70.5772 10.1414H74.4692V11.3417H70.5772V10.1414ZM75.7388 5.72736H77.4611L79.1195 8.85947H79.1905L80.8489 5.72736H82.5712L79.9185 10.4291V13.0001H78.3915V10.4291L75.7388 5.72736Z" fill="white"/>
<path d="M10.5 0.5H6L0.5 6.5H6L10.5 0.5Z" fill="#3BA8D1"/>
<path d="M11 0.5H15.5L21 6.5H15.5L11 0.5Z" fill="#3BA8D1"/>
<path d="M11 0.5H10.5L6 6.5H15.5L11 0.5Z" fill="#4AD2FF"/>
<path d="M10.5 18.5L0.5 6.5H6L10.5 17.5V18.5Z" fill="#4AD2FF"/>
<path d="M11 18.5L21 6.5H15.5L11 17.5V18.5Z" fill="#4AD2FF"/>
<path d="M11 18.5H10.5V17.5L6 6.5H15.5L11 17.5V18.5Z" fill="#3BA8D1"/>
<path d="M11 17.5H10.5V18.5H11V17.5Z" fill="#4AD2FF"/>
</svg>
