<svg width="62" height="23" viewBox="0 0 62 23" fill="none" xmlns="http://www.w3.org/2000/svg">
<g clip-path="url(#clip0_337_269)">
<path d="M8.74279 9.78955V12.7362H3.42279V23.0001H0V14.1997L3.40304 9.78955H8.74279Z" fill="url(#paint0_linear_337_269)"/>
<path d="M17.9739 2.02242e-08L16.0183 2.92707H4.74204C4.57123 2.92701 4.40208 2.96099 4.24425 3.02704C4.08642 3.0931 3.94301 3.18996 3.8222 3.31207C3.7014 3.43418 3.60557 3.57916 3.54019 3.73873C3.47481 3.89829 3.44116 4.06932 3.44116 4.24204V6.37014L-0.000976562 10.3234V4.28158C-0.000922521 3.71926 0.108666 3.16245 0.321533 2.64296C0.5344 2.12347 0.846376 1.65145 1.23965 1.25387C1.63292 0.85629 2.09979 0.540927 2.61359 0.325787C3.1274 0.110647 3.67808 -5.46296e-05 4.2342 2.02242e-08H17.9739Z" fill="url(#paint1_linear_337_269)"/>
<path d="M25.0644 23H21.3091L14.5323 13.2109V23H11.6572V13.27L20.9276 0H24.6245L16.9673 11.0154L25.0644 23Z" fill="url(#paint2_linear_337_269)"/>
<path d="M25.98 11.4469L24.2207 4.43506H25.1672L25.9903 7.98258C26.1961 8.85645 26.3813 9.73033 26.5048 10.4065H26.5253C26.6385 9.70952 26.8546 8.87726 27.0912 7.97218L28.0172 4.43506H28.9534L29.7971 7.99298C29.9926 8.82524 30.1778 9.65751 30.2807 10.3961H30.3012C30.4453 9.6263 30.6408 8.84605 30.8568 7.97218L31.7725 4.43506H32.6882L30.7231 11.4469H29.7868L28.9123 7.79532C28.6962 6.90064 28.5522 6.21402 28.4596 5.5066H28.439C28.3013 6.27864 28.1227 7.04265 27.904 7.79532L26.9163 11.4469H25.98Z" fill="white"/>
<path d="M34.0876 9.24138L33.3674 11.4469H32.4414L34.7975 4.43506H35.8778L38.2441 11.4469H37.2873L36.5465 9.24138H34.0876ZM36.3613 8.53395L35.6823 6.51572C35.528 6.05797 35.4251 5.64184 35.3222 5.23611H35.3016C35.1987 5.65224 35.0856 6.07878 34.9518 6.50531L34.2728 8.53395H36.3613Z" fill="white"/>
<path d="M39.2627 4.43506H40.1578V10.6874H43.1209V11.4469H39.2627V4.43506Z" fill="white"/>
<path d="M44.1182 4.43506H45.0133V10.6874H47.9764V11.4469H44.1182V4.43506Z" fill="white"/>
<path d="M52.565 8.15943H49.8694V10.6874H52.8737V11.4469H48.9727V4.43506H52.7177V5.1945H49.8678V7.4104H52.5634L52.565 8.15943Z" fill="white"/>
<path d="M55.5164 5.2049H53.4072V4.43506H58.5412V5.2049H56.4218V11.4469H55.5164V5.2049Z" fill="white"/>
<path d="M24.9052 13.228V14.2767H25.0089L25.9078 13.228H26.4362L25.3941 14.3216C25.7794 14.3632 26.0115 14.6212 26.1991 15.0557C26.2633 15.2155 26.3473 15.4502 26.4559 15.6449H26.0032C25.9155 15.4868 25.8411 15.3214 25.781 15.1506C25.6164 14.7611 25.3958 14.5813 24.9908 14.5813H24.9085V15.6449H24.4756V13.228H24.9052Z" fill="white"/>
<path d="M28.9746 14.4163C28.9746 15.3102 28.3622 15.6997 27.7844 15.6997C27.1375 15.6997 26.6387 15.2203 26.6387 14.4563C26.6387 13.6473 27.1622 13.1733 27.8239 13.1733C28.5104 13.1733 28.9746 13.6773 28.9746 14.4163ZM27.0786 14.443C27.0786 14.9723 27.3799 15.3718 27.8046 15.3718C28.2194 15.3718 28.5305 14.9773 28.5305 14.433C28.5305 14.0235 28.3281 13.5046 27.8144 13.5046C27.3008 13.5046 27.0786 13.9819 27.0786 14.443Z" fill="white"/>
<path d="M29.9374 13.228V15.3004H30.772V13.228H31.1967V15.3004H32.0313V13.228H32.461V15.6449H29.5127V13.228H29.9374Z" fill="white"/>
<path d="M33.409 14.5162C33.4189 15.1104 33.7942 15.3551 34.2288 15.3551C34.5399 15.3551 34.7276 15.3002 34.8905 15.2303L34.9646 15.5449C34.8115 15.6148 34.5498 15.6947 34.1695 15.6947C33.4337 15.6947 32.9941 15.2053 32.9941 14.4762C32.9941 13.7472 33.4189 13.1733 34.1152 13.1733C34.8971 13.1733 35.1029 13.867 35.1029 14.3115C35.1021 14.38 35.0972 14.4483 35.0881 14.5162H33.409ZM34.6848 14.2016C34.6897 13.922 34.5712 13.4875 34.0823 13.4875C33.6427 13.4875 33.4501 13.897 33.4156 14.2016H34.6848Z" fill="white"/>
<path d="M37.4587 13.228V15.6449H37.0291V13.5726H36.2093V14.2018C36.2093 14.8809 36.1451 15.3353 35.834 15.5401C35.7154 15.6349 35.5821 15.6899 35.3599 15.6899L35.3154 15.3453C35.4013 15.3318 35.4826 15.2976 35.5525 15.2454C35.7747 15.079 35.7994 14.7411 35.7994 14.2018V13.228H37.4587Z" fill="white"/>
<path d="M38.4119 14.5162C38.4218 15.1104 38.7971 15.3551 39.2317 15.3551C39.5428 15.3551 39.7301 15.3002 39.893 15.2303L39.9671 15.5449C39.814 15.6148 39.5527 15.6947 39.1724 15.6947C38.4366 15.6947 37.9971 15.2053 37.9971 14.4762C37.9971 13.7472 38.4218 13.1733 39.1181 13.1733C39.9 13.1733 40.1058 13.867 40.1058 14.3115C40.1051 14.38 40.1001 14.4483 40.091 14.5162H38.4119ZM39.6877 14.2016C39.6922 13.922 39.5737 13.4875 39.0852 13.4875C38.6457 13.4875 38.4531 13.897 38.4185 14.2016H39.6877Z" fill="white"/>
<path d="M41.0737 13.228V14.2767H41.177L42.0758 13.228H42.6042L41.5647 14.3216C41.9495 14.3632 42.182 14.6212 42.3692 15.0557C42.4334 15.2155 42.5174 15.4502 42.6261 15.6449H42.1734C42.0856 15.4868 42.0113 15.3214 41.9511 15.1506C41.7865 14.7611 41.5663 14.5813 41.1614 14.5813H41.0791V15.6449H40.6494V13.228H41.0737Z" fill="white"/>
</g>
<defs>
<linearGradient id="paint0_linear_337_269" x1="-4.2146" y1="8.62438" x2="18.361" y2="28.607" gradientUnits="userSpaceOnUse">
<stop stop-color="#1576FF"/>
<stop offset="1" stop-color="#601CFF"/>
</linearGradient>
<linearGradient id="paint1_linear_337_269" x1="3.35885" y1="0.0682458" x2="25.9341" y2="20.0509" gradientUnits="userSpaceOnUse">
<stop stop-color="#1576FF"/>
<stop offset="1" stop-color="#601CFF"/>
</linearGradient>
<linearGradient id="paint2_linear_337_269" x1="4.31532" y1="-1.01203" x2="26.8909" y2="18.9706" gradientUnits="userSpaceOnUse">
<stop stop-color="#1576FF"/>
<stop offset="1" stop-color="#601CFF"/>
</linearGradient>
<clipPath id="clip0_337_269">
<rect width="62" height="23" fill="white"/>
</clipPath>
</defs>
</svg>
