<svg width="60" height="20" viewBox="0 0 60 20" fill="none" xmlns="http://www.w3.org/2000/svg">
<g clip-path="url(#clip0_382_2)">
<path d="M20.3824 10C20.3824 4.47715 15.8196 0 10.1912 0C4.56275 0 0 4.47715 0 10C0 15.5228 4.56275 20 10.1912 20C15.8196 20 20.3824 15.5228 20.3824 10Z" fill="url(#paint0_linear_382_2)"/>
<path d="M7.61169 8.60304C7.65199 8.56813 7.67219 8.55067 7.67534 8.53363C7.67812 8.51876 7.67391 8.50349 7.66385 8.49204C7.65232 8.4789 7.62638 8.47394 7.57445 8.46399C6.96905 8.3484 6.34229 8.28058 5.79248 8.27494C5.76607 8.27467 5.75292 8.27454 5.74268 8.26967C5.73355 8.2654 5.72614 8.25867 5.721 8.25017C5.71516 8.24058 5.71391 8.22781 5.71136 8.20231L5.50754 6.1454C5.50499 6.1199 5.50374 6.10713 5.50763 6.09654C5.51106 6.08722 5.51727 6.07908 5.52537 6.07322C5.53464 6.06654 5.54742 6.06413 5.57304 6.05926C8.64415 5.47622 11.7009 5.44631 14.8181 6.0604C14.8436 6.0654 14.8564 6.0679 14.8655 6.07463C14.8736 6.08054 14.8798 6.08867 14.8831 6.09799C14.8869 6.10858 14.8856 6.12131 14.8831 6.14672L14.6715 8.20258C14.6689 8.22804 14.6676 8.24072 14.6618 8.25031C14.6566 8.25876 14.6492 8.26544 14.6401 8.26972C14.6299 8.27454 14.6168 8.27467 14.5905 8.27494C14.0406 8.28054 13.4138 8.34835 12.8082 8.46399C12.7563 8.47394 12.7304 8.4789 12.7188 8.49204C12.7088 8.50349 12.7045 8.51876 12.7073 8.53363C12.7105 8.55067 12.7307 8.56813 12.771 8.60304C14.2299 9.86504 15.2617 11.5278 15.2849 13.8637C15.2852 13.8917 15.2853 13.9058 15.2798 13.9166C15.275 13.926 15.2671 13.9338 15.2575 13.9387C15.2466 13.9442 15.2323 13.9442 15.2038 13.9442H13.1021C13.0736 13.9442 13.0593 13.9442 13.0485 13.9388C13.0389 13.934 13.0312 13.9267 13.0263 13.9173C13.0207 13.9068 13.0204 13.8924 13.0201 13.8637C12.9928 11.9139 11.9723 10.6141 10.2358 9.50144C10.2198 9.49117 10.2117 9.48604 10.203 9.48399C10.1954 9.48226 10.1873 9.48226 10.1796 9.48399C10.171 9.48604 10.1629 9.49117 10.1469 9.50144C8.41036 10.6141 7.3899 11.9139 7.36266 13.8637C7.36224 13.8924 7.36206 13.9068 7.3564 13.9173C7.35145 13.9267 7.3438 13.934 7.33422 13.9388C7.32338 13.9442 7.30911 13.9442 7.28053 13.9442H5.17892C5.15039 13.9442 5.13612 13.9442 5.12514 13.9387C5.1156 13.9338 5.10768 13.926 5.10286 13.9166C5.09735 13.9058 5.09748 13.8917 5.09776 13.8637C5.12092 11.5278 6.15278 9.86504 7.61169 8.60304Z" fill="white"/>
<path d="M33.5345 14.091H26.7861V6.45459H29.1097V11.9091H33.5345V14.091Z" fill="white"/>
<path d="M42.7298 14.091H40.2172L39.7169 12.7382H36.704L36.2037 14.091H33.7578L37.0486 6.45459H39.4278L42.7298 14.091ZM37.3488 10.84H39.072L38.2049 8.63641L37.3488 10.84Z" fill="white"/>
<path d="M46.6005 11.5928L48.5128 6.45459H50.992L47.8012 14.091H45.333L42.1533 6.45459H44.6881L46.6005 11.5928Z" fill="white"/>
<path d="M59.3743 14.091H56.8617L56.3614 12.7382H53.3485L52.8482 14.091H50.4023L53.6932 6.45459H56.0723L59.3743 14.091ZM53.9933 10.84H55.7166L54.8494 8.63641L53.9933 10.84Z" fill="white"/>
</g>
<defs>
<linearGradient id="paint0_linear_382_2" x1="10.1912" y1="0" x2="10.1912" y2="20" gradientUnits="userSpaceOnUse">
<stop stop-color="#EF3F51"/>
<stop offset="1" stop-color="#FC6743"/>
</linearGradient>
<clipPath id="clip0_382_2">
<rect width="60" height="20" fill="white"/>
</clipPath>
</defs>
</svg>
