<svg width="239" height="64" viewBox="0 0 239 64" fill="none" xmlns="http://www.w3.org/2000/svg">
<g clip-path="url(#clip0_183_3931)">
<path fill-rule="evenodd" clip-rule="evenodd" d="M17.5371 51.8461C22.9532 56.246 29.21 58.7535 35.8828 58.7535C45.8058 58.7535 54.8137 53.1919 61.4984 44.1334C58.6759 40.3098 55.4406 37.1071 51.8933 34.6858L46.1979 37.529C47.422 39.4334 48.135 41.7002 48.135 44.1334C48.135 50.8924 42.6506 56.3708 35.8828 56.3708C30.6242 56.3708 26.141 53.0612 24.403 48.4146L17.5371 51.8431V51.8461ZM31.667 44.79C31.8036 45.6783 32.2196 46.5043 32.8643 47.149C33.6635 47.9482 34.7508 48.3968 35.8828 48.3938C38.2387 48.3938 40.1491 46.4864 40.1491 44.1334C40.1491 42.9777 39.6886 41.929 38.9399 41.1595L31.6699 44.79H31.667Z" fill="#2BAD72"/>
<path d="M19.0882 44.038L60.6014 24.082L51.4776 5.10352L46.7656 21.8746L41.103 10.0918L36.3881 26.8628L30.7254 15.08L26.0105 31.8511L20.3479 20.0682L15.633 36.8393L9.97035 25.0565L2.36768 52.0774L12.7452 47.0891L19.0882 44.0409V44.038Z" fill="#2BAD72"/>
</g>
<path d="M84 48V23.0146H89.2979V43.625H99.4321V48H84Z" fill="#2BAD72"/>
<path d="M107.533 38.4126C107.533 40.3039 107.84 41.7337 108.456 42.7021C109.082 43.6706 110.096 44.1548 111.498 44.1548C112.888 44.1548 113.884 43.6763 114.488 42.7192C115.104 41.7508 115.411 40.3153 115.411 38.4126C115.411 36.5213 115.104 35.1029 114.488 34.1572C113.873 33.2116 112.865 32.7388 111.463 32.7388C110.073 32.7388 109.071 33.2116 108.456 34.1572C107.84 35.0915 107.533 36.5099 107.533 38.4126ZM120.743 38.4126C120.743 41.5229 119.923 43.9554 118.282 45.71C116.642 47.4645 114.357 48.3418 111.429 48.3418C109.595 48.3418 107.977 47.943 106.576 47.1455C105.174 46.3366 104.098 45.1802 103.346 43.6763C102.594 42.1724 102.218 40.4178 102.218 38.4126C102.218 35.2909 103.032 32.8641 104.662 31.1323C106.291 29.4006 108.581 28.5347 111.532 28.5347C113.366 28.5347 114.984 28.9334 116.385 29.731C117.787 30.5285 118.863 31.6735 119.615 33.166C120.367 34.6585 120.743 36.4074 120.743 38.4126Z" fill="#2BAD72"/>
<path d="M130.262 48H125.05V21.4082H130.262V48Z" fill="#2BAD72"/>
<path d="M149.044 48H133.954V44.9238L142.806 32.8755H134.483V28.8936H148.736V32.2773L140.123 44.0181H149.044V48Z" fill="#2BAD72"/>
<path d="M160.887 44.189C161.799 44.189 162.892 43.9896 164.168 43.5908V47.4702C162.87 48.0513 161.275 48.3418 159.383 48.3418C157.298 48.3418 155.777 47.8177 154.82 46.7695C153.875 45.71 153.402 44.1263 153.402 42.0186V32.8071H150.907V30.6025L153.778 28.8594L155.282 24.8262H158.614V28.8936H163.963V32.8071H158.614V42.0186C158.614 42.7591 158.819 43.306 159.229 43.6592C159.651 44.0124 160.204 44.189 160.887 44.189Z" fill="#2BAD72"/>
<path d="M175.96 32.2432C174.855 32.2432 173.989 32.5964 173.363 33.3027C172.736 33.9977 172.377 34.9889 172.286 36.2764H179.601C179.578 34.9889 179.242 33.9977 178.592 33.3027C177.943 32.5964 177.066 32.2432 175.96 32.2432ZM176.695 48.3418C173.619 48.3418 171.215 47.493 169.483 45.7954C167.752 44.0978 166.886 41.6938 166.886 38.5835C166.886 35.382 167.683 32.9097 169.278 31.1665C170.885 29.4119 173.101 28.5347 175.926 28.5347C178.626 28.5347 180.729 29.3037 182.232 30.8418C183.736 32.3799 184.488 34.5047 184.488 37.2163V39.7456H172.167C172.223 41.2267 172.662 42.3831 173.482 43.2148C174.303 44.0465 175.453 44.4624 176.935 44.4624C178.085 44.4624 179.173 44.3428 180.199 44.1035C181.224 43.8643 182.295 43.4826 183.412 42.9585V46.9917C182.5 47.4474 181.526 47.7835 180.489 48C179.452 48.2279 178.188 48.3418 176.695 48.3418Z" fill="#2BAD72"/>
<path d="M200.86 48L199.852 45.4023H199.715C198.838 46.5075 197.932 47.2765 196.998 47.7095C196.075 48.131 194.868 48.3418 193.375 48.3418C191.541 48.3418 190.094 47.8177 189.034 46.7695C187.986 45.7214 187.462 44.2288 187.462 42.292C187.462 40.264 188.168 38.7715 189.581 37.8145C191.005 36.846 193.147 36.3105 196.007 36.208L199.322 36.1055V35.2681C199.322 33.3312 198.331 32.3628 196.349 32.3628C194.822 32.3628 193.028 32.8242 190.965 33.7471L189.239 30.2266C191.438 29.0758 193.876 28.5005 196.554 28.5005C199.117 28.5005 201.083 29.0588 202.45 30.1753C203.817 31.2918 204.5 32.9894 204.5 35.2681V48H200.86ZM199.322 39.1475L197.306 39.2158C195.79 39.2614 194.662 39.5348 193.922 40.0361C193.181 40.5374 192.811 41.3008 192.811 42.3262C192.811 43.7959 193.654 44.5308 195.34 44.5308C196.548 44.5308 197.511 44.1833 198.229 43.4883C198.958 42.7933 199.322 41.8704 199.322 40.7197V39.1475Z" fill="#2BAD72"/>
<path d="M226.991 48H221.778V36.8403C221.778 35.4618 221.545 34.4307 221.078 33.7471C220.622 33.0521 219.898 32.7046 218.907 32.7046C217.574 32.7046 216.606 33.1945 216.002 34.1743C215.398 35.1541 215.096 36.7663 215.096 39.0107V48H209.884V28.8936H213.866L214.566 31.3374H214.857C215.37 30.4601 216.11 29.7765 217.079 29.2866C218.047 28.7853 219.158 28.5347 220.411 28.5347C223.271 28.5347 225.208 29.4689 226.222 31.3374H226.683C227.196 30.4487 227.948 29.7594 228.939 29.2695C229.942 28.7796 231.069 28.5347 232.323 28.5347C234.487 28.5347 236.122 29.0929 237.228 30.2095C238.344 31.3146 238.902 33.092 238.902 35.5415V48H233.673V36.8403C233.673 35.4618 233.439 34.4307 232.972 33.7471C232.516 33.0521 231.793 32.7046 230.802 32.7046C229.526 32.7046 228.569 33.1603 227.931 34.0718C227.304 34.9832 226.991 36.4302 226.991 38.4126V48Z" fill="#2BAD72"/>
<defs>
<clipPath id="clip0_183_3931">
<rect width="59.1279" height="53.6495" fill="white" transform="translate(2.36719 5.10376)"/>
</clipPath>
</defs>
</svg>