<svg width="62" height="12" viewBox="0 0 62 12" fill="none" xmlns="http://www.w3.org/2000/svg">
<path fill-rule="evenodd" clip-rule="evenodd" d="M57.5875 0.161133C60.174 0.161133 60.174 4.03138 57.5875 4.03138C55.0105 4.04089 55.0105 0.161133 57.5875 0.161133ZM17.1829 0.684139C17.4396 0.684139 17.6678 0.731686 17.8485 0.836287C18.0197 0.940888 18.1148 1.08353 18.1243 1.25469C18.1148 1.34978 18.0672 1.43537 18.0102 1.50193C17.9436 1.55899 17.8485 1.59702 17.7534 1.58751C17.7154 1.58751 17.6774 1.578 17.6393 1.55898C17.5918 1.53997 17.5537 1.52095 17.5252 1.48291C17.4301 1.3688 17.335 1.28322 17.2019 1.18813C17.0688 1.10254 16.9166 1.055 16.7645 1.06451C16.6218 1.06451 16.4982 1.11205 16.3746 1.20715C16.2605 1.29273 16.1559 1.42586 16.0893 1.58751C15.9847 1.92984 15.9182 2.29119 15.8991 2.65254C15.8801 2.84273 15.8801 3.03291 15.8801 3.18506V3.47033C15.8801 3.58444 15.8801 3.66052 15.8991 3.69855C15.9182 3.73659 15.9657 3.75561 16.0513 3.73659H17.1353C17.1734 3.77463 17.1829 3.81267 17.1829 3.87923L17.1639 4.01236L17.1544 4.0504C17.1258 4.08843 17.0973 4.11696 17.0498 4.13598H16.0418C15.9562 4.12647 15.9086 4.155 15.8896 4.19303C15.8706 4.22156 15.8706 4.29763 15.8706 4.41174V6.43721C15.8706 6.65592 15.8706 6.82708 15.8896 6.94119C15.9086 7.0553 15.9372 7.14089 15.9847 7.18843C16.0323 7.22647 16.1274 7.255 16.2415 7.26451L16.5743 7.29303C16.6123 7.32156 16.6313 7.35009 16.6123 7.41665C16.6028 7.4642 16.5838 7.51175 16.5648 7.53077L16.0132 7.49273H15.0338L14.6059 7.53077C14.5678 7.50224 14.5583 7.4642 14.5393 7.41665C14.5393 7.35009 14.5583 7.31205 14.5964 7.29303L14.8151 7.26451C14.9292 7.255 15.0053 7.22647 15.0623 7.16941C15.1194 7.13138 15.1384 7.0553 15.1574 6.93168C15.1859 6.81757 15.1859 6.64641 15.1669 6.4277V4.40224C15.1764 4.28813 15.1764 4.21205 15.1574 4.19303C15.1384 4.155 15.0718 4.12647 14.9863 4.13598H14.6439C14.6154 4.10745 14.6059 4.08843 14.6059 4.05991C14.5964 4.02187 14.6059 3.98383 14.6154 3.9553L15.0243 3.75561C15.0623 3.7461 15.0909 3.71758 15.1194 3.68905C15.1479 3.65101 15.1574 3.61297 15.1574 3.56543C15.1574 2.98536 15.262 2.41481 15.4617 1.8823C15.5473 1.70162 15.6614 1.52095 15.7945 1.33076C15.9467 1.14058 16.1464 0.988433 16.3556 0.874323C16.6218 0.760213 16.8976 0.684139 17.1829 0.684139ZM24.4004 4.0504C24.4099 4.08843 24.4289 4.11696 24.4479 4.14549H24.7047C24.7997 4.13598 24.8568 4.16451 24.8853 4.20254C24.9044 4.23107 24.9139 4.30714 24.9139 4.42125V6.59886C24.9044 6.78905 24.9234 6.96972 24.9804 7.11236C25.047 7.26451 25.1326 7.39764 25.2752 7.48322C25.6651 7.68291 26.131 7.6734 26.5209 7.47371C26.6921 7.37862 26.8157 7.29303 26.8918 7.17892C26.9013 7.1504 26.9013 7.13138 26.8728 7.08383C26.8632 7.04579 26.8347 7.02678 26.7967 7.02678C26.7872 7.02678 26.7491 7.0553 26.6921 7.08383C26.6445 7.11236 26.597 7.14089 26.5494 7.1504C26.5304 7.15991 26.5114 7.16941 26.5019 7.17892C26.4829 7.18843 26.4639 7.19794 26.4544 7.20745C26.3973 7.21696 26.3497 7.21696 26.3212 7.21696C26.1215 7.20745 25.9599 7.15991 25.8648 7.0553C25.7507 6.9507 25.6841 6.81757 25.6651 6.66543C25.627 6.51328 25.6175 6.34211 25.6175 6.15193V4.38322C25.6175 4.29764 25.6366 4.23107 25.6556 4.19303C25.6651 4.155 25.7126 4.14549 25.8077 4.155H26.8537C26.9013 4.11696 26.9298 4.0504 26.9298 3.96481C26.9488 3.87923 26.9203 3.80316 26.8537 3.76512H25.8077C25.7317 3.76512 25.6841 3.75561 25.6651 3.73659C25.6556 3.72708 25.6366 3.67954 25.6366 3.58445V3.14702C25.6175 3.10899 25.5795 3.08997 25.532 3.09948C25.4844 3.08046 25.4464 3.08046 25.4274 3.09948C25.3703 3.20408 25.3037 3.29917 25.2372 3.40377C25.1801 3.49886 25.1136 3.57493 25.028 3.65101C24.9804 3.69855 24.9044 3.75561 24.7807 3.80316C24.6761 3.86972 24.562 3.90776 24.4194 3.94579C24.4099 3.97432 24.4004 4.01236 24.4004 4.0504ZM20.378 4.72555C20.378 4.80162 20.378 4.85868 20.3685 4.89671L20.3494 4.93475L20.3399 4.9823C20.3304 5.00132 20.2924 5.02033 20.1973 5.02984C20.1022 5.03935 19.9596 5.03935 19.7694 5.03935H18.0102C17.8961 5.02033 17.8295 5.03935 17.801 5.06788C17.7629 5.10592 17.7534 5.18199 17.7629 5.2961C17.7629 5.61942 17.8295 5.90469 17.9436 6.18046C18.1813 6.7415 18.7424 7.09334 19.3415 7.06481C19.4936 7.08383 19.6363 7.03628 19.7599 6.97923C19.912 6.91267 20.0547 6.79856 20.1973 6.60837C20.2639 6.58935 20.3019 6.60837 20.3304 6.61788C20.359 6.64641 20.3685 6.68445 20.3875 6.72248C20.2639 6.92218 20.1402 7.09334 19.9691 7.23598C19.4175 7.64487 18.6853 7.72095 18.0672 7.43567C17.8485 7.33107 17.6488 7.17892 17.5062 6.98874C17.2399 6.6369 17.1068 6.19948 17.1163 5.75254C17.1163 5.35316 17.1924 5.00132 17.3445 4.678C17.6488 4.03138 18.2955 3.62248 19.0086 3.60346C19.2939 3.61297 19.5412 3.66052 19.7409 3.76512C19.931 3.87923 20.0927 4.02187 20.2068 4.19303C20.3304 4.3642 20.378 4.54488 20.378 4.72555ZM19.6553 4.48782C19.6553 4.40224 19.6267 4.30715 19.5887 4.21205C19.5412 4.11696 19.4556 4.04089 19.351 4.00285C19.2178 3.92678 19.0657 3.89825 18.9231 3.89825C18.7329 3.89825 18.5427 3.94579 18.4001 4.04089C18.2384 4.13598 18.1053 4.24058 18.0007 4.37371C17.9151 4.48782 17.858 4.60193 17.8485 4.71604C17.8485 4.73506 17.8485 4.73506 17.858 4.74457C17.8771 4.76359 17.8866 4.76359 17.9246 4.76359H18.5902C18.9421 4.76359 19.1893 4.74457 19.3415 4.73506C19.4841 4.71604 19.5602 4.70653 19.5887 4.68751C19.6077 4.6685 19.6267 4.64948 19.6267 4.62095C19.6458 4.5734 19.6553 4.53537 19.6553 4.48782ZM23.4019 3.6415C22.8123 3.5369 22.2132 3.63199 21.6807 3.92678C21.3669 4.11696 21.1007 4.39273 20.92 4.71604C20.6442 5.27708 20.6062 5.93322 20.8249 6.52279C20.9295 6.77003 21.0626 6.96972 21.2243 7.12187C21.3955 7.29303 21.5951 7.40714 21.8139 7.47371C22.2323 7.63537 22.6887 7.65438 23.1166 7.51175C23.3068 7.45469 23.5065 7.33107 23.6967 7.18843C23.8774 7.0458 24.02 6.85561 24.1246 6.62739C24.1151 6.58935 24.0961 6.55132 24.0675 6.5323C24.039 6.49426 24.001 6.47524 23.9534 6.49426C23.8488 6.65592 23.7157 6.78905 23.554 6.90316C23.3924 7.00776 23.1832 7.0553 22.9074 7.0553C22.3178 7.07432 21.7758 6.73199 21.5381 6.18997C21.424 5.95224 21.3574 5.705 21.3574 5.43874C21.3764 5.09641 21.4335 4.81113 21.5476 4.58291C21.6712 4.3642 21.8424 4.19303 22.0421 4.07892C22.2323 3.96481 22.451 3.90776 22.6697 3.90776C22.8599 3.90776 23.0596 3.9553 23.2307 4.05991C23.3924 4.155 23.516 4.2596 23.6301 4.39273C23.6586 4.42126 23.6777 4.44027 23.7062 4.44978H23.7728C23.8298 4.44978 23.8774 4.41175 23.9154 4.34518C23.9534 4.27862 23.982 4.19303 23.982 4.09794C23.982 4.02187 23.9724 3.9458 23.9439 3.87923C23.9154 3.82218 23.8869 3.76512 23.8298 3.72708C23.6967 3.71757 23.554 3.68905 23.4019 3.6415ZM53.1942 3.69855C53.1562 3.70806 53.1372 3.75561 53.1277 3.80316C53.1277 3.86972 53.1372 3.90776 53.1657 3.92678L53.4605 3.97432C53.5461 3.99334 53.6031 4.01236 53.6412 4.04089C53.6792 4.06941 53.6982 4.08843 53.6982 4.13598C53.6982 4.19303 53.6697 4.30714 53.6031 4.4688L53.5936 4.49733L53.3559 5.09641L53.0326 5.85714L53.0136 5.90469L52.8044 6.35162C52.7378 6.49426 52.6998 6.55132 52.6807 6.55132C52.5951 6.37064 52.5096 6.18997 52.443 5.99978L52.405 5.88567L52.1102 5.01083L52.1007 4.9823C52.0626 4.89671 52.0341 4.81113 52.0151 4.72555L51.958 4.55438L51.901 4.37371C51.8724 4.28813 51.8534 4.20254 51.8534 4.11696C51.8534 4.08843 51.8629 4.0599 51.8915 4.04089H51.901L51.92 4.03138C51.9485 4.02187 51.9961 4.00285 52.0531 3.99334L52.2909 3.94579C52.3289 3.91727 52.3384 3.88874 52.3289 3.82218C52.3289 3.77463 52.3004 3.72708 52.2718 3.71757C52.2053 3.72708 52.1292 3.72708 52.0626 3.72708L51.8439 3.7461H50.9881C50.912 3.73659 50.8359 3.73659 50.7599 3.72708L50.5412 3.71757C50.5031 3.72708 50.4746 3.77463 50.4746 3.82218C50.4651 3.88874 50.4746 3.92678 50.5031 3.94579L50.7504 3.99334C50.9215 4.03138 51.0356 4.10745 51.1022 4.23107C51.1688 4.34518 51.2448 4.51635 51.3019 4.73506L52.0626 6.77954C52.1197 6.9507 52.1672 7.07432 52.1863 7.16941V7.17892C52.1958 7.26451 52.2148 7.35009 52.2148 7.43567C52.2148 7.50224 52.1958 7.57831 52.1767 7.65438C52.1672 7.71144 52.1482 7.7685 52.1292 7.82555V7.83506L52.1197 7.84457C52.0816 7.95868 52.0056 8.11083 51.92 8.28199C51.8249 8.47218 51.7108 8.68138 51.5682 8.90009C51.5301 8.94764 51.4921 8.98567 51.4445 9.02371C51.3875 9.05224 51.3209 9.06175 51.2544 9.06175H51.0737C50.9691 9.06175 50.8835 9.09978 50.8074 9.16635C50.7409 9.24242 50.7028 9.34702 50.6933 9.45162C50.6933 9.56573 50.7313 9.67033 50.8074 9.74641C50.8835 9.81297 50.9881 9.85101 51.1117 9.85101C51.2353 9.87003 51.3399 9.8415 51.435 9.77494C51.5491 9.71788 51.6347 9.58475 51.7298 9.40408L51.882 9.07125L52.1292 8.53874L52.3004 8.15837L52.5666 7.59733C52.6997 7.28352 52.8329 6.99825 52.966 6.73199L52.9755 6.70346C53.1086 6.44671 53.2132 6.228 53.2798 6.05684L53.8123 4.97279C53.9835 4.63997 54.1071 4.39273 54.2212 4.24058C54.3448 4.08843 54.478 3.99334 54.6206 3.9553L54.7918 3.92678C54.8298 3.88874 54.8393 3.8507 54.8393 3.80316C54.8203 3.75561 54.8013 3.70806 54.7632 3.69855L54.5826 3.70806L54.4019 3.72708H53.6317L53.4034 3.70806L53.1942 3.69855ZM12.7136 3.48935C12.7326 3.50837 12.7326 3.52739 12.7421 3.54641V4.08843C12.7421 4.12647 12.7611 4.16451 12.7706 4.18352C12.9418 4.04089 13.1224 3.89825 13.3031 3.78414C13.4648 3.67003 13.6455 3.61297 13.8261 3.60346C13.9402 3.62248 14.0448 3.65101 14.1209 3.71757C14.216 3.78414 14.2445 3.86972 14.2445 4.00285C14.235 4.13598 14.178 4.2596 14.1019 4.33567C14.0258 4.39273 13.9307 4.42126 13.8356 4.43076C13.7786 4.43076 13.7405 4.43076 13.712 4.41174C13.7025 4.41174 13.693 4.40224 13.6835 4.39273C13.6645 4.38322 13.6455 4.3642 13.6264 4.35469C13.5599 4.30715 13.4838 4.26911 13.4077 4.24058C13.3412 4.21205 13.2746 4.20254 13.208 4.20254C13.1415 4.19303 13.0749 4.21205 13.0178 4.2596C12.9608 4.28813 12.9132 4.34518 12.8752 4.40224C12.8372 4.4688 12.7896 4.55438 12.7706 4.69702C12.7611 4.82064 12.7421 4.96328 12.7421 5.13444V6.4277C12.7421 6.64641 12.7421 6.81757 12.7611 6.93168C12.7706 7.04579 12.8086 7.13138 12.8752 7.17892C12.9132 7.21696 12.9988 7.24549 13.1129 7.255L13.4648 7.28353C13.5028 7.31205 13.5123 7.34058 13.5028 7.40714C13.5028 7.45469 13.4838 7.50224 13.4553 7.52126L12.8942 7.48322H11.9243L11.5154 7.52126C11.4869 7.49273 11.4774 7.45469 11.4678 7.40714C11.4488 7.34058 11.4678 7.30254 11.5059 7.28353L11.6961 7.255C11.8007 7.24549 11.8767 7.20745 11.9243 7.15991C11.9718 7.12187 12.0194 7.0458 12.0289 6.92218C12.0479 6.80807 12.0479 6.6369 12.0289 6.41819V4.76359C12.0479 4.63997 12.0479 4.56389 12.0289 4.49733C12.0289 4.43077 12.0099 4.3642 11.9718 4.31665C11.9243 4.2596 11.8577 4.22156 11.7912 4.19303L11.6961 4.11696C11.6866 4.09794 11.6675 4.07892 11.6675 4.04089C11.6675 4.00285 11.6771 3.9553 11.7151 3.94579L11.7436 3.93628C11.8577 3.89825 11.9718 3.84119 12.0764 3.78414L12.3522 3.65101L12.3617 3.6415C12.4853 3.58445 12.5899 3.5369 12.6565 3.47984C12.685 3.47984 12.704 3.47984 12.7136 3.48935ZM11.2111 4.89671C11.2206 4.85868 11.2206 4.79211 11.2206 4.72555C11.2206 4.53537 11.1636 4.35469 11.0494 4.18352C10.9258 4.01236 10.7737 3.86972 10.593 3.75561C10.3933 3.65101 10.1461 3.60346 9.8703 3.59396C9.51846 3.60346 9.16662 3.70806 8.86233 3.89825C8.57705 4.08843 8.35834 4.34518 8.19668 4.65898C7.93993 5.20101 7.89239 5.8096 8.05404 6.38015C8.17766 6.83659 8.48196 7.21696 8.90987 7.41665C9.15711 7.53076 9.43288 7.57831 9.74668 7.59733C10.1366 7.58782 10.5169 7.45469 10.8307 7.22647C11.0019 7.08383 11.1255 6.92218 11.2396 6.71297C11.2301 6.67494 11.2206 6.62739 11.1921 6.60837C11.154 6.58935 11.1065 6.58935 11.0685 6.59886C10.8688 6.88414 10.5455 7.0553 10.1936 7.0553C9.59454 7.08383 9.03349 6.73199 8.80527 6.17095C8.68165 5.89518 8.6246 5.59089 8.6246 5.28659C8.61509 5.17248 8.6246 5.09641 8.66263 5.05837C8.69116 5.02984 8.75773 5.02033 8.86233 5.02984H10.6215C10.8117 5.02984 10.9544 5.02984 11.0494 5.01083C11.1445 5.00132 11.1731 4.9823 11.1921 4.96328L11.2016 4.91573C11.2016 4.93475 11.2016 4.91573 11.2111 4.89671ZM10.4313 4.22156C10.4789 4.31665 10.4979 4.40224 10.4789 4.49733C10.4789 4.56389 10.4789 4.60193 10.4694 4.62095C10.4599 4.65899 10.4409 4.6685 10.4313 4.68751C10.4028 4.71604 10.3172 4.72555 10.1746 4.73506C10.032 4.74457 9.78472 4.76359 9.44239 4.76359H8.76723C8.7292 4.76359 8.71969 4.76359 8.71018 4.74457C8.69116 4.73506 8.69116 4.73506 8.69116 4.71604C8.71018 4.60193 8.75773 4.48782 8.84331 4.37371C8.94791 4.24058 9.07153 4.12647 9.24269 4.04089C9.39484 3.94579 9.57552 3.89825 9.75619 3.89825C9.95589 3.89825 10.089 3.93629 10.2031 4.00285C10.3172 4.05991 10.4028 4.13598 10.4313 4.22156ZM43.628 3.48935C43.5994 3.47034 43.5709 3.47033 43.5614 3.47033C43.4758 3.5369 43.3807 3.59396 43.2951 3.6415L43.143 3.71757C42.9718 3.80316 42.7912 3.88874 42.62 3.94579C42.5915 3.9553 42.582 3.99334 42.582 4.04089C42.582 4.07892 42.5915 4.09794 42.6105 4.11696L42.6961 4.16451L42.7531 4.20254C42.8007 4.25009 42.8577 4.28813 42.8767 4.31665C42.9148 4.3642 42.9243 4.39273 42.9243 4.44027L42.9338 4.44978C42.9433 4.49733 42.9433 4.60193 42.9433 4.70653V6.43721C42.9528 6.65592 42.9433 6.82708 42.9243 6.94119C42.9148 7.0553 42.8863 7.13138 42.8387 7.17892C42.7912 7.22647 42.7151 7.255 42.5915 7.27402L42.3918 7.30254C42.3632 7.33107 42.3537 7.3596 42.3632 7.42616C42.3632 7.47371 42.3728 7.52126 42.4108 7.54027L42.8292 7.50224H43.7706L44.151 7.54027C44.189 7.51175 44.208 7.47371 44.208 7.42616C44.208 7.3596 44.1985 7.32156 44.17 7.30254L43.9988 7.27402C43.8847 7.26451 43.7991 7.22647 43.7421 7.17892C43.685 7.11236 43.6565 7.02678 43.647 6.94119C43.6375 6.82708 43.6375 6.65592 43.6375 6.43721V4.9823C43.6375 4.76359 43.6375 4.58291 43.7611 4.40224C43.8182 4.30715 43.9418 4.22156 44.0939 4.155C44.2366 4.08843 44.3887 4.06942 44.5789 4.06942C44.8927 4.07892 45.1114 4.17402 45.254 4.33567C45.3967 4.52586 45.4728 4.7731 45.4537 5.01083V6.43721C45.4537 6.65592 45.4537 6.82708 45.4347 6.94119C45.4347 7.02678 45.3967 7.11236 45.3491 7.17892C45.2731 7.22647 45.1875 7.255 45.0924 7.27402L44.9117 7.30254C44.8832 7.33107 44.8737 7.3596 44.8737 7.42616C44.8832 7.47371 44.9022 7.52126 44.9307 7.54027L45.3396 7.50224H46.2715L46.5378 7.53077L46.709 7.54978C46.7375 7.52125 46.7565 7.48322 46.7755 7.43567C46.7755 7.36911 46.7565 7.33107 46.728 7.31205L46.5283 7.28353C46.4332 7.28353 46.3476 7.24549 46.2715 7.18843C46.2145 7.12187 46.1859 7.03629 46.1764 6.9507C46.1669 6.83659 46.1669 6.66543 46.1669 6.44672V4.80162C46.1669 4.58291 46.1289 4.39273 46.0528 4.22156C45.9767 4.04089 45.8531 3.88874 45.701 3.78414C45.5298 3.67954 45.3301 3.63199 45.0639 3.61297C44.8166 3.63199 44.5884 3.67954 44.3697 3.76512C44.151 3.86021 43.9323 3.97432 43.7231 4.09794C43.6945 4.09794 43.6755 4.08843 43.666 4.06942C43.647 4.0504 43.647 4.03138 43.6375 4.01236V3.82218C43.6375 3.75561 43.6375 3.67003 43.647 3.56543C43.6565 3.5369 43.647 3.50837 43.628 3.48935ZM42.2206 5.56236C42.2206 5.93322 42.135 6.30408 41.9639 6.62739C41.8022 6.93169 41.5455 7.17893 41.2507 7.35009C40.9274 7.52126 40.566 7.60684 40.1952 7.60684C39.8528 7.60684 39.5105 7.52125 39.2062 7.36911C38.9209 7.21696 38.6927 6.98874 38.5215 6.70346C38.3313 6.38966 38.2363 6.02831 38.2553 5.65745C38.2553 5.24856 38.3409 4.89672 38.5215 4.59242C38.6927 4.28813 38.9494 4.04089 39.2537 3.87923C39.5485 3.70807 39.9004 3.62248 40.2807 3.61297C40.6136 3.62248 40.9464 3.69856 41.2507 3.8507C41.5455 4.02187 41.7737 4.25009 41.9448 4.54488C42.116 4.83966 42.2111 5.18199 42.2206 5.56236ZM41.2887 4.8872C41.2031 4.60193 41.07 4.37371 40.8893 4.19303C40.7182 4.00285 40.4804 3.89825 40.1856 3.89825C39.8623 3.89825 39.5961 4.04089 39.3964 4.33567C39.1967 4.60193 39.0921 5.01083 39.0731 5.53383C39.0731 5.82862 39.1206 6.11389 39.2157 6.39917C39.3013 6.67494 39.4344 6.88414 39.6246 7.06481C39.7958 7.23598 40.024 7.32156 40.3093 7.32156C40.585 7.32156 40.7942 7.24549 40.9654 7.07432C41.2697 6.68444 41.4218 6.20899 41.4028 5.71451C41.4123 5.43874 41.3743 5.15346 41.2887 4.8872ZM47.6218 5.07739C47.6599 5.04886 47.7264 5.03935 47.8501 5.04886H49.6378C49.828 5.04886 49.9706 5.04886 50.0562 5.02984C50.2369 5.00132 50.2369 4.89672 50.2369 4.72555C50.2369 4.53537 50.1703 4.35469 50.0562 4.18352C49.9516 4.02187 49.7994 3.87923 49.5997 3.75561C49.3905 3.65101 49.1433 3.60346 48.858 3.59396C48.1448 3.60346 47.4887 4.02187 47.1749 4.65898C46.804 5.4007 46.8611 6.28506 47.3366 6.96972C47.4792 7.1504 47.6599 7.30254 47.8976 7.41665C48.1448 7.53076 48.4206 7.57831 48.7249 7.59733C49.1148 7.58782 49.4952 7.4642 49.8185 7.22647C49.9896 7.08383 50.1323 6.92218 50.2559 6.71297C50.2369 6.67494 50.2274 6.62739 50.1893 6.60837C50.1608 6.59886 50.1228 6.57984 50.0562 6.59886C49.9136 6.78905 49.7709 6.90316 49.6283 6.96972C49.5047 7.02678 49.362 7.07432 49.1813 7.0553C48.8295 7.0553 48.5442 6.97923 48.316 6.80807C48.0783 6.65592 47.8976 6.4372 47.774 6.17095C47.6313 5.85714 47.5648 5.52432 47.5838 5.18199C47.5743 5.14395 47.5933 5.10592 47.6218 5.07739ZM47.7455 4.76359C47.7169 4.76359 47.7074 4.76359 47.6979 4.74457L47.6789 4.73506V4.71604C47.6979 4.60193 47.7455 4.48782 47.831 4.37371C47.9356 4.24058 48.0688 4.12647 48.2209 4.04089C48.3731 3.94579 48.5632 3.89825 48.7534 3.89825C48.9341 3.89825 49.0767 3.93629 49.1813 4.00285C49.2859 4.04089 49.3715 4.11696 49.4286 4.21205C49.4666 4.30715 49.4952 4.39273 49.4856 4.48782C49.4856 4.55438 49.4856 4.59242 49.4761 4.61144C49.4666 4.64948 49.4476 4.65899 49.4381 4.678C49.4096 4.70653 49.324 4.71604 49.1718 4.72555C49.0292 4.73506 48.7725 4.75408 48.4206 4.75408H47.7455V4.76359ZM30.8951 1.19764H31.2375C31.5037 1.19764 31.77 1.18813 32.0363 1.16911C32.0267 1.35929 32.0648 1.58751 32.1504 1.86328C32.255 2.12954 32.3786 2.42432 32.5212 2.73813L33.6148 4.92524L33.7099 5.12493C33.881 5.5053 34.0617 5.87616 34.2614 6.24702H34.2899C34.4326 6.0188 34.5562 5.79058 34.6703 5.53383L34.8129 5.23905L35.0126 4.80162L35.916 2.98536L36.2678 2.24365L36.42 1.91083C36.5436 1.62555 36.6197 1.37831 36.6292 1.16911C36.8669 1.18813 37.0952 1.19764 37.3424 1.19764H37.7418L37.97 1.17862L38.1982 1.16911C38.2267 1.19764 38.2363 1.22616 38.2363 1.27371C38.2553 1.33076 38.2363 1.37831 38.2077 1.39733L38.0175 1.40684C37.8178 1.43537 37.6562 1.46389 37.5706 1.52095C37.4755 1.58751 37.409 1.69211 37.3899 1.80622C37.3614 1.97739 37.3424 2.14855 37.3519 2.31972V3.54641L37.3804 4.23107L37.409 5.02034V5.02984C37.428 5.64794 37.447 6.26604 37.485 6.88414C37.5136 7.12187 37.7132 7.22647 37.9224 7.24549L38.2267 7.27402C38.2553 7.31205 38.2648 7.35009 38.2553 7.39764C38.2553 7.45469 38.2363 7.49273 38.2077 7.52126L37.6277 7.48322H36.5151L36.1252 7.51175L35.916 7.53077C35.878 7.50224 35.859 7.45469 35.8685 7.40714C35.859 7.34058 35.8685 7.30254 35.897 7.28353L36.1823 7.255C36.4105 7.23598 36.6007 7.16942 36.6387 6.92218C36.6482 6.80807 36.6672 6.65592 36.6482 6.44672L36.6197 2.47187H36.6102C36.3915 2.80469 36.1823 3.26113 35.9921 3.68905C35.8875 3.90776 35.7829 4.13598 35.6878 4.32616L35.1648 5.37217L34.87 5.93322L34.7274 6.20899C34.6037 6.46573 34.4896 6.71297 34.3755 6.96972C34.2709 7.16942 34.2044 7.34058 34.1378 7.49273L34.1093 7.54978L34.0902 7.55929C34.0807 7.55929 34.0807 7.5688 34.0807 7.57831C34.0617 7.58782 34.0427 7.58782 34.0142 7.58782L33.9761 7.57831C33.9761 7.5688 33.9666 7.5688 33.9666 7.55929C33.9571 7.55929 33.9476 7.54978 33.9476 7.54978C33.9001 7.36911 33.824 7.1599 33.7099 6.93168C33.6053 6.69395 33.4912 6.45622 33.3771 6.228C33.2725 5.99027 33.1869 5.80009 33.1108 5.64794L32.2455 3.81267L31.9507 3.16604L31.9317 3.128C31.8461 2.88076 31.7415 2.66205 31.6369 2.44334H31.6083L31.5798 2.97586L31.5703 3.28966L31.5132 4.12647L31.4752 5.16297V5.17248C31.4657 5.57187 31.4467 5.96175 31.4467 6.35162C31.4277 6.58935 31.4467 6.76052 31.4847 6.89365C31.5037 7.00776 31.5418 7.09334 31.5988 7.1504C31.6654 7.20745 31.751 7.23598 31.8651 7.24549L32.2264 7.27402C32.2645 7.31205 32.274 7.35009 32.274 7.39764C32.274 7.45469 32.255 7.49273 32.2169 7.52126L31.7034 7.48322H30.6859L30.4958 7.50224L30.201 7.53077C30.1725 7.50224 30.1534 7.45469 30.1534 7.40714C30.1439 7.34058 30.1534 7.30254 30.1915 7.28353L30.3912 7.255C30.5148 7.23598 30.6194 7.20745 30.7145 7.15991C30.7905 7.12187 30.8571 7.0553 30.8951 6.96021C30.9332 6.85561 30.9617 6.68444 30.9807 6.46573L31.0093 6.16144L31.0378 5.85714L31.0568 5.6004C31.0663 5.47678 31.0853 5.34365 31.0853 5.1915L31.1044 4.93475C31.1139 4.76359 31.1329 4.58291 31.1329 4.38322L31.1424 4.32616C31.1899 3.6415 31.228 2.94733 31.247 2.26267C31.2565 2.07248 31.247 1.92033 31.2185 1.79671C31.1994 1.69211 31.1329 1.59702 31.0378 1.53997C30.9047 1.49242 30.762 1.44487 30.6194 1.42586L30.4672 1.41635C30.4387 1.37831 30.4292 1.33076 30.4387 1.29273C30.4482 1.23567 30.4672 1.19763 30.4958 1.18813C30.6384 1.17862 30.762 1.18813 30.8951 1.19764ZM3.62276 1.34978C3.60374 1.40684 3.63227 1.44487 3.6703 1.4734L4.00312 1.51144C4.14576 1.52095 4.25036 1.55899 4.30742 1.62555C4.37398 1.6731 4.41202 1.76819 4.42153 1.91083C4.44055 2.05346 4.45006 2.25316 4.45006 2.53843V4.44978C4.70681 4.45929 4.96355 4.45929 5.2203 4.44978V1.80622C5.20128 1.70162 5.2203 1.62555 5.24883 1.55898C5.25834 1.52095 5.30589 1.48291 5.37245 1.46389C5.44852 1.45438 5.57214 1.45438 5.75282 1.45438C6.2473 1.46389 6.61816 1.59702 6.88441 1.86328C7.14116 2.12954 7.27429 2.50991 7.27429 2.97586C7.2838 3.39426 7.18871 3.73659 6.96049 4.02187C6.7703 4.26911 6.48503 4.44978 6.09515 4.53537C5.72429 4.63046 5.19178 4.66849 4.47858 4.64947C3.86049 4.63997 3.18533 4.60193 2.45312 4.52586C3.27092 4.69702 3.87951 4.81113 4.25987 4.84917C4.88748 4.93475 5.51509 4.91573 6.09515 4.82064C6.37092 4.78261 6.64668 4.71604 6.91294 4.62095C7.16018 4.49733 7.39791 4.3642 7.62613 4.20254C7.76877 4.09794 7.9019 3.93629 8.0065 3.71757C8.33932 2.93782 8.08257 2.02494 7.39791 1.53046C7.15067 1.38782 6.88441 1.29273 6.60865 1.23567C6.31386 1.18813 5.96202 1.15009 5.56263 1.15009C5.17276 1.15009 4.82092 1.15009 4.51662 1.16911C4.21233 1.18813 3.92705 1.19764 3.67981 1.21665C3.64178 1.25469 3.62276 1.30224 3.62276 1.34978ZM5.2203 5.17248V6.07586C5.21079 6.39917 5.2203 6.6369 5.24883 6.80807C5.27736 6.97923 5.33441 7.07432 5.42951 7.14089C5.50558 7.19794 5.63871 7.24549 5.84791 7.255L6.10466 7.28353C6.13319 7.31205 6.1427 7.34058 6.1427 7.40714C6.13319 7.45469 6.11417 7.50224 6.09515 7.52126C5.86693 7.51175 5.63871 7.49273 5.41049 7.48322H4.27889L3.70834 7.52126C3.6703 7.49273 3.65128 7.45469 3.65128 7.40714C3.64178 7.3596 3.65128 7.31205 3.68932 7.28353L3.87951 7.255C4.06969 7.24549 4.19331 7.18843 4.25987 7.12187C4.34546 7.06481 4.40251 6.96972 4.41202 6.79856C4.44055 6.62739 4.45006 6.38015 4.45006 6.06635V5.12493C4.67828 5.17248 4.93503 5.18199 5.2203 5.17248Z" fill="#F01010"/>
<path fill-rule="evenodd" clip-rule="evenodd" d="M43.6191 11.1921V9.92736H43.4004V9.63258H43.6191V9.56601C43.6191 9.36632 43.6667 9.15712 43.8093 9.0335C43.9234 8.91939 44.0851 8.88135 44.2277 8.88135C44.3323 8.88135 44.4179 8.90037 44.4844 8.91939L44.4559 9.22368C44.3989 9.20466 44.3418 9.19515 44.2848 9.19515C44.0851 9.19515 44.0185 9.35681 44.0185 9.54699V9.62307H44.3703V9.91785H44.0185V11.1826H43.6191V11.1921ZM31.0194 9.06202H31.4093V10.4504C31.4093 11.0399 31.124 11.2396 30.6961 11.2396C30.582 11.2396 30.4489 11.2206 30.3633 11.1921L30.4108 10.8783C30.4679 10.8973 30.563 10.9163 30.6486 10.9163C30.8768 10.9163 31.0099 10.8117 31.0099 10.4409V9.06202H31.0194ZM33.4918 10.7452C33.4918 10.9353 33.5013 11.078 33.5108 11.2111H33.159L33.14 10.9734C33.0734 11.0875 32.9117 11.2396 32.6265 11.2396C32.3317 11.2396 32.0749 11.0685 32.0749 10.574V9.67061H32.4743V10.5074C32.4743 10.7642 32.5599 10.9258 32.7691 10.9258C32.9308 10.9258 33.0354 10.8117 33.0734 10.7261C33.0829 10.6881 33.1019 10.6501 33.1019 10.6025V9.68012H33.5013V10.7452H33.4918ZM34.5378 10.9544C34.4047 10.9544 34.2335 10.8973 34.1479 10.8402L34.0719 11.1255C34.186 11.1921 34.3476 11.2396 34.5378 11.2396C34.9467 11.2396 35.1654 11.0399 35.1654 10.7547C35.1654 10.5264 35.0323 10.3838 34.7565 10.2792C34.5568 10.2126 34.4903 10.1651 34.4903 10.0605C34.4903 9.9654 34.5664 9.89883 34.709 9.89883C34.8516 9.89883 34.9657 9.94638 35.0323 9.98442L35.1084 9.70865C35.0133 9.6611 34.8706 9.61356 34.6995 9.61356C34.3476 9.61356 34.1194 9.83227 34.1194 10.108C34.1194 10.2887 34.243 10.4504 34.5378 10.555C34.728 10.6215 34.7946 10.6691 34.7946 10.7737C34.7851 10.8878 34.7185 10.9544 34.5378 10.9544ZM36.221 9.23319V9.64208H36.6013V9.93687H36.221V10.631C36.221 10.8212 36.2685 10.9163 36.4206 10.9163C36.4777 10.9163 36.5252 10.9068 36.5823 10.8973L36.5918 11.2016C36.5348 11.2206 36.4302 11.2396 36.3065 11.2396C36.1734 11.2491 36.0498 11.2016 35.9547 11.1065C35.8691 11.0114 35.8311 10.8783 35.8311 10.6691V9.92736H35.6029V9.63258H35.8311V9.3473L36.221 9.23319ZM38.4651 10.6786C38.4556 10.6406 38.4461 10.612 38.4461 10.574V10.3363C38.4461 10.2982 38.4556 10.2697 38.4651 10.2317C38.5032 10.0605 38.6458 9.94638 38.817 9.93687C39.0737 9.93687 39.2068 10.1651 39.2068 10.4409C39.2068 10.7452 39.0547 10.9544 38.8075 10.9544C38.6458 10.9448 38.5032 10.8307 38.4651 10.6786ZM38.0372 9.6611L38.0467 10.1841V11.8577H38.4461V11.0494H38.4556C38.5412 11.1731 38.7029 11.2586 38.9025 11.2586C39.2544 11.2586 39.6157 10.9829 39.6157 10.4313C39.6157 9.94638 39.3114 9.63258 38.9501 9.63258C38.7124 9.63258 38.5317 9.73718 38.4176 9.90834H38.4081L38.3891 9.67061H38.0372V9.6611ZM41.1562 10.2697C41.1562 10.1271 41.0992 9.88932 40.8329 9.88932C40.5857 9.88932 40.4811 10.108 40.4621 10.2697H41.1562ZM40.4621 10.5455C40.4716 10.8307 40.6998 10.9448 40.947 10.9448C41.1277 10.9448 41.2608 10.9163 41.3844 10.8688L41.4415 11.135C41.3084 11.1921 41.1182 11.2301 40.8995 11.2301C40.386 11.2301 40.0912 10.9163 40.0912 10.4409C40.0912 10.0129 40.3575 9.61356 40.8519 9.61356C41.3654 9.61356 41.5271 10.032 41.5271 10.3648L41.5176 10.5264H40.4621V10.5455ZM42.0976 9.6611L42.1071 10.1556V11.1921H42.497V10.4028L42.5065 10.2792C42.5446 10.108 42.6682 9.99393 42.8584 9.99393C42.9059 9.99393 42.944 9.99393 42.9725 10.0034V9.63258C42.944 9.62307 42.9154 9.62307 42.8774 9.62307C42.7157 9.62307 42.5351 9.73718 42.459 9.95589H42.44L42.4305 9.6611H42.0976ZM45.4449 9.89883C45.7111 9.89883 45.7777 10.1271 45.7682 10.2792H45.0835C45.1025 10.1175 45.2071 9.89883 45.4449 9.89883ZM45.5685 10.9448C45.3118 10.9448 45.093 10.8212 45.0835 10.5455H46.1295L46.1391 10.3838C46.1391 10.0415 45.9774 9.63258 45.4639 9.63258C44.9599 9.63258 44.7032 10.0415 44.7032 10.4599C44.7032 10.9353 45.0075 11.2491 45.5114 11.2491C45.7397 11.2491 45.9203 11.2016 46.063 11.1445L46.0059 10.8783C45.8823 10.9163 45.7492 10.9448 45.5685 10.9448ZM47.8887 11.154C47.8032 11.1921 47.632 11.2396 47.4418 11.2396C46.9473 11.2396 46.624 10.9258 46.624 10.4504C46.624 9.99392 46.9473 9.62307 47.5084 9.62307C47.6415 9.62307 47.7746 9.65159 47.8983 9.69914L47.8317 9.99393C47.7366 9.94638 47.632 9.92736 47.5274 9.93687C47.2231 9.93687 47.0424 10.1556 47.0424 10.4409C47.0424 10.7642 47.2611 10.9353 47.5274 10.9353C47.67 10.9353 47.7651 10.9068 47.8412 10.8783L47.8887 11.154ZM48.9252 9.63258V9.23319L48.5449 9.3473V9.63258H48.3262V9.92736H48.5449V10.6691C48.5449 10.8688 48.5829 11.0114 48.659 11.1065C48.7351 11.1921 48.8492 11.2396 48.9918 11.2396C49.1154 11.2396 49.2105 11.2206 49.2676 11.2016L49.2581 10.8973C49.2105 10.9163 49.1535 10.9258 49.1059 10.9163C48.9538 10.9163 48.9157 10.8117 48.9157 10.631V9.93687H49.2771V9.64208L48.9252 9.63258Z" fill="white"/>
<path fill-rule="evenodd" clip-rule="evenodd" d="M57.5023 1.49265H57.2455C57.236 1.49265 57.236 1.50216 57.2265 1.51167C57.2265 1.52118 57.2265 1.53069 57.236 1.5402L57.2645 1.54971L57.3691 1.57823C57.3881 1.59725 57.4072 1.61627 57.4072 1.63529C57.4072 1.66382 57.4167 1.69235 57.4072 1.73989L57.3977 1.96811L57.3786 2.23437C57.3786 2.37701 57.3691 2.71934 57.3311 2.82394C57.3216 2.84296 57.3026 2.86198 57.2835 2.881C57.255 2.89051 57.236 2.8905 57.2075 2.8905L57.1599 2.90001C57.1504 2.90952 57.1504 2.91903 57.1504 2.92854C57.1504 2.93805 57.1504 2.94756 57.1694 2.95707L57.2835 2.94756H57.5213L57.6354 2.95707C57.6449 2.94756 57.6449 2.94756 57.6449 2.92854C57.6449 2.91903 57.6449 2.90952 57.6354 2.90001H57.5593C57.5308 2.90001 57.5118 2.89051 57.4927 2.87149C57.4832 2.86198 57.4832 2.85247 57.4737 2.84296C57.4642 2.79541 57.4547 2.73836 57.4547 2.69081V2.41504L57.4642 2.17731L57.4832 1.98713C57.4832 1.92056 57.4832 1.86351 57.4927 1.79695L57.5688 1.94909L57.6354 2.11075L57.8446 2.52915L57.9016 2.66228L57.9872 2.82394L58.0158 2.90952L58.0348 2.96658C58.0443 2.97609 58.0633 2.97609 58.0728 2.96658L58.1299 2.83345C58.1869 2.70983 58.244 2.58621 58.3105 2.46259L58.5007 2.08222C58.5197 2.05369 58.5293 2.01566 58.5483 1.97762C58.5768 1.91106 58.6053 1.854 58.6434 1.79695V2.70983V2.81443C58.6434 2.84296 58.6339 2.86198 58.6148 2.86198C58.6053 2.87149 58.5768 2.8905 58.5388 2.8905L58.4817 2.90001C58.4722 2.90952 58.4722 2.91903 58.4722 2.92854C58.4722 2.93805 58.4817 2.94756 58.4912 2.95707L58.6339 2.94756H58.8906L59.0237 2.95707C59.0332 2.95707 59.0428 2.94756 59.0428 2.92854C59.0428 2.91903 59.0427 2.90952 59.0332 2.90001H58.9667C58.9381 2.8905 58.9191 2.881 58.8906 2.87149C58.8716 2.85247 58.8621 2.83345 58.8621 2.81443L58.8526 2.71934C58.8526 2.61474 58.8431 2.50063 58.8431 2.38652C58.8431 2.27241 58.8335 2.1583 58.824 2.05369V1.76842L58.8335 1.65431C58.8431 1.62578 58.8526 1.60676 58.8716 1.58774C58.9001 1.56873 58.9381 1.55922 58.9762 1.55922H59.0332V1.53069L59.0237 1.50216L58.9191 1.51167H58.6719C58.6719 1.55922 58.6529 1.61627 58.6243 1.68284L58.5102 1.93008L58.301 2.34848C58.2535 2.46259 58.1964 2.56719 58.1299 2.6813L57.9777 2.37701L57.721 1.87302C57.6924 1.80646 57.6639 1.73989 57.6449 1.67333C57.6259 1.62578 57.6164 1.56872 57.6164 1.52118H57.5023V1.49265ZM56.2851 2.60523V2.77639C56.2756 2.85247 56.228 2.881 56.152 2.881L56.1044 2.8905C56.0854 2.90952 56.0854 2.93805 56.1044 2.94756L56.3802 2.93805L56.675 2.94756L56.694 2.91903L56.6845 2.8905L56.6274 2.881C56.5704 2.881 56.5418 2.87149 56.5228 2.85247C56.5038 2.83345 56.4848 2.81443 56.4848 2.77639C56.4753 2.71934 56.4753 2.66228 56.4848 2.60523V2.39603C56.4087 2.39603 56.3516 2.39603 56.2946 2.38652L56.2851 2.60523ZM56.0949 1.51167C56.0949 1.52118 56.0949 1.53069 56.1044 1.5402L56.1805 1.54971C56.209 1.54971 56.2375 1.56873 56.2566 1.57823C56.2756 1.58774 56.2851 1.60676 56.2851 1.6448L56.2946 1.78744V2.23437H56.4753V1.62578L56.4848 1.56872C56.4848 1.55922 56.5038 1.54971 56.5133 1.54971L56.6084 1.5402C56.7225 1.5402 56.8081 1.56873 56.8746 1.63529C56.9317 1.69235 56.9697 1.78744 56.9697 1.89204C56.9697 1.99664 56.9507 2.07271 56.9032 2.13928C56.8461 2.19633 56.7796 2.24388 56.7035 2.25339C56.6084 2.27241 56.4848 2.28191 56.3231 2.28191C56.1805 2.28191 56.0188 2.27241 55.8477 2.25339C56.0378 2.29143 56.1805 2.31995 56.2756 2.32946C56.4848 2.35799 56.694 2.33897 56.8937 2.28191C56.9412 2.25339 57.0078 2.22486 57.0648 2.17731C57.1029 2.14879 57.1314 2.11075 57.1599 2.0632C57.1789 2.01566 57.1885 1.9586 57.198 1.89204C57.198 1.82547 57.1789 1.7494 57.1504 1.69235C57.1219 1.63529 57.0743 1.58774 57.0268 1.55922C56.9793 1.53069 56.9127 1.50216 56.8366 1.49265C56.7605 1.48314 56.6845 1.47363 56.5894 1.47363L56.3421 1.48314L56.152 1.49265C56.1044 1.49265 56.0949 1.50216 56.0949 1.51167Z" fill="white"/>
</svg>
