<?xml version="1.0" encoding="UTF-8"?>
<!-- Generator: Adobe Illustrator 21.1.0, SVG Export Plug-In . SVG Version: 6.00 Build 0)  -->
<svg version="1.1" id="Layer_1" xmlns="http://www.w3.org/2000/svg" xmlns:xlink="http://www.w3.org/1999/xlink" x="0px" y="0px" viewBox="0 0 295.7 108.1" style="enable-background:new 0 0 295.7 108.1;" xml:space="preserve">
<style type="text/css">
	.st0{fill:#FF8C00;}
</style>
<path class="st0" d="M196.5,22.8v50.5c0,0.8-0.6,1.4-1.4,1.4h-10.3c-0.8,0-1.4-0.6-1.4-1.4V22.8c0-0.8,0.6-1.4,1.4-1.4h10.3  C195.9,21.4,196.5,22,196.5,22.8z M276.9,21.4h-11.5c-0.6,0-1.1,0.4-1.3,1l-9.1,29.9l-10-29.9c-0.2-0.6-0.7-0.9-1.3-0.9h-8.1  c-0.6,0-1.1,0.4-1.3,0.9l-10,29.9L215,22.4c-0.2-0.6-0.7-1-1.3-1h-11.5c-0.4,0-0.9,0.2-1.1,0.6c-0.3,0.4-0.3,0.8-0.2,1.2l17,50.6  c0.2,0.6,0.7,0.9,1.3,0.9h9.2c0.6,0,1.1-0.4,1.3-0.9l9.9-29.5l9.9,29.5c0.2,0.6,0.7,0.9,1.3,0.9h9.2c0.6,0,1.1-0.4,1.3-0.9l17-50.6  c0.1-0.4,0.1-0.9-0.2-1.2C277.8,21.6,277.4,21.4,276.9,21.4z M294.3,21.4H284c-0.8,0-1.4,0.6-1.4,1.4v50.5c0,0.8,0.6,1.4,1.4,1.4  h10.3c0.8,0,1.4-0.6,1.4-1.4V22.8C295.7,22,295,21.4,294.3,21.4z M177.5,73c0.6,0.7,0.1,1.7-0.8,1.7H164c-0.5,0-1-0.2-1.3-0.6  l-2.1-2.6c-4.4,2.8-9.6,4.5-15.1,4.5c-15.4,0-27.9-12.5-27.9-27.9s12.5-27.9,27.9-27.9c15.4,0,27.9,12.5,27.9,27.9  c0,5.5-1.6,10.7-4.4,15.1L177.5,73z M152.4,61.7l-5.5-6.7c-0.6-0.7-0.1-1.8,0.8-1.8h11.6c0.6-1.6,0.9-3.4,0.9-5.2  c0-8.3-6.2-15.5-14.7-15.5c-8.5,0-14.7,7.2-14.7,15.5c0,8.3,6.2,15.4,14.7,15.4C148,63.5,150.3,62.8,152.4,61.7z M85.8,72.7  c0.3,2.1-0.4,3-1,3c-0.7,0-1.6-0.9-2.7-2.5c-1.1-1.7-1.5-3.6-0.9-4.5c0.3-0.6,1.1-0.9,2-0.6C84.9,68.7,85.6,71.4,85.8,72.7z   M75.9,77.3c2.1,1.8,2.8,4,1.7,5.5c-0.6,0.8-1.6,1.3-2.9,1.3c-1.2,0-2.4-0.4-3.3-1.2c-1.9-1.7-2.5-4.5-1.2-6  c0.5-0.6,1.3-0.9,2.3-0.9C73.6,75.9,74.8,76.4,75.9,77.3z M72.3,94.7c9.2,0,19.2,3.2,30.3,13c1.1,1,2.6-0.2,1.6-1.5  C93.3,92.5,83.3,89.9,73.3,87.7C61,85,54.7,78.1,50.3,70.5c-0.9-1.5-1.3-1.2-1.3,0.7c-0.1,2.4,0.1,5.5,0.6,8.6l0,0c-0.5,0-1,0-1.5,0  c-17.5,0-31.8-14.2-31.8-31.8s14.2-31.8,31.8-31.8c17.5,0,31.8,14.2,31.8,31.8c0,1.2-0.1,2.5-0.2,3.7c-2.3-0.4-6.9-0.5-10.1-0.2  c-1.2,0.1-1,0.7-0.1,0.8c10.5,1.9,17.7,8.4,19.4,20.2c0,0.3,0.4,0.4,0.5,0.1c4.3-7.2,6.8-15.6,6.8-24.7C96.1,21.5,74.6,0,48.1,0  C21.5,0,0,21.5,0,48.1s21.5,48.1,48.1,48.1C55.1,96.1,62.1,94.7,72.3,94.7z"/>
</svg>