<svg width="63" height="29" viewBox="0 0 63 29" fill="none" xmlns="http://www.w3.org/2000/svg">
<path d="M30.79 13L28.1 9.51L28.7 9.15L31.64 13H30.79ZM26 13V6H26.72V13H26ZM26.5 9.79V9.14H28.69V9.79H26.5ZM28.76 9.58L28.08 9.46L30.69 6H31.49L28.76 9.58ZM35.9552 13V11.84L35.9252 11.65V9.71C35.9252 9.2633 35.7986 8.92 35.5452 8.68C35.2986 8.44 34.9286 8.32 34.4352 8.32C34.0952 8.32 33.7719 8.3767 33.4652 8.49C33.1586 8.6033 32.8986 8.7533 32.6852 8.94L32.3652 8.41C32.6319 8.1833 32.9519 8.01 33.3252 7.89C33.6986 7.7633 34.0919 7.7 34.5052 7.7C35.1852 7.7 35.7086 7.87 36.0752 8.21C36.4486 8.5433 36.6352 9.0533 36.6352 9.74V13H35.9552ZM34.1452 13.05C33.7519 13.05 33.4086 12.9867 33.1152 12.86C32.8286 12.7267 32.6086 12.5467 32.4552 12.32C32.3019 12.0867 32.2252 11.82 32.2252 11.52C32.2252 11.2467 32.2886 11 32.4152 10.78C32.5486 10.5533 32.7619 10.3733 33.0552 10.24C33.3552 10.1 33.7552 10.03 34.2552 10.03H36.0652V10.56H34.2752C33.7686 10.56 33.4152 10.65 33.2152 10.83C33.0219 11.01 32.9252 11.2333 32.9252 11.5C32.9252 11.8 33.0419 12.04 33.2752 12.22C33.5086 12.4 33.8352 12.49 34.2552 12.49C34.6552 12.49 34.9986 12.4 35.2852 12.22C35.5786 12.0333 35.7919 11.7667 35.9252 11.42L36.0852 11.91C35.9519 12.2567 35.7186 12.5333 35.3852 12.74C35.0586 12.9467 34.6452 13.05 34.1452 13.05ZM41.2353 13.05C40.782 13.05 40.372 12.9467 40.0053 12.74C39.6386 12.5267 39.3453 12.2233 39.1253 11.83C38.912 11.43 38.8053 10.9433 38.8053 10.37C38.8053 9.7967 38.912 9.3133 39.1253 8.92C39.3386 8.52 39.6286 8.2167 39.9953 8.01C40.362 7.8033 40.7753 7.7 41.2353 7.7C41.7353 7.7 42.182 7.8133 42.5753 8.04C42.9753 8.26 43.2886 8.5733 43.5153 8.98C43.742 9.38 43.8553 9.8433 43.8553 10.37C43.8553 10.9033 43.742 11.37 43.5153 11.77C43.2886 12.17 42.9753 12.4833 42.5753 12.71C42.182 12.9367 41.7353 13.05 41.2353 13.05ZM38.5253 14.94V7.75H39.2053V9.33L39.1353 10.38L39.2353 11.44V14.94H38.5253ZM41.1853 12.42C41.5586 12.42 41.892 12.3367 42.1853 12.17C42.4786 11.9967 42.712 11.7567 42.8853 11.45C43.0586 11.1367 43.1453 10.7767 43.1453 10.37C43.1453 9.9633 43.0586 9.6067 42.8853 9.3C42.712 8.9933 42.4786 8.7533 42.1853 8.58C41.892 8.4067 41.5586 8.32 41.1853 8.32C40.812 8.32 40.4753 8.4067 40.1753 8.58C39.882 8.7533 39.6486 8.9933 39.4753 9.3C39.3086 9.6067 39.2253 9.9633 39.2253 10.37C39.2253 10.7767 39.3086 11.1367 39.4753 11.45C39.6486 11.7567 39.882 11.9967 40.1753 12.17C40.4753 12.3367 40.812 12.42 41.1853 12.42ZM46.1855 13V8.18L46.3655 8.37H44.1955V7.75H48.8855V8.37H46.7155L46.8955 8.18V13H46.1855ZM55.032 13V7.75H55.742V13H55.032ZM52.122 9.6C52.782 9.6067 53.2854 9.7533 53.632 10.04C53.9787 10.3267 54.152 10.74 54.152 11.28C54.152 11.84 53.9654 12.27 53.592 12.57C53.2187 12.87 52.6854 13.0167 51.992 13.01L49.912 13V7.75H50.622V9.58L52.122 9.6ZM51.942 12.47C52.4354 12.4767 52.8054 12.38 53.052 12.18C53.3054 11.9733 53.432 11.6733 53.432 11.28C53.432 10.8867 53.3087 10.6 53.062 10.42C52.8154 10.2333 52.442 10.1367 51.942 10.13L50.622 10.11V12.45L51.942 12.47Z" fill="white"/>
<path d="M26 24V17H28.62C29.2133 17 29.7233 17.0967 30.15 17.29C30.5766 17.4767 30.9033 17.75 31.13 18.11C31.3633 18.4633 31.48 18.8933 31.48 19.4C31.48 19.8933 31.3633 20.32 31.13 20.68C30.9033 21.0333 30.5766 21.3067 30.15 21.5C29.7233 21.6933 29.2133 21.79 28.62 21.79H26.41L26.74 21.44V24H26ZM26.74 21.5L26.41 21.14H28.6C29.3 21.14 29.83 20.99 30.19 20.69C30.5566 20.3833 30.74 19.9533 30.74 19.4C30.74 18.84 30.5566 18.4067 30.19 18.1C29.83 17.7933 29.3 17.64 28.6 17.64H26.41L26.74 17.29V21.5ZM34.9529 24.05C34.4462 24.05 33.9895 23.9367 33.5829 23.71C33.1829 23.4767 32.8662 23.16 32.6329 22.76C32.3995 22.3533 32.2829 21.89 32.2829 21.37C32.2829 20.8433 32.3995 20.38 32.6329 19.98C32.8662 19.58 33.1829 19.2667 33.5829 19.04C33.9829 18.8133 34.4395 18.7 34.9529 18.7C35.4729 18.7 35.9329 18.8133 36.3329 19.04C36.7395 19.2667 37.0562 19.58 37.2829 19.98C37.5162 20.38 37.6329 20.8433 37.6329 21.37C37.6329 21.89 37.5162 22.3533 37.2829 22.76C37.0562 23.16 36.7395 23.4767 36.3329 23.71C35.9262 23.9367 35.4662 24.05 34.9529 24.05ZM34.9529 23.42C35.3329 23.42 35.6695 23.3367 35.9629 23.17C36.2562 22.9967 36.4862 22.7567 36.6529 22.45C36.8262 22.1367 36.9129 21.7767 36.9129 21.37C36.9129 20.9567 36.8262 20.5967 36.6529 20.29C36.4862 19.9833 36.2562 19.7467 35.9629 19.58C35.6695 19.4067 35.3362 19.32 34.9629 19.32C34.5895 19.32 34.2562 19.4067 33.9629 19.58C33.6695 19.7467 33.4362 19.9833 33.2629 20.29C33.0895 20.5967 33.0029 20.9567 33.0029 21.37C33.0029 21.7767 33.0895 22.1367 33.2629 22.45C33.4362 22.7567 33.6695 22.9967 33.9629 23.17C34.2562 23.3367 34.5862 23.42 34.9529 23.42ZM41.3503 24.05C40.8303 24.05 40.3636 23.9367 39.9503 23.71C39.5436 23.4767 39.2236 23.16 38.9903 22.76C38.757 22.3533 38.6403 21.89 38.6403 21.37C38.6403 20.8433 38.757 20.38 38.9903 19.98C39.2236 19.58 39.5436 19.2667 39.9503 19.04C40.3636 18.8133 40.8303 18.7 41.3503 18.7C41.797 18.7 42.2003 18.7867 42.5603 18.96C42.9203 19.1333 43.2036 19.3933 43.4103 19.74L42.8803 20.1C42.7003 19.8333 42.477 19.6367 42.2103 19.51C41.9436 19.3833 41.6536 19.32 41.3403 19.32C40.967 19.32 40.6303 19.4067 40.3303 19.58C40.0303 19.7467 39.7936 19.9833 39.6203 20.29C39.447 20.5967 39.3603 20.9567 39.3603 21.37C39.3603 21.7833 39.447 22.1433 39.6203 22.45C39.7936 22.7567 40.0303 22.9967 40.3303 23.17C40.6303 23.3367 40.967 23.42 41.3403 23.42C41.6536 23.42 41.9436 23.3567 42.2103 23.23C42.477 23.1033 42.7003 22.91 42.8803 22.65L43.4103 23.01C43.2036 23.35 42.9203 23.61 42.5603 23.79C42.2003 23.9633 41.797 24.05 41.3503 24.05ZM46.8972 24.05C46.3772 24.05 45.9105 23.9367 45.4972 23.71C45.0905 23.4767 44.7705 23.16 44.5372 22.76C44.3038 22.3533 44.1872 21.89 44.1872 21.37C44.1872 20.8433 44.3038 20.38 44.5372 19.98C44.7705 19.58 45.0905 19.2667 45.4972 19.04C45.9105 18.8133 46.3772 18.7 46.8972 18.7C47.3438 18.7 47.7472 18.7867 48.1072 18.96C48.4672 19.1333 48.7505 19.3933 48.9572 19.74L48.4272 20.1C48.2472 19.8333 48.0238 19.6367 47.7572 19.51C47.4905 19.3833 47.2005 19.32 46.8872 19.32C46.5138 19.32 46.1772 19.4067 45.8772 19.58C45.5772 19.7467 45.3405 19.9833 45.1672 20.29C44.9938 20.5967 44.9072 20.9567 44.9072 21.37C44.9072 21.7833 44.9938 22.1433 45.1672 22.45C45.3405 22.7567 45.5772 22.9967 45.8772 23.17C46.1772 23.3367 46.5138 23.42 46.8872 23.42C47.2005 23.42 47.4905 23.3567 47.7572 23.23C48.0238 23.1033 48.2472 22.91 48.4272 22.65L48.9572 23.01C48.7505 23.35 48.4672 23.61 48.1072 23.79C47.7472 23.9633 47.3438 24.05 46.8972 24.05ZM50.3319 24V18.75H51.0419V22.92L54.5519 18.75H55.1819V24H54.4719V19.82L50.9719 24H50.3319ZM57.2167 24V18.75H57.9267V22.92L61.4367 18.75H62.0667V24H61.3567V19.82L57.8567 24H57.2167Z" fill="white"/>
<path d="M8.9369 28.414H7.2548L8.3061 21.9529H9.9885L8.9369 28.414ZM5.8396 21.9529L4.2359 26.3969L4.0461 25.4399L3.4803 22.5346C3.4803 22.5346 3.4119 21.9529 2.6824 21.9529H0.0310993L0 22.0623C0 22.0623 0.8107 22.231 1.7596 22.8008L3.221 28.4142H4.9737L7.6501 21.9529H5.8396ZM19.0707 28.414H20.6154L19.2686 21.9527H17.9164C17.292 21.9527 17.1398 22.4342 17.1398 22.4342L14.631 28.414H16.3846L16.7353 27.4542H18.8737L19.0707 28.414ZM17.2197 26.1285L18.1036 23.7105L18.6008 26.1285H17.2197ZM14.7625 23.5067L15.0026 22.1191C15.0026 22.1191 14.2619 21.8374 13.4897 21.8374C12.6549 21.8374 10.6725 22.2022 10.6725 23.9764C10.6725 25.6456 12.9992 25.6663 12.9992 26.5431C12.9992 27.4198 10.9122 27.2628 10.2235 26.7099L9.9734 28.1606C9.9734 28.1606 10.7245 28.5255 11.8722 28.5255C13.0201 28.5255 14.7519 27.9311 14.7519 26.3134C14.7519 24.6335 12.4043 24.4771 12.4043 23.7467C12.4045 23.0162 14.0428 23.11 14.7625 23.5067Z" fill="#2566AF"/>
<path d="M4.0463 25.4405L3.4803 22.5349C3.4803 22.5349 3.4119 21.9531 2.6824 21.9531H0.0310993L0 22.0625C0 22.0625 1.2743 22.3266 2.4965 23.3161C3.6652 24.2618 4.0463 25.4405 4.0463 25.4405Z" fill="#E6A540"/>
<path fill-rule="evenodd" clip-rule="evenodd" d="M6.40425 0.891113V0.893653C6.40175 0.893653 5.58915 0.891113 5.37255 1.65822C5.17395 2.3617 4.61415 4.3037 4.59875 4.3572H4.44395C4.44395 4.3572 3.87135 2.3718 3.67015 1.65568C3.45345 0.888573 2.63845 0.891113 2.63845 0.891113H0.78125V6.7275H2.63845V3.2613H2.71575H2.79315L3.87645 6.7275H5.16615L6.24955 3.2638H6.40425V6.7275H8.26135V0.891113H6.40425Z" fill="#4DB45E"/>
<path fill-rule="evenodd" clip-rule="evenodd" d="M13.1874 0.891113C13.1874 0.891113 12.6432 0.939523 12.3878 1.50275L11.0723 4.3572H10.9176V0.891113H9.06055V6.7275H10.8144C10.8144 6.7275 11.3844 6.6765 11.6398 6.1158L12.9295 3.2613H13.0843V6.7275H14.9414V0.891113H13.1874Z" fill="#4DB45E"/>
<path fill-rule="evenodd" clip-rule="evenodd" d="M15.7676 3.5415V6.7273H17.6247V4.8668H19.6366C20.5135 4.8668 21.2564 4.3137 21.5324 3.5415H15.7676Z" fill="#4DB45E"/>
<path fill-rule="evenodd" clip-rule="evenodd" d="M19.6363 0.891113H15.5068C15.7131 2.0023 16.5566 2.8943 17.6477 3.1849C17.8953 3.2511 18.1558 3.2868 18.424 3.2868H21.607C21.6353 3.1543 21.6483 3.0192 21.6483 2.879C21.6483 1.78059 20.748 0.891113 19.6363 0.891113Z" fill="url(#paint0_linear_309_72)"/>
<path d="M12.4776 11.1948H9.04297V17.367H12.4776V11.1948Z" fill="#FF5F00"/>
<path d="M9.26146 14.2825C9.26106 13.6881 9.39576 13.1015 9.65546 12.5669C9.91526 12.0324 10.2932 11.5638 10.7607 11.197C10.1816 10.7419 9.48616 10.4589 8.75396 10.3803C8.02166 10.3017 7.28206 10.4308 6.61966 10.7528C5.95736 11.0747 5.39886 11.5764 5.00816 12.2007C4.61746 12.8249 4.41016 13.5466 4.41016 14.283C4.41016 15.0195 4.61746 15.7412 5.00816 16.3654C5.39886 16.9897 5.95736 17.4914 6.61966 17.8133C7.28206 18.1352 8.02166 18.2644 8.75396 18.1857C9.48616 18.1072 10.1816 17.8242 10.7607 17.3691C10.293 17.0021 9.91496 16.5334 9.65526 15.9987C9.39556 15.4639 9.26086 14.877 9.26146 14.2825Z" fill="#EB001B"/>
<path d="M17.1117 14.2825C17.1117 15.0191 16.9045 15.7408 16.5138 16.3651C16.123 16.9894 15.5644 17.4911 14.9019 17.813C14.2394 18.1348 13.4998 18.2638 12.7674 18.1851C12.0352 18.1065 11.3398 17.8234 10.7607 17.3682C11.2281 17.0009 11.6059 16.5322 11.8657 15.9976C12.1255 15.4631 12.2605 14.8764 12.2605 14.282C12.2605 13.6877 12.1255 13.101 11.8657 12.5664C11.6059 12.0318 11.2281 11.5632 10.7607 11.1959C11.3398 10.7406 12.0353 10.4575 12.7677 10.3789C13.5001 10.3003 14.2399 10.4293 14.9024 10.7513C15.5649 11.0733 16.1235 11.5752 16.5142 12.1997C16.9049 12.8242 17.112 13.546 17.1117 14.2825Z" fill="#F79E1B"/>
<path d="M16.7345 16.7127V16.5863H16.7857V16.5612H16.6582V16.5874H16.7094V16.7138L16.7345 16.7127ZM16.9863 16.7127V16.5601H16.9526L16.9068 16.6691L16.861 16.5601H16.8206V16.7127H16.8435V16.5983L16.886 16.6975H16.9155L16.958 16.5983V16.7138L16.9863 16.7127Z" fill="#F79E1B"/>
<defs>
<linearGradient id="paint0_linear_309_72" x1="15.5073" y1="2.089" x2="21.6483" y2="2.089" gradientUnits="userSpaceOnUse">
<stop offset="0.3" stop-color="#00B4E6"/>
<stop offset="1" stop-color="#088CCB"/>
</linearGradient>
</defs>
</svg>
