<svg width="46" height="23" viewBox="0 0 46 23" fill="none" xmlns="http://www.w3.org/2000/svg">
<path d="M39.7768 6.56532V12.1884H37.7605V8.24394H35.819V12.1884H33.8027V6.56494H39.7768V6.56532Z" fill="white"/>
<path fill-rule="evenodd" clip-rule="evenodd" d="M29.6615 12.3893C31.4665 12.3893 32.8068 11.2872 32.8068 9.61644C32.8068 7.99935 31.8179 6.9494 30.1652 6.9494C29.4024 6.9494 28.7731 7.21677 28.299 7.67812C28.4122 6.72457 29.2219 6.02844 30.1134 6.02844C30.3192 6.02844 31.8682 6.02518 31.8682 6.02518L32.7441 4.35596C32.7441 4.35596 30.7994 4.40004 29.8953 4.40004C27.8298 4.43588 26.4346 6.30559 26.4346 8.57646C26.4346 11.222 27.7953 12.3893 29.6615 12.3893ZM29.6725 8.42792C30.3426 8.42792 30.8073 8.86645 30.8073 9.61625C30.8073 10.2911 30.3944 10.8471 29.6725 10.8487C28.9819 10.8487 28.5173 10.3335 28.5173 9.62775C28.5173 8.87776 28.9819 8.42792 29.6725 8.42792Z" fill="white"/>
<path d="M24.7938 10.3057C24.7938 10.3057 24.3176 10.579 23.6064 10.6308C22.7888 10.6549 22.0603 10.1407 22.0603 9.22703C22.0603 8.33578 22.7032 7.82499 23.5858 7.82499C24.1271 7.82499 24.843 8.19855 24.843 8.19855C24.843 8.19855 25.3669 7.24117 25.6383 6.76239C25.1414 6.3873 24.4795 6.18164 23.7096 6.18164C21.7666 6.18164 20.2617 7.44319 20.2617 9.21572C20.2617 11.0109 21.6762 12.2431 23.7096 12.2059C24.278 12.1848 25.0621 11.9861 25.54 11.6804L24.7938 10.3057Z" fill="white"/>
<path d="M0 5.00635L2.79695 9.98489V13.0217L0.00327197 17.9904L0 5.00635Z" fill="#5B57A2"/>
<path d="M10.7393 8.17348L13.3601 6.57383L18.7238 6.56885L10.7393 11.4399V8.17348Z" fill="#D90751"/>
<path d="M10.7242 4.97701L10.739 11.5684L7.93555 9.85301V0L10.7242 4.97701Z" fill="#FAB718"/>
<path d="M18.7236 6.56861L13.3597 6.57359L10.7242 4.97701L7.93555 0L18.7236 6.56861Z" fill="#ED6F26"/>
<path d="M10.739 18.018V14.82L7.93555 13.1372L7.93709 23L10.739 18.018Z" fill="#63B22F"/>
<path d="M13.3535 16.4329L2.79676 9.98489L0 5.00635L18.7124 16.4264L13.3535 16.4329Z" fill="#1487C9"/>
<path d="M7.9375 22.9999L10.7391 18.0179L13.3534 16.4328L18.7123 16.4263L7.9375 22.9999Z" fill="#017F36"/>
<path d="M0.00292969 17.9906L7.95824 13.1376L5.28369 11.5034L2.79661 13.0218L0.00292969 17.9906Z" fill="#984995"/>
<path d="M22.0609 15.9731C21.9993 16.0513 21.9183 16.1103 21.8211 16.1502C21.7214 16.1906 21.6147 16.2112 21.507 16.2107C21.3999 16.2122 21.2934 16.1944 21.1927 16.1582C21.1022 16.1255 21.0195 16.0745 20.9498 16.0083C20.881 15.9421 20.8269 15.8622 20.7912 15.7737C20.7525 15.6769 20.7332 15.5734 20.7344 15.4692C20.7344 15.3657 20.7523 15.2699 20.7895 15.179C20.8251 15.088 20.8769 15.0099 20.9417 14.9444C21.0066 14.8775 21.0843 14.8265 21.1717 14.7867C21.2608 14.7483 21.358 14.7276 21.4648 14.7276C21.5799 14.7276 21.6868 14.742 21.784 14.7706C21.8812 14.7993 21.9637 14.8472 22.0317 14.9143L21.9135 15.1136C21.8563 15.0621 21.789 15.0229 21.7158 14.9986C21.6462 14.9763 21.5736 14.9651 21.5005 14.9653C21.4358 14.9653 21.3742 14.9779 21.3143 15.0019C21.2553 15.0256 21.2015 15.0602 21.1555 15.1041C21.1086 15.1491 21.0717 15.2034 21.047 15.2635C21.0195 15.3256 21.0066 15.3942 21.0066 15.4707C21.0066 15.5489 21.021 15.6191 21.0485 15.6796C21.0762 15.7419 21.1134 15.7946 21.1604 15.8391C21.2073 15.884 21.2624 15.9173 21.3255 15.9397C21.3888 15.9637 21.4552 15.9748 21.5264 15.9748C21.6138 15.9748 21.6933 15.9572 21.7612 15.9236C21.8286 15.8912 21.8891 15.8464 21.9395 15.7914L22.0609 15.9731ZM22.3945 16.1772V14.7579H22.6505V15.8153L23.4829 14.7579H23.7389V16.1774H23.4829V15.12L22.6505 16.1774L22.3945 16.1772ZM25.4345 15.9731C25.3715 16.0519 25.2889 16.113 25.1949 16.1502C25.0951 16.1906 24.9883 16.2112 24.8806 16.2107C24.7736 16.2122 24.6672 16.1944 24.5665 16.1582C24.4759 16.1255 24.3932 16.0745 24.3234 16.0083C24.2546 15.9421 24.2005 15.8622 24.1648 15.7737C24.1261 15.6769 24.1068 15.5734 24.108 15.4692C24.108 15.3657 24.1259 15.2699 24.1631 15.179C24.1989 15.088 24.2506 15.0099 24.3153 14.9444C24.3802 14.8775 24.4579 14.8265 24.5453 14.7867C24.6376 14.7462 24.7376 14.726 24.8384 14.7276C24.9535 14.7276 25.0604 14.742 25.1575 14.7706C25.2547 14.7993 25.3373 14.8472 25.4054 14.9143L25.2871 15.1136C25.23 15.062 25.1628 15.0229 25.0896 14.9986C25.02 14.9763 24.9473 14.9651 24.8742 14.9653C24.7456 14.9657 24.622 15.0154 24.5291 15.1041C24.4826 15.1495 24.4457 15.2037 24.4206 15.2635C24.3931 15.3256 24.3802 15.3942 24.3802 15.4707C24.3802 15.5489 24.3948 15.6191 24.4223 15.6796C24.4498 15.7419 24.487 15.7946 24.5339 15.8391C24.5809 15.884 24.6361 15.9173 24.6993 15.9397C24.7624 15.962 24.8288 15.9748 24.9 15.9748C24.9876 15.9748 25.0654 15.9572 25.1348 15.9236C25.2022 15.8912 25.2627 15.8464 25.3131 15.7914L25.4345 15.9731ZM25.5658 14.7579H26.8792V15.01H26.3512V16.1772H26.0953V15.01H25.5673V14.7579H25.5658Z" fill="white"/>
<path fill-rule="evenodd" clip-rule="evenodd" d="M28.0742 16.163C28.1714 16.1327 28.254 16.0863 28.3252 16.0227L28.2474 15.8249C28.2004 15.8665 28.1373 15.9016 28.0613 15.9303C27.9851 15.9591 27.8992 15.9733 27.8053 15.9733C27.6644 15.9733 27.5478 15.9367 27.4554 15.8617C27.3632 15.7866 27.313 15.6815 27.3016 15.5474H28.4095C28.4208 15.4979 28.4256 15.4422 28.4256 15.3768C28.4256 15.2794 28.4077 15.1918 28.3721 15.1121C28.339 15.0347 28.2905 14.9647 28.2297 14.9063C28.168 14.8484 28.0953 14.8034 28.0159 14.774C27.9327 14.7419 27.8443 14.7256 27.7551 14.7261C27.6352 14.7261 27.5299 14.7468 27.4377 14.7851C27.3505 14.8216 27.2717 14.8754 27.206 14.9431C27.1421 15.0104 27.0931 15.0902 27.062 15.1775C27.0278 15.2704 27.0108 15.3687 27.0118 15.4676C27.0118 15.5794 27.0312 15.6814 27.0668 15.7724C27.1015 15.8606 27.1545 15.9405 27.2223 16.0068C27.2887 16.072 27.3696 16.1216 27.4652 16.1567C27.5676 16.1929 27.6757 16.2106 27.7843 16.2092C27.8827 16.2086 27.9805 16.1929 28.0742 16.163ZM27.4263 15.0705C27.5056 14.9988 27.6109 14.9638 27.7437 14.9638C27.8684 14.9638 27.9689 14.9973 28.0419 15.0644C28.1148 15.1313 28.1535 15.2238 28.16 15.3417H27.2855C27.2978 15.2374 27.3479 15.1408 27.4263 15.0705Z" fill="white"/>
<path d="M28.7734 14.7578H29.0067L29.5606 15.4612L30.0853 14.7578H30.312V16.1773H30.0562V15.1423L29.5574 15.8009H29.5475L29.0294 15.1421V16.1771H28.7734V14.7578Z" fill="white"/>
<path fill-rule="evenodd" clip-rule="evenodd" d="M31.0088 14.7626C30.9311 14.7828 30.8569 14.8145 30.7886 14.8565L30.8566 15.0578C30.9149 15.029 30.9732 15.0051 31.0315 14.9844C31.0898 14.9635 31.1643 14.9539 31.2534 14.9539C31.3246 14.9539 31.3814 14.9652 31.4251 14.9874C31.4688 15.0081 31.5011 15.0401 31.5238 15.0785C31.5466 15.1168 31.5612 15.1645 31.5693 15.2203C31.5773 15.2761 31.5806 15.3366 31.5806 15.4022C31.5282 15.3659 31.4685 15.3413 31.4057 15.3303C31.3449 15.3183 31.2831 15.3119 31.2211 15.3112C31.1449 15.3112 31.0737 15.3225 31.0055 15.3414C30.9376 15.3606 30.8793 15.3894 30.8323 15.4277C30.7844 15.466 30.7456 15.5144 30.7189 15.5695C30.6904 15.6299 30.676 15.6958 30.6768 15.7625C30.6768 15.9013 30.7174 16.0098 30.7982 16.0864C30.8793 16.1629 30.9861 16.2011 31.1189 16.2011C31.2388 16.2011 31.3345 16.1804 31.4072 16.139C31.4802 16.0974 31.5385 16.0496 31.5806 15.9954V16.1788H31.8202V15.3081C31.8202 15.1229 31.7798 14.9796 31.6973 14.8789C31.6162 14.7785 31.4721 14.7275 31.2681 14.7275C31.1772 14.7275 31.0914 14.7402 31.0088 14.7626ZM31.4367 15.9126C31.3783 15.954 31.3021 15.973 31.2082 15.973C31.1256 15.973 31.0608 15.9523 31.0155 15.9124C30.9701 15.871 30.9474 15.8168 30.9474 15.7497C30.9474 15.71 30.9555 15.6765 30.9734 15.6462C30.9913 15.6159 31.0155 15.5919 31.0431 15.5728C31.0732 15.5527 31.1066 15.5381 31.1418 15.5297C31.1791 15.5201 31.2163 15.5153 31.2552 15.5153C31.3816 15.5153 31.49 15.5456 31.5791 15.6094V15.7896C31.5371 15.8364 31.4892 15.8779 31.4367 15.9126ZM34.0798 14.2585C34.1316 14.2348 34.1801 14.1949 34.2255 14.1359L34.0862 13.9365C34.0506 13.9844 34.0102 14.0178 33.9647 14.0354C33.9166 14.0542 33.8667 14.068 33.8158 14.0768L33.7673 14.0854C33.7251 14.0927 33.6799 14.1008 33.6312 14.1088C33.5531 14.1232 33.477 14.1468 33.4045 14.179C33.2894 14.2284 33.1972 14.2953 33.1275 14.3798C33.0578 14.4644 33.0028 14.56 32.9654 14.6654C32.9276 14.7722 32.9021 14.883 32.8894 14.9955C32.8763 15.1105 32.87 15.2203 32.87 15.3255C32.87 15.4612 32.8877 15.5839 32.9233 15.6939C32.9591 15.8041 33.0091 15.8965 33.0755 15.9714C33.1419 16.0481 33.2214 16.1056 33.3153 16.147C33.4093 16.1884 33.5145 16.2091 33.6327 16.2091C33.7413 16.2091 33.8417 16.1884 33.9324 16.1501C34.0198 16.1132 34.0991 16.0597 34.1657 15.9923C34.2303 15.9268 34.2823 15.8486 34.3179 15.761C34.3551 15.6732 34.373 15.5791 34.373 15.4802C34.373 15.3734 34.3568 15.2763 34.326 15.19C34.2976 15.1078 34.2524 15.0323 34.1932 14.9685C34.1339 14.9056 34.0614 14.8566 33.9809 14.8247C33.8922 14.7899 33.7977 14.7726 33.7024 14.7737C33.6408 14.7737 33.5809 14.7818 33.5226 14.7977C33.4659 14.8136 33.4114 14.8367 33.3606 14.8663C33.3112 14.8945 33.266 14.9293 33.2262 14.9698C33.1873 15.0099 33.155 15.0545 33.1323 15.1055H33.1258C33.1308 15.0401 33.1388 14.9732 33.1533 14.9046C33.1679 14.836 33.1889 14.7705 33.2166 14.7084C33.2441 14.6463 33.2797 14.5903 33.3234 14.5393C33.3703 14.4879 33.4277 14.4471 33.4918 14.4197C33.5623 14.3863 33.637 14.3622 33.7138 14.348L33.7646 14.3388C33.8152 14.3296 33.8635 14.3208 33.9097 14.3112C33.9713 14.2986 34.0279 14.2823 34.0798 14.2585ZM33.1793 15.6222C33.1542 15.5417 33.1422 15.4577 33.1437 15.3734C33.1545 15.3251 33.1743 15.2791 33.202 15.2379C33.2295 15.1948 33.2651 15.1567 33.3073 15.1229C33.4024 15.0487 33.52 15.0089 33.6408 15.0099C33.7915 15.0099 33.9049 15.056 33.9842 15.1471C34.0637 15.2395 34.1025 15.3543 34.1025 15.493C34.1025 15.5617 34.0894 15.624 34.0669 15.6813C34.045 15.7378 34.012 15.7894 33.9697 15.8329C33.9274 15.8765 33.8768 15.9111 33.8208 15.9348C33.7624 15.9603 33.6991 15.9732 33.6279 15.9732C33.5567 15.9732 33.4918 15.9588 33.432 15.93C33.3725 15.9019 33.3199 15.861 33.278 15.8104C33.2341 15.7541 33.2007 15.6903 33.1793 15.6222ZM36.3359 14.7578H36.08V16.1773H36.3359V14.7578ZM34.7421 14.7578H34.9981V15.1837H35.2346C35.3463 15.1837 35.4369 15.1981 35.5099 15.2251C35.5828 15.2523 35.6411 15.2889 35.6848 15.3336C35.7285 15.3782 35.7593 15.4309 35.7772 15.4898C35.7949 15.5488 35.8047 15.6094 35.8047 15.6732C35.8047 15.737 35.7949 15.7978 35.7739 15.8584C35.7545 15.9189 35.7204 15.9714 35.675 16.0194C35.6298 16.0673 35.5682 16.1056 35.4904 16.1344C35.4127 16.1629 35.3187 16.1788 35.2054 16.1788H34.7406V14.7578H34.7421ZM34.9981 15.4212V15.9412H35.1844C35.3124 15.9412 35.403 15.9189 35.4548 15.8741C35.5068 15.8294 35.5326 15.7658 35.5326 15.6813C35.5326 15.595 35.5051 15.5298 35.4533 15.485C35.3998 15.4403 35.3107 15.4179 35.1877 15.4179H34.9981V15.4212Z" fill="white"/>
<path d="M38.0287 15.9731C37.9671 16.0513 37.8861 16.1103 37.7889 16.1502C37.6891 16.1906 37.5824 16.2112 37.4748 16.2107C37.3677 16.2122 37.2612 16.1944 37.1605 16.1582C37.07 16.1255 36.9872 16.0745 36.9176 16.0083C36.8487 15.9421 36.7946 15.8621 36.7588 15.7737C36.7203 15.6768 36.701 15.5734 36.7022 15.4692C36.7022 15.3657 36.7199 15.2699 36.7572 15.179C36.7929 15.088 36.8446 15.01 36.9095 14.9444C36.9744 14.8775 37.0519 14.8265 37.1395 14.7867C37.2318 14.7462 37.3318 14.726 37.4326 14.7276C37.5475 14.7276 37.6545 14.742 37.7517 14.7706C37.8489 14.7993 37.9315 14.8472 37.9994 14.9143L37.8813 15.1136C37.8241 15.0621 37.7568 15.0229 37.6836 14.9986C37.614 14.9763 37.5413 14.9651 37.4682 14.9653C37.4036 14.9653 37.342 14.9779 37.2819 15.0019C37.223 15.0256 37.1692 15.0602 37.1233 15.1041C37.0767 15.1494 37.0398 15.2037 37.0148 15.2635C36.9872 15.3256 36.9743 15.3942 36.9743 15.4707C36.9743 15.5489 36.9888 15.6191 37.0163 15.6796C37.0438 15.7419 37.0812 15.7946 37.1281 15.8391C37.1751 15.884 37.2301 15.9173 37.2933 15.9397C37.3566 15.962 37.423 15.9748 37.4942 15.9748C37.5816 15.9748 37.6593 15.9572 37.729 15.9236C37.7963 15.8912 37.8568 15.8464 37.9072 15.7914L38.0287 15.9731ZM38.1598 14.7579H39.4734V15.01H38.9452V16.1772H38.6894V15.01H38.1615V14.7579H38.1598Z" fill="white"/>
<path fill-rule="evenodd" clip-rule="evenodd" d="M40.0079 14.7577H39.752V16.8085H40.0079V16.1116C40.0597 16.1452 40.1213 16.1691 40.1925 16.185C40.2637 16.2009 40.3382 16.2088 40.4144 16.2088C40.5278 16.2088 40.6298 16.1881 40.7222 16.15C40.8108 16.1122 40.8911 16.0575 40.9585 15.989C41.0249 15.9202 41.0752 15.8404 41.1108 15.7463C41.1464 15.6524 41.1643 15.5518 41.1643 15.445C41.1643 15.3396 41.1481 15.2424 41.1173 15.1546C41.0883 15.0713 41.0432 14.9944 40.9845 14.9283C40.9269 14.8638 40.8555 14.8131 40.7755 14.7799C40.6881 14.7425 40.5937 14.724 40.4985 14.7257C40.3983 14.7257 40.3043 14.7449 40.2152 14.7832C40.1261 14.8215 40.0564 14.8675 40.0079 14.925V14.7577ZM40.1862 15.0209C40.2591 14.9825 40.3384 14.9634 40.4242 14.9634C40.4987 14.9634 40.5651 14.9745 40.6252 14.9984C40.6835 15.0224 40.732 15.0559 40.7726 15.1006C40.813 15.1452 40.8438 15.1964 40.8633 15.2568C40.8842 15.3174 40.8941 15.3829 40.8941 15.4546C40.8941 15.5313 40.881 15.5997 40.8585 15.6635C40.8372 15.724 40.8035 15.7795 40.7595 15.8262C40.7153 15.8725 40.6618 15.9088 40.6025 15.933C40.5363 15.9606 40.4651 15.9742 40.3935 15.9729C40.324 15.9729 40.2591 15.965 40.1975 15.9491C40.1301 15.9308 40.0661 15.9017 40.0081 15.8628V15.1594C40.0534 15.1054 40.1134 15.0592 40.1862 15.0209ZM43.1273 14.7575H42.8713V16.177H43.1273V14.7575ZM41.5319 14.7575H41.7879V15.1834H42.0242C42.1361 15.1834 42.2267 15.1978 42.2997 15.2248C42.3726 15.252 42.4309 15.2886 42.4746 15.3333C42.5183 15.3779 42.5491 15.4306 42.5668 15.4895C42.5847 15.5485 42.5943 15.6091 42.5943 15.6729C42.5943 15.7367 42.5847 15.7975 42.5637 15.8581C42.5443 15.9186 42.5102 15.9711 42.4648 16.0191C42.4196 16.067 42.358 16.1053 42.2802 16.1341C42.2025 16.1626 42.1085 16.1785 41.9952 16.1785H41.5304V14.7575H41.5319ZM41.7896 15.4209V15.9409H41.9759C42.1037 15.9409 42.1946 15.9186 42.2463 15.8738C42.2981 15.8291 42.3241 15.7655 42.3241 15.681C42.3241 15.5947 42.2966 15.5295 42.2448 15.4847C42.1913 15.44 42.1022 15.4176 41.9792 15.4176H41.7896V15.4209Z" fill="white"/>
<path d="M44.3551 15.4421L44.9025 16.1773H44.5884L44.1656 15.6031L43.7363 16.1773H43.4384L43.9825 15.4547L43.4707 14.7578H43.785L44.1754 15.2937L44.572 14.7578H44.8702L44.3551 15.4421ZM21.8715 17.9316H21.0861V19.115H20.8301V17.6957H22.1273V19.115H21.8715V17.9316ZM23.5801 17.9475H23.0748L23.0585 18.1867C23.0408 18.3893 23.0165 18.552 22.9825 18.6762C22.9484 18.8008 22.9062 18.8965 22.8577 18.9634C22.8092 19.0304 22.7525 19.0766 22.6876 19.0991C22.6207 19.1232 22.5499 19.1351 22.4788 19.1341L22.4593 18.8884C22.4868 18.89 22.5192 18.8836 22.5548 18.8677C22.5906 18.8518 22.6262 18.8167 22.6601 18.7642C22.6941 18.7098 22.7249 18.6333 22.7525 18.5344C22.78 18.434 22.7979 18.3033 22.8075 18.1388L22.8335 17.697H23.8361V19.1165H23.5801V17.9475Z" fill="white"/>
<path fill-rule="evenodd" clip-rule="evenodd" d="M24.5254 17.6986C24.4426 17.7209 24.3682 17.7527 24.305 17.7926L24.3732 17.9936C24.4315 17.9649 24.4898 17.9409 24.5479 17.9202C24.6062 17.8995 24.6809 17.8899 24.7698 17.8899C24.8412 17.8899 24.8978 17.901 24.9415 17.9233C24.9854 17.9442 25.0177 17.976 25.0404 18.0143C25.063 18.0527 25.0776 18.1006 25.0857 18.1562C25.0938 18.2121 25.097 18.2727 25.097 18.338C25.0447 18.3018 24.9849 18.2773 24.9221 18.2664C24.8613 18.2543 24.7995 18.2479 24.7375 18.2472C24.6615 18.2472 24.5901 18.2583 24.5221 18.2775C24.454 18.2966 24.3957 18.3254 24.3487 18.3637C24.3008 18.402 24.262 18.4505 24.2354 18.5056C24.2069 18.5659 24.1925 18.6319 24.1934 18.6986C24.1934 18.8371 24.2338 18.9458 24.3148 19.0223C24.3957 19.0988 24.5027 19.1371 24.6355 19.1371C24.7554 19.1371 24.8509 19.1164 24.9238 19.0748C24.9966 19.0334 25.0549 18.9855 25.097 18.9313V19.1147H25.3369V18.2439C25.3369 18.059 25.2962 17.9154 25.2137 17.815C25.1326 17.7144 24.9885 17.6636 24.7845 17.6636C24.6969 17.6636 24.6098 17.6756 24.5254 17.6986ZM24.9546 18.8483C24.8965 18.8899 24.8203 18.909 24.7263 18.909C24.642 18.909 24.5789 18.8883 24.5337 18.8483C24.4883 18.8069 24.4655 18.7526 24.4655 18.6857C24.4655 18.6459 24.4736 18.6123 24.4915 18.582C24.5092 18.5518 24.5337 18.5278 24.5612 18.5086C24.5887 18.4895 24.6226 18.4751 24.6599 18.4655C24.697 18.456 24.7351 18.4512 24.7733 18.4513C24.8996 18.4513 25.0081 18.4816 25.0972 18.5452V18.7254C25.0552 18.7723 25.0072 18.8136 24.9546 18.8483Z" fill="white"/>
<path d="M25.5879 17.6958H26.9015V17.9477H26.3734V19.1151H26.1176V17.9478H25.5896V17.6958H25.5879Z" fill="white"/>
<path fill-rule="evenodd" clip-rule="evenodd" d="M28.0968 19.1003C28.194 19.07 28.2766 19.0236 28.3478 18.96L28.2701 18.7622C28.2231 18.8038 28.16 18.8389 28.0837 18.8676C28.0077 18.8964 27.9219 18.9105 27.828 18.9105C27.6871 18.9105 27.5704 18.8739 27.478 18.799C27.3857 18.7241 27.3356 18.6188 27.3243 18.4847H28.4321C28.4433 18.4354 28.4483 18.3794 28.4483 18.3141C28.4483 18.2169 28.4304 18.1291 28.3948 18.0494C28.3616 17.972 28.3131 17.902 28.2522 17.8437C28.1906 17.7857 28.1179 17.7407 28.0385 17.7113C27.9554 17.6792 27.8669 17.6629 27.7777 17.6634C27.6578 17.6634 27.5525 17.6841 27.4603 17.7224C27.3731 17.7588 27.2943 17.8126 27.2286 17.8803C27.1648 17.9477 27.1157 18.0275 27.0844 18.1147C27.0503 18.2077 27.0333 18.306 27.0342 18.4049C27.0342 18.5167 27.0537 18.6186 27.0893 18.7097C27.1251 18.8005 27.1784 18.8787 27.2448 18.9441C27.3112 19.0094 27.3922 19.0589 27.4879 19.094C27.5902 19.1302 27.6982 19.148 27.8068 19.1467C27.9024 19.1467 27.9996 19.1306 28.0968 19.1003ZM27.4474 18.0063C27.5267 17.9346 27.632 17.8995 27.7648 17.8995C27.8913 17.8995 27.99 17.9346 28.063 17.9999C28.1357 18.067 28.1746 18.1594 28.1811 18.2775H27.3066C27.3189 18.173 27.369 18.0766 27.4474 18.0063ZM28.573 17.6954H28.8969L29.3908 18.3796L28.8629 19.1147H28.5488L29.1025 18.3794L28.573 17.6954ZM29.4539 17.6954H29.7099V19.1147H29.4539V17.6954ZM30.6249 19.1147L30.0614 18.3794L30.5878 17.6952H30.2702L29.773 18.3794L30.3075 19.1147H30.6249ZM31.7943 19.1003C31.8915 19.07 31.9741 19.0236 32.0453 18.96L31.9676 18.7622C31.9206 18.8038 31.8575 18.8389 31.7815 18.8676C31.7052 18.8964 31.6194 18.9105 31.5255 18.9105C31.3846 18.9105 31.2679 18.8739 31.1756 18.799C31.0834 18.7241 31.0331 18.6188 31.0218 18.4847H32.1296C32.141 18.4354 32.1458 18.3794 32.1458 18.3141C32.1458 18.2169 32.1281 18.1291 32.0923 18.0494C32.0591 17.972 32.0107 17.9021 31.9499 17.8437C31.8882 17.7857 31.8155 17.7407 31.736 17.7113C31.6529 17.6792 31.5644 17.6629 31.4752 17.6634C31.3555 17.6634 31.2502 17.6841 31.1579 17.7224C31.0707 17.7589 30.992 17.8126 30.9263 17.8803C30.8624 17.9476 30.8133 18.0275 30.7822 18.1147C30.7479 18.2077 30.7309 18.306 30.7319 18.4049C30.7319 18.5167 30.7514 18.6186 30.787 18.7097C30.8226 18.8005 30.8761 18.8787 30.9425 18.9441C31.0089 19.0094 31.0897 19.0589 31.1854 19.094C31.2878 19.1302 31.3958 19.148 31.5045 19.1467C31.6029 19.1459 31.7007 19.1303 31.7943 19.1003ZM31.145 18.0063C31.2244 17.9346 31.3297 17.8995 31.4625 17.8995C31.5873 17.8995 31.6875 17.9346 31.7605 17.9999C31.8334 18.067 31.8723 18.1594 31.8786 18.2775H31.0041C31.0164 18.173 31.0665 18.0766 31.145 18.0063ZM33.1842 17.2185C33.0335 17.2185 32.9509 17.1355 32.938 16.9697H32.6966C32.6966 17.0334 32.708 17.0909 32.729 17.1451C32.7501 17.1993 32.7809 17.2455 32.8214 17.2839C32.8618 17.3222 32.9137 17.3525 32.9736 17.3763C33.0335 17.4002 33.1031 17.4113 33.1824 17.4113C33.2554 17.4113 33.3202 17.4002 33.3786 17.3763C33.4369 17.354 33.4854 17.3222 33.5275 17.2839C33.5679 17.2455 33.6005 17.1993 33.623 17.1451C33.6457 17.0909 33.6571 17.0334 33.6571 16.9697H33.4174C33.4061 17.1355 33.3266 17.2185 33.1842 17.2185ZM32.4924 17.6952V19.1147H32.7484L33.5808 18.0572V19.1147H33.8368V17.6952H33.5808L32.7484 18.7526V17.6952H32.4924Z" fill="white"/>
</svg>
