<svg width="110" height="36" viewBox="0 0 110 36" fill="none" xmlns="http://www.w3.org/2000/svg">
<path d="M1.17468 23.1741C3.39775 30.5879 10.2746 35.9939 18.4119 35.9939C28.351 35.9939 36.4074 27.9375 36.4074 17.9999C36.4074 8.06223 28.351 0.00585938 18.4134 0.00585938C8.87735 0.00585938 1.07428 7.42433 0.458008 16.8044C1.62414 18.7598 2.07701 19.9692 1.17499 23.1741H1.17468Z" fill="url(#paint0_linear_338_295)"/>
<path d="M17.4869 13.493L17.4889 13.583L13.0859 19.979C12.3729 19.947 11.6559 20.072 10.9779 20.351C10.6779 20.473 10.3979 20.623 10.1349 20.796L0.464945 16.816C0.464945 16.816 0.240945 20.496 1.17495 23.24L8.00995 26.06C8.35295 27.594 9.40494 28.94 10.9579 29.586C13.4979 30.646 16.4259 29.438 17.4819 26.896C17.7535 26.2454 17.8847 25.5448 17.8669 24.84L24.1669 20.338L24.3209 20.341C28.0909 20.341 31.1559 17.267 31.1559 13.493C31.1549 11.6795 30.4348 9.9405 29.1535 8.65717C27.8723 7.37384 26.1344 6.65094 24.3209 6.64697C22.5075 6.65094 20.7696 7.37384 19.4884 8.65717C18.2071 9.9405 17.488 11.6795 17.4869 13.493ZM16.4309 26.455C15.6129 28.418 13.3569 29.349 11.3959 28.532C10.4909 28.155 9.80794 27.465 9.41394 26.642L11.6389 27.564C13.0849 28.166 14.7439 27.481 15.3449 26.034C15.6343 25.3393 15.636 24.5582 15.3499 23.8623C15.0638 23.1663 14.5132 22.6123 13.8189 22.322L11.5189 21.369C12.4059 21.032 13.4149 21.019 14.3589 21.412C14.8267 21.6054 15.2514 21.8898 15.6083 22.2488C15.9652 22.6078 16.2472 23.0341 16.4379 23.503C16.8279 24.453 16.8279 25.505 16.4319 26.453M24.3219 18.053C21.8219 18.053 19.7689 16.006 19.7689 13.491C19.7689 10.976 21.8119 8.93097 24.3219 8.93097C26.8319 8.93097 28.8769 10.978 28.8769 13.491C28.8769 16.004 26.8339 18.053 24.3219 18.053ZM20.9099 13.483C20.9099 11.59 22.4419 10.055 24.3299 10.055C26.2179 10.055 27.7499 11.59 27.7499 13.483C27.7499 15.376 26.2179 16.909 24.3299 16.909C22.4419 16.909 20.9099 15.375 20.9099 13.483Z" fill="white"/>
<path d="M109.557 24.7198H107.113V16.8998L104.263 21.9898H102.633L100.189 16.8998V24.7198H97.3393V11.2798H100.189L103.447 18.5298L107.113 11.2798H109.557V24.7198ZM93.6733 24.7198H90.8233L90.0083 22.3578H85.5283L84.7133 24.7198H81.8633L86.7503 11.2798H88.7863L93.6733 24.7198ZM89.6003 20.1178L87.9703 15.2308L86.3403 20.1178H89.6003ZM77.7903 24.7198H68.8303V11.2798H77.7903V13.5998H71.6803V16.7768H76.9753V19.0998H71.6803V22.3998H77.7903V24.7198ZM64.7543 13.5998H61.4963V24.7198H58.6463V13.5998H54.9803V11.2798H64.7553L64.7543 13.5998ZM51.7213 20.7698C51.7213 23.5398 49.2773 24.8018 46.8343 24.8428C44.3903 24.8428 42.7613 24.2728 41.9473 23.0508L43.5773 21.3808C44.3923 22.1138 45.2073 22.5208 46.8353 22.5208C48.4633 22.5208 49.2793 21.9508 49.2793 20.8508C49.2793 19.8328 48.4643 19.3848 47.6493 19.2208L46.0193 19.0168C43.5753 18.6908 42.3533 17.4288 42.3533 15.2288C42.3533 14.0068 42.7603 13.0288 43.5753 12.2558C44.3903 11.5228 45.6113 11.1558 46.8333 11.1558C48.8693 11.1558 50.0913 11.6858 51.3133 12.7038L49.6833 14.3738C48.8683 13.7638 48.0533 13.4368 46.8333 13.4368C45.6113 13.5168 44.7973 13.9668 44.7973 15.1468C44.7973 16.0838 45.6123 16.5318 46.4273 16.6128L48.0573 16.8568C50.0933 17.1008 51.7233 18.4868 51.7233 20.7568L51.7213 20.7698Z" fill="white"/>
<defs>
<linearGradient id="paint0_linear_338_295" x1="18.4329" y1="0.00585938" x2="18.4329" y2="35.9939" gradientUnits="userSpaceOnUse">
<stop stop-color="#111D2E"/>
<stop offset="0.212" stop-color="#051839"/>
<stop offset="0.407" stop-color="#0A1B48"/>
<stop offset="0.581" stop-color="#132E62"/>
<stop offset="0.738" stop-color="#144B7E"/>
<stop offset="0.873" stop-color="#136497"/>
<stop offset="1" stop-color="#1387B8"/>
</linearGradient>
</defs>
</svg>
