<svg xmlns="http://www.w3.org/2000/svg" viewBox="0 0 355 140"><path d="M5 51.3v18.8l50.6-5.6V44.2L5 51.3m16.2 20v64.3h18.5V69.4l-18.5 1.9m41.3-28v92.3H82V40.5l-19.5 2.8M85.7 40v21.2l28.2-3.1V36l-28.2 4m0 37.1v21.6l18.5-1V75.5l-18.5 1.6m0 37.2v21.3h28.2v-22.2l-28.2.9m101.1-88.5v109.8h25.6V22.2l-25.6 3.6m30.4-4.3v25.3l37.3-4.1V16.2l-37.3 5.3m0 44.3v25.7l24.5-1.3V63.7l-24.5 2.1m0 44.5v25.3h37.3v-26.4l-37.3 1.1M121.3 35v100.6h22.3V31.9L121.3 35m26.5 77.4v23.2h32.3v-24.2l-32.3 1M338.2 15c-8.1-7.6-20-10.8-32.9-8.9v28c5.3-.3 9.5 1.7 11.4 5.6 3 6.2-.1 15.5-7.4 24.1-11.3 13.3-41.2 40.5-41.2 40.5l43-1.4c26.3-25.7 35.7-41.2 37.4-60.7.9-10.3-2.9-20.2-10.3-27.2M350 135.6v-29.3l-87.2 2.6m0 0v26.7H350M300.3 6.7c-25.3 5.4-37.8 24-36.3 54.4l27-2.4c-1.2-17.2 4-21.2 9.3-23.5V6.7" fill="#f0f3f7"/></svg>