<?xml version="1.0" encoding="UTF-8"?>
<!-- Generator: Adobe Illustrator 21.1.0, SVG Export Plug-In . SVG Version: 6.00 Build 0)  -->
<svg version="1.1" id="Layer_1" xmlns="http://www.w3.org/2000/svg" xmlns:xlink="http://www.w3.org/1999/xlink" x="0px" y="0px" viewBox="0 0 835.5 196.9" style="enable-background:new 0 0 835.5 196.9;" xml:space="preserve">
<style type="text/css">
	.st0{fill:#5F93F2;}
	.st1{filter:url(#Adobe_OpacityMaskFilter);}
	.st2{fill:#FFFFFF;}
	.st3{mask:url(#mask-2_1_);fill:#5F93F2;}
</style>
<g id="Layer_1_1_">
	<path id="Combined-Shape" class="st0" d="M99.5,0c15.6,0,30.4,3.6,43.8,10c2.1,0.9,4.2,2.1,6.3,3.2l-9.1,8.1L126.7,7.1l-23.6,20.7   L89.2,13L45.9,51.5l27.8,30.3l-10.8,9.4l27.4,30.3l-10.8,9.4l39.2,43.1l23.2-21.1l20.2,22.6c-4,3-8.4,6-13.1,8.7   c-14.5,8.1-31.2,12.8-49.1,12.8c-55,0-99.7-44.2-99.7-98.5C-0.2,44.4,44.5,0,99.5,0z M81.2,92.4L105,71.3l21.3,23.5l-23.8,21.1   L81.2,92.4z M98.2,133l23.6-21.3l21.5,23.5l-23.8,21.1L98.2,133z M64.3,52.3l23.8-21.1l21.3,23.5L85.6,75.8L64.3,52.3z M107.9,41   l17.7-15.8l16,17.5l-17.7,16L107.9,41z M139.5,113.4l17.7-15.8l16,17.7l-17.7,15.8L139.5,113.4z M155.1,149l17.7-15.8l16,17.5   l-17.7,16L155.1,149z M162.3,67.7l11.8-10.5l10.7,11.7l-11.8,10.5L162.3,67.7z M147.1,32.9l11.8-10.7L169.5,34l-11.8,10.5   L147.1,32.9z M177.3,102.5L189.1,92l10.8,11.7l-12,10.5L177.3,102.5z M124.2,76.4l17.7-15.8l16,17.5l-17.7,15.8L124.2,76.4z"/>
	<g>
		<g id="Group-27" transform="translate(0.000000, 2.608752)">
			<g id="Clip-26">
			</g>
			<defs>
				<filter id="Adobe_OpacityMaskFilter" filterUnits="userSpaceOnUse" x="230" y="53.8" width="104" height="90.9">
					<feColorMatrix type="matrix" values="1 0 0 0 0  0 1 0 0 0  0 0 1 0 0  0 0 0 1 0"/>
				</filter>
			</defs>
			<mask maskUnits="userSpaceOnUse" x="230" y="53.8" width="104" height="90.9" id="mask-2_1_">
				<g class="st1">
					<polygon id="path-1_1_" class="st2" points="230,53.8 230,144.7 334,144.7 334,53.8      "/>
				</g>
			</mask>
			<polygon id="Fill-25" class="st3" points="282.2,80.7 281.3,80.7 264.4,144.7 250.6,144.7 230,53.8 244.3,53.8 258.5,121.7     259.4,121.7 276,53.8 287.4,53.8 305.1,121.7 306,121.7 319,53.8 334,53.8 313.3,144.7 299.5,144.7    "/>
		</g>
		<path id="Fill-28" class="st0" d="M352.1,108.6h29.2c-0.6-13.5-7.1-18.8-14-18.8C359.5,89.8,353.5,95.8,352.1,108.6 M391.5,132.8    v9.7c-5.7,3.3-13.4,5.9-22.6,5.9c-21.4,0-30.2-13.3-30.2-33.6c0-19.5,9.8-33.6,29-33.6c15.9,0,25.8,10.4,25.8,31.3v4.7h-41.6    c0,15.4,6.2,22.2,19.4,22.2C378.1,139.4,384.5,137,391.5,132.8"/>
		<path id="Fill-30" class="st0" d="M423.1,138.1c4.1,1.8,8.6,2.1,11.7,2.1c9.4,0,16.6-5.9,16.6-26.7c0-16.3-5.9-21.5-14.4-21.5    c-5.1,0-8.8,1.4-13.9,4.2L423.1,138.1L423.1,138.1z M423.2,86.7c3.8-2,10.3-4.7,17.2-4.7c15.8,0,24.4,11,24.4,31.5    c0,24-11.5,35.6-30,35.6c-6.8,0-17.2-2.2-24.9-6.3V53.4l13.3-3.2L423.2,86.7L423.2,86.7z"/>
		<polygon id="Fill-32" class="st0" points="522.3,128.1 522.9,128.1 550.2,56.4 566,56.4 566,147.3 552.3,147.3 552.3,81.4    551.1,81.4 525.1,147.3 516.9,147.3 490.9,82.9 489.7,82.9 489.7,147.3 478.2,147.3 478.2,56.4 493.7,56.4   "/>
		<path id="Fill-34" class="st0" d="M622.3,114.8c0-17.3-7-24.6-15.7-24.6c-8.4,0-15.7,7.3-15.7,24.6c0,17.6,6.6,24.6,15.7,24.6    C615.7,139.4,622.3,132.4,622.3,114.8 M577.6,114.8c0-22.4,12.3-33.6,29.1-33.6c16.8,0,29.1,11.2,29.1,33.6    c0,21.9-11.6,33.6-29.1,33.6C589.2,148.4,577.6,136.7,577.6,114.8"/>
		<path id="Fill-36" class="st0" d="M645.8,90.7c5.7-3.5,17.9-9.5,32.5-9.5c15.3,0,21,6,21,19.2v46.4h-13.3v-43.5    c0-10.1-5-11.9-11.5-11.9c-5.1,0-11.6,2.3-15.6,4.6v50.8h-13.3L645.8,90.7L645.8,90.7z"/>
		<path id="Fill-38" class="st0" d="M727.5,108.6h29.2c-0.6-13.5-7.1-18.8-14-18.8C734.9,89.8,728.9,95.8,727.5,108.6 M766.9,132.8    v9.7c-5.7,3.3-13.4,5.9-22.6,5.9c-21.4,0-30.2-13.3-30.2-33.6c0-19.5,9.8-33.6,29-33.6c16,0,25.8,10.4,25.8,31.3v4.7h-41.6    c0,15.4,6.3,22.2,19.4,22.2C753.5,139.4,759.9,137,766.9,132.8"/>
		<path id="Fill-40" class="st0" d="M821.8,81.2h13.7l-23.1,64.1c-6.4,17.7-14.2,26.9-28.8,26.9v-10.5c8.7,0,14-6.9,17.1-16.4    l-24.5-64.1h14l16.3,47.2h0.8L821.8,81.2z"/>
	</g>
</g>
<g id="Слой_1">
</g>
</svg>