<svg width="239" height="50" viewBox="0 0 239 50" fill="none" xmlns="http://www.w3.org/2000/svg">
<g clip-path="url(#clip0_326_261)">
<path d="M45.4111 0C31.487 0 20.4111 11.2342 20.4111 25C20.4111 38.924 31.6453 50 45.4111 50C59.1769 50 70.4111 38.7658 70.4111 25C70.5693 11.2342 59.1769 0 45.4111 0ZM45.4111 34.3354C40.3478 34.3354 36.0756 30.0633 36.0756 25C36.0756 19.9367 40.3478 15.6646 45.4111 15.6646C50.4744 15.6646 54.7465 19.9367 54.7465 25C54.7465 30.0633 50.6326 34.3354 45.4111 34.3354Z" fill="#8B3FFD"/>
<path d="M20.4114 7.27881V43.6712H11.3924L0 7.27881H20.4114Z" fill="#8B3FFD"/>
<path d="M231.329 13.7661L225.791 27.3737C225.633 27.5319 225.633 27.8483 225.633 28.0066L225.474 28.323L225.316 28.0066C225.316 27.8483 225.158 27.5319 225.158 27.3737L219.62 13.7661H212.5L221.835 37.0256L217.88 45.8863H225L238.133 13.7661H231.329Z" fill="white"/>
<path d="M178.797 15.0317C177.531 14.0823 175.949 13.4494 174.05 13.2912C170.886 12.9747 167.88 14.0823 165.823 16.1393V13.6077H159.335V36.8672H165.823V24.6836C165.823 21.9937 166.297 21.2026 166.772 20.5697C167.563 19.3039 168.987 18.671 170.728 18.671C172.468 18.671 174.05 19.4621 174.842 20.7279C175.316 21.6773 175.474 22.9431 175.474 23.576C175.474 25.633 175.474 36.8672 175.474 36.8672H181.962V22.7849C181.962 19.1456 180.854 16.614 178.797 15.0317Z" fill="white"/>
<path d="M146.993 13.9241C143.829 12.8165 140.348 12.9748 137.183 14.3988C135.126 15.3482 133.228 16.9304 132.12 18.9874C131.012 20.7279 130.538 22.9431 130.538 25.3165C130.538 27.6899 131.012 29.9051 132.12 31.6456C133.228 33.3861 134.652 34.9684 136.55 35.9178C138.449 36.8672 140.664 37.5001 142.721 37.5001C143.829 37.5001 144.936 37.3418 146.044 37.0254C146.993 36.7089 147.943 36.3925 148.892 35.9178C150.791 34.8102 152.373 33.3861 153.323 31.6456C154.43 29.9051 154.905 27.6899 154.905 25.3165C155.063 20.095 152.057 15.6646 146.993 13.9241ZM148.892 25.633C148.734 27.6899 148.101 29.4304 146.835 30.538C145.886 31.3292 144.462 31.8039 142.721 31.9621C140.981 31.9621 139.715 31.4874 138.607 30.538C137.342 29.4304 136.709 27.6899 136.55 25.633C136.392 23.2596 137.342 21.3608 139.082 20.095C140.031 19.4621 141.297 18.9874 142.563 18.9874C143.987 18.9874 145.095 19.4621 146.202 20.095C148.101 21.2026 149.05 23.2596 148.892 25.633Z" fill="white"/>
<path d="M123.101 15.0315C121.835 14.0822 120.253 13.4493 118.354 13.291C118.038 13.291 117.563 13.291 117.247 13.291C114.715 13.291 112.5 14.3986 110.601 16.6138L110.285 17.0885H109.652C109.177 16.2974 108.544 15.6645 107.911 15.1898C106.645 14.2404 105.063 13.6075 103.164 13.4493C100.158 13.1328 97.7845 14.0822 95.7275 16.2974V13.924H89.2402V37.1834H95.7275V24.9999V24.6834C95.7275 22.1518 96.044 21.5189 96.5186 20.7278C97.3098 19.4619 98.7338 18.6708 100.316 18.829C101.899 18.829 103.323 19.6202 104.114 20.886C104.747 21.8353 104.747 22.9429 104.747 24.0505V37.0252H111.234V24.5252C111.234 22.1518 111.55 21.3607 112.025 20.5695C112.816 19.3037 114.24 18.6708 115.823 18.6708C117.405 18.6708 118.671 19.4619 119.462 20.7278C119.937 21.5189 120.095 22.4683 120.095 23.1012C120.095 23.4176 120.095 23.7341 120.095 23.8923V36.867H126.582V22.6265C126.582 21.3607 126.424 20.0948 126.107 18.9872C125.475 17.405 124.525 15.9809 123.101 15.0315Z" fill="white"/>
<path d="M206.329 29.905C205.38 30.8544 203.164 32.5949 200.158 32.7531C197.626 32.9113 195.728 32.1202 194.304 30.6962C193.671 30.0632 193.196 29.1139 192.88 28.1645H210.759V28.0063C210.918 27.0569 211.076 26.2658 211.076 25.3164C211.076 24.5253 210.918 23.4177 210.601 21.9936C209.81 19.3037 208.228 17.2468 206.171 15.6645C203.797 13.924 201.582 13.4493 200.949 13.4493C196.361 12.6582 191.139 14.7151 188.449 18.9873C186.55 21.9936 186.709 24.9999 186.709 25.9493C186.709 27.0569 186.867 30.5379 189.715 33.7025C193.038 37.3417 197.626 37.4999 199.05 37.6582C205.38 37.8164 209.652 33.8607 210.601 33.0696L206.329 29.905ZM195.253 20.0949C196.202 19.462 197.31 18.9873 198.734 18.9873C200.158 18.9873 201.266 19.462 202.373 20.0949C203.323 20.886 204.114 21.8354 204.588 22.943H193.196C193.354 21.8354 194.145 20.7278 195.253 20.0949Z" fill="white"/>
</g>
<defs>
<clipPath id="clip0_326_261">
<rect width="239" height="50" fill="white"/>
</clipPath>
</defs>
</svg>
