<svg width="60" height="60" viewBox="0 0 60 60" fill="none" xmlns="http://www.w3.org/2000/svg">
<path d="M30 0C46.5685 0 60 13.4315 60 30C60 46.5685 46.5685 60 30 60C13.4315 60 0 46.5685 0 30C0 13.4315 13.4315 0 30 0Z" fill="#7988D6"/>
<path d="M29.1731 14.4233C29.4069 13.8621 30.012 13.2923 30.6702 12.8027C31.7596 11.9921 33.1781 12.6988 33.3934 14.0396C33.7206 16.0774 34.0072 17.4158 34.3141 19.1807C34.9055 22.5808 34.48 25.6022 37.3834 27.4678C38.624 28.2649 40.2599 29.2539 40.8046 29.5817C40.9285 29.6563 41.056 29.7206 41.1897 29.7759C41.6992 29.9866 43.076 30.5521 44.0592 30.9208C45.6263 31.5085 48.0346 32.0205 48.8026 32.1766C48.9661 32.2098 49.1279 32.2269 49.2945 32.2355C50.4858 32.297 55.5691 32.7024 55.5691 35.1411C55.5691 37.5021 52.7967 36.9912 51.1013 38.2871C48.9575 39.9256 45.9465 42.657 45.3679 43.1849C45.3014 43.2455 45.2339 43.3021 45.1621 43.3562C44.4839 43.867 40.7489 46.6409 38.2869 47.6485C35.6349 49.0104 31.5098 49.7027 30.9778 49.788C30.9389 49.7942 30.9018 49.7991 30.8627 49.8033C30.313 49.8619 25.9834 50.2994 23.631 49.797C20.1607 49.0558 14.7646 47.7253 17.8166 46.0371C20.3842 44.6169 22.7468 44.5544 23.4321 44.5704C23.565 44.5735 23.6943 44.5932 23.8249 44.6177C24.5701 44.7578 27.3861 45.2149 30.9206 44.8861C33.7256 44.6252 36.4321 43.6433 37.1804 43.3549C37.3169 43.3023 37.4465 43.2372 37.5721 43.1623L40.6653 41.3196C40.8808 41.1912 41.0787 41.0385 41.2443 40.85C42.0007 39.9893 44.048 37.337 41.8166 36.0619C39.9558 35.1935 38.7969 34.9769 38.4211 34.9258C38.3317 34.9136 38.2427 34.904 38.1532 34.8923C37.8248 34.8491 36.898 34.7411 35.4478 34.6807C32.3038 34.5497 29.7785 35.567 29.2676 35.7893C29.2031 35.8174 29.142 35.8437 29.0763 35.8691C28.5704 36.0646 26.1816 36.9823 24.3389 37.5965C21.7764 38.4507 20.4707 39.2429 17.8166 39.745C14.9775 40.2821 13.6192 40.7237 10.834 40.5123C8.92796 40.3677 7.89374 40.1568 5.99978 39.8985C4.31169 39.6683 3.95005 37.3947 4.84879 36.6757C6.38349 35.448 7.61122 35.448 9.60622 35.1411C12.7091 34.6637 17.3587 33.3528 17.785 33.2317C17.8084 33.2251 17.8263 33.2202 17.8498 33.214C18.2289 33.1134 21.7701 32.1543 23.8018 30.9208C25.4319 29.9311 26.3416 29.142 27.2547 27.4678C28.8045 24.6267 27.7914 22.4098 28.0221 19.1807C28.1755 17.0321 28.4057 16.2648 29.1731 14.4233Z" fill="#D9D9D9"/>
</svg>
