<svg width="32" height="32" viewBox="0 0 32 32" fill="none" xmlns="http://www.w3.org/2000/svg">
<g clip-path="url(#clip0_46_4)">
<path d="M10.8725 7.72311C10.0405 8.55511 9.58112 9.66281 9.58112 10.842C9.58112 12.021 10.0405 13.1287 10.8725 13.9607L11.8424 14.9306C12.5826 15.6708 13.8382 16.4875 16.2935 15.2216L20.081 11.332C21.4592 9.92313 23.2305 9.12679 25.063 9.08084H25.1345C27.998 9.02475 30.5605 10.5152 31.9898 12.8072V5.13511C32 2.29702 29.703 0 26.8648 0H17.8197L10.8725 7.72311Z" fill="#5894EF" style="mix-blend-mode:difference"/>
<path d="M31.3686 19.6186L18.0513 32.9697H25.5474C29.6422 32.9697 32.9697 29.6486 32.9697 25.545V17.6037C32.5122 18.327 31.981 19.006 31.3686 19.6186Z" fill="#5894EF" style="mix-blend-mode:difference"/>
<path d="M28.3962 20.275C29.3151 19.3562 29.7795 18.0851 29.6774 16.7937L29.6673 16.6661C29.4784 14.3793 27.554 12.6131 25.2672 12.6131C25.2366 12.6131 25.2111 12.6131 25.1804 12.6131C24.2616 12.6336 23.3326 13.0675 22.6129 13.8025L18.4578 18.075L18.2281 18.2026C14.8591 20.0606 11.7046 19.785 9.35653 17.4369L8.38669 16.4671C6.88594 14.9664 6.05902 12.9705 6.05902 10.8521C6.05902 8.74905 6.87063 6.76854 8.35096 5.27293L13.0726 0H5.13511C2.29702 0 0 2.29702 0 5.13511V26.8649C0 29.6979 2.29702 32 5.13511 32H16.6917L28.3962 20.275Z" fill="#5894EF" style="mix-blend-mode:difference"/>
<path d="M15.3152 21.5609L15.1357 22.0487C14.7215 23.1737 14.1255 24.202 13.3662 25.1038C12.4227 26.2265 11.9027 27.6505 11.9027 29.116C11.9027 31.451 10.9156 33.7055 9.19669 35.2999C7.45706 36.9149 5.18822 37.7039 2.81123 37.5291C-1.30766 37.2208 -4.64419 33.885 -4.95253 29.7693C-5.13201 27.3928 -4.34045 25.1268 -2.72281 23.3853C-1.48714 22.0555 0.174222 21.1445 1.96214 20.8179L4.21027 20.62V17.5856H3.46243C0.268565 17.5856 -2.81255 18.9314 -4.99165 21.2803C-7.20066 23.659 -8.28218 26.7556 -8.03826 30.0017C-7.61488 35.6311 -3.05186 40.1931 2.57882 40.6164C2.88027 40.6395 3.1771 40.651 3.47623 40.651C6.39167 40.651 9.14141 39.5743 11.3021 37.5728C13.6515 35.3942 14.9976 32.3137 14.9976 29.1206C14.9976 28.3821 15.26 27.6643 15.7362 27.0984C16.8615 25.7618 17.7037 24.2273 18.2398 22.5364L18.5481 21.5632L16.3877 22.5364L15.3152 21.5609Z" fill="#245BAE"/>
<path d="M45.5786 5.86651L45.4095 5.40729C45.0193 4.34804 44.4577 3.37978 43.7423 2.53065C42.8534 1.47358 42.3634 0.132738 42.3634 -1.24709C42.3634 -3.44572 41.4334 -5.56854 39.8138 -7.06967C38.1748 -8.59033 36.0372 -9.33327 33.7976 -9.16864C29.9169 -8.87841 26.7733 -5.7375 26.4827 -1.86228C26.3136 0.375345 27.0594 2.50899 28.5836 4.14876C29.7478 5.40079 31.3131 6.25858 32.9976 6.56617L35.1157 6.75246V9.60961H34.4111C31.4019 9.60961 28.499 8.34244 26.4459 6.13078C24.3646 3.89099 23.3456 0.975363 23.5754 -2.08105C23.9744 -7.3816 28.2735 -11.677 33.5786 -12.0756C33.8627 -12.0973 34.1423 -12.1081 34.4242 -12.1081C37.171 -12.1081 39.7618 -11.0944 41.7975 -9.20982C44.0111 -7.15848 45.2794 -4.25802 45.2794 -1.25143C45.2794 -0.556093 45.5266 0.119742 45.9754 0.652613C47.0355 1.91114 47.829 3.35595 48.3341 4.94807L48.6247 5.86434L46.5891 4.94807L45.5786 5.86651Z" fill="#245BAE"/>
</g>
<defs>
<clipPath id="clip0_46_4">
<rect width="32" height="32" rx="16" fill="white"/>
</clipPath>
</defs>
</svg>
